<svg width="52" height="45" viewBox="0 0 52 45" fill="none" xmlns="http://www.w3.org/2000/svg">
<path fill-rule="evenodd" clip-rule="evenodd" d="M44.3769 26.3707C46.9515 25.3181 48.7733 22.8163 48.7733 19.8692V18.7114C48.7733 15.7643 46.9515 13.2544 44.3769 12.2018C44.0368 12.0642 43.6644 12.3152 43.6644 12.6795V25.893C43.6644 26.2654 44.0368 26.5083 44.3769 26.3707ZM39.7619 26.6864C39.519 23.6907 38.3288 20.9703 36.4828 18.8166C36.2723 18.5656 36.3289 18.2256 36.6042 18.0475C39.1141 16.4444 40.6849 13.5053 40.3043 10.2344C39.8914 6.67188 37.0495 3.72476 33.5033 3.19039C31.8435 2.9475 30.2566 3.19849 28.8802 3.83001C27.9329 4.26722 26.9289 4.47773 25.925 4.47773C24.9129 4.47773 23.9089 4.25913 22.9697 3.83001C21.5933 3.19849 20.0064 2.9394 18.3466 3.19039C14.8004 3.71666 11.9585 6.67188 11.5456 10.2344C11.1651 13.5134 12.7358 16.4444 15.2457 18.0475C15.521 18.2256 15.5776 18.5656 15.3671 18.8166C13.5292 20.9703 12.331 23.6907 12.0881 26.6864C12.0638 26.9941 12.2905 27.2532 12.5981 27.2532H25.925H39.2518C39.5513 27.2532 39.7861 26.986 39.7619 26.6864ZM12.25 30.2975C13.4159 36.7989 19.0834 41.7459 25.925 41.7459C32.7665 41.7459 38.434 36.807 39.5999 30.2975C39.6566 29.9736 39.4137 29.6821 39.0899 29.6821H25.925H12.7601C12.4362 29.6821 12.1933 29.9817 12.25 30.2975ZM7.48116 26.3707C7.82122 26.5083 8.19366 26.2573 8.19366 25.893V12.6714C8.19366 12.299 7.82122 12.0561 7.48116 12.1937C4.90648 13.2544 3.08477 15.7562 3.08477 18.7033V19.8692C3.08477 22.8082 4.90648 25.3181 7.48116 26.3707ZM43.4862 9.13324C44.1663 9.0037 44.8788 9.06847 45.5428 9.33566C49.3805 10.9145 51.8661 14.5903 51.8904 18.7033V19.8611C51.8904 23.9822 49.4129 27.658 45.5751 29.2287C45.1298 29.4069 44.6602 29.4959 44.1987 29.4959C43.7696 29.4959 43.3486 29.4149 42.9519 29.2692C42.7899 29.2044 42.6199 29.3502 42.6523 29.5202C42.7333 29.9493 42.7414 30.3946 42.6604 30.8399C41.2111 38.9526 34.1834 44.8388 25.9412 44.8388C17.6989 44.8388 10.6712 38.9526 9.2219 30.8399C9.14094 30.3946 9.14903 29.9493 9.23 29.5202C9.26238 29.3502 9.09236 29.2044 8.93043 29.2692C8.5256 29.4149 8.10459 29.4959 7.68357 29.4959C7.22207 29.4959 6.76057 29.4069 6.31526 29.2287C2.47753 27.6499 0 23.9741 0 19.8611V18.7033C0 14.5822 2.47753 10.9064 6.31526 9.33566C6.97917 9.06038 7.69166 9.0037 8.37177 9.13324C8.50131 9.15753 8.62276 9.08467 8.64705 8.95512C9.57005 4.39677 13.254 0.826223 17.9094 0.129927C20.0955 -0.202029 22.2977 0.105638 24.2733 1.01244C24.7995 1.25534 25.3663 1.37678 25.9331 1.37678C26.4998 1.37678 27.0666 1.25534 27.5928 1.01244C29.5684 0.113734 31.7706 -0.193933 33.9567 0.129927C38.6122 0.826223 42.2961 4.39677 43.2191 8.95512C43.2433 9.08467 43.3567 9.15753 43.4862 9.13324ZM17.6908 10.8902C17.6908 10.1453 18.2981 9.53806 19.0429 9.53806H32.807C33.5518 9.53806 34.1591 10.1453 34.1591 10.8902C34.1591 11.6351 33.5518 12.2423 32.807 12.2423H19.0429C18.2981 12.2423 17.6908 11.6351 17.6908 10.8902ZM26.9451 18.3875C26.9451 17.4969 27.6657 16.7763 28.5563 16.7763C29.4469 16.7763 30.1675 17.4969 30.1675 18.3875C30.1675 19.2782 29.4469 19.9987 28.5563 19.9987C27.6657 19.9987 26.9451 19.2782 26.9451 18.3875ZM23.2936 16.7763C22.403 16.7763 21.6824 17.4969 21.6824 18.3875C21.6824 19.2782 22.403 19.9987 23.2936 19.9987C24.1842 19.9987 24.9048 19.2782 24.9048 18.3875C24.9048 17.4969 24.1842 16.7763 23.2936 16.7763Z" fill="white"/>
</svg>
