<svg width="272" height="263" viewBox="0 0 272 263" fill="none" xmlns="http://www.w3.org/2000/svg">
<path d="M198.056 194.399C198.056 170.667 177.099 151.419 151.257 151.419C145.383 151.419 139.772 152.407 134.597 154.226C127.78 135.26 110.83 121.836 91.0062 121.836C68.9707 121.836 50.4885 138.428 45.5212 160.774C41.7142 159.124 37.5627 158.215 33.2209 158.215C14.8746 158.215 0 174.418 0 194.399H198.056Z" fill="url(#paint0_linear)"/>
<path d="M237.241 160.227C237.241 145.603 222.04 133.742 203.295 133.742C199.035 133.742 194.965 134.351 191.213 135.472C186.263 123.787 173.972 115.508 159.596 115.508C143.616 115.508 130.209 125.737 126.611 139.505C123.846 138.49 120.837 137.925 117.683 137.925C104.376 137.925 93.5895 147.907 93.5895 160.227H237.241Z" fill="url(#paint1_linear)"/>
<path fill-rule="evenodd" clip-rule="evenodd" d="M141.168 232.349H145.601C146.67 232.349 147.541 231.502 147.541 230.461V226.145C147.541 225.104 146.67 224.256 145.601 224.256H141.168C140.099 224.256 139.229 225.104 139.229 226.145V230.461C139.229 231.502 140.099 232.349 141.168 232.349Z" fill="#DF5C61"/>
<path fill-rule="evenodd" clip-rule="evenodd" d="M126.475 232.605H130.907C131.977 232.605 132.847 231.758 132.847 230.717V226.401C132.847 225.359 131.977 224.512 130.907 224.512H126.475C125.405 224.512 124.535 225.359 124.535 226.401V230.717C124.535 231.749 125.405 232.605 126.475 232.605Z" fill="#43E8E1"/>
<path fill-rule="evenodd" clip-rule="evenodd" d="M156.541 232.349H160.974C162.043 232.349 162.914 231.502 162.914 230.461V226.145C162.914 225.104 162.043 224.256 160.974 224.256H156.541C155.472 224.256 154.602 225.104 154.602 226.145V230.461C154.602 231.502 155.472 232.349 156.541 232.349Z" fill="white"/>
<path fill-rule="evenodd" clip-rule="evenodd" d="M171.915 232.349H176.347C177.417 232.349 178.287 231.502 178.287 230.461V226.145C178.287 225.104 177.417 224.256 176.347 224.256H171.915C170.845 224.256 169.975 225.104 169.975 226.145V230.461C169.975 231.502 170.854 232.349 171.915 232.349Z" fill="url(#paint2_linear)"/>
<path fill-rule="evenodd" clip-rule="evenodd" d="M234.921 237.123H239.353C240.423 237.123 241.293 236.276 241.293 235.235V230.919C241.293 229.878 240.423 229.03 239.353 229.03H234.921C233.851 229.03 232.981 229.878 232.981 230.919V235.235C232.981 236.267 233.851 237.123 234.921 237.123Z" fill="white"/>
<path fill-rule="evenodd" clip-rule="evenodd" d="M250.294 237.123H254.727C255.796 237.123 256.666 236.276 256.666 235.235V230.919C256.666 229.878 255.796 229.03 254.727 229.03H250.294C249.225 229.03 248.354 229.878 248.354 230.919V235.235C248.354 236.267 249.225 237.123 250.294 237.123Z" fill="#E7BE50"/>
<path fill-rule="evenodd" clip-rule="evenodd" d="M221.714 225.068H236.253C239.752 225.068 242.617 222.279 242.617 218.873V204.725C242.617 201.319 239.752 198.53 236.253 198.53H221.714C218.215 198.53 215.351 201.319 215.351 204.725V218.881C215.351 222.279 218.215 225.068 221.714 225.068Z" fill="url(#paint3_linear)"/>
<path fill-rule="evenodd" clip-rule="evenodd" d="M143.335 218.043H157.874C161.373 218.043 164.237 215.254 164.237 211.847V197.691C164.237 194.284 161.373 191.496 157.874 191.496H143.335C139.836 191.496 136.971 194.284 136.971 197.691V211.847C136.971 215.254 139.836 218.043 143.335 218.043Z" fill="url(#paint4_linear)"/>
<path fill-rule="evenodd" clip-rule="evenodd" d="M173.292 199.968H181.668C183.68 199.968 185.33 198.362 185.33 196.402V188.248C185.33 186.288 183.68 184.682 181.668 184.682H173.292C171.28 184.682 169.63 186.288 169.63 188.248V196.402C169.63 198.362 171.28 199.968 173.292 199.968Z" fill="url(#paint5_linear)"/>
<path fill-rule="evenodd" clip-rule="evenodd" d="M187.288 232.349H191.72C192.79 232.349 193.66 231.502 193.66 230.461V226.145C193.66 225.104 192.79 224.256 191.72 224.256H187.288C186.218 224.256 185.348 225.104 185.348 226.145V230.461C185.348 231.502 186.227 232.349 187.288 232.349Z" fill="white"/>
<path fill-rule="evenodd" clip-rule="evenodd" d="M202.661 232.349H207.093C208.163 232.349 209.033 231.502 209.033 230.461V226.145C209.033 225.104 208.163 224.256 207.093 224.256H202.661C201.591 224.256 200.721 225.104 200.721 226.145V230.461C200.73 231.502 201.6 232.349 202.661 232.349Z" fill="white"/>
<path fill-rule="evenodd" clip-rule="evenodd" d="M172.468 216.03H176.9C177.97 216.03 178.84 215.183 178.84 214.142V209.826C178.84 208.785 177.97 207.938 176.9 207.938H172.468C171.398 207.938 170.528 208.785 170.528 209.826V214.142C170.537 215.183 171.407 216.03 172.468 216.03Z" fill="white"/>
<path fill-rule="evenodd" clip-rule="evenodd" d="M187.85 216.03H192.282C193.352 216.03 194.222 215.183 194.222 214.142V209.826C194.222 208.785 193.352 207.938 192.282 207.938H187.85C186.78 207.938 185.91 208.785 185.91 209.826V214.142C185.91 215.183 186.78 216.03 187.85 216.03Z" fill="#43E8E1"/>
<path fill-rule="evenodd" clip-rule="evenodd" d="M203.223 216.03H207.655C208.725 216.03 209.595 215.183 209.595 214.142V209.826C209.595 208.785 208.725 207.938 207.655 207.938H203.223C202.153 207.938 201.283 208.785 201.283 209.826V214.142C201.283 215.183 202.153 216.03 203.223 216.03Z" fill="white"/>
<path fill-rule="evenodd" clip-rule="evenodd" d="M218.95 194.258H223.382C224.452 194.258 225.322 193.411 225.322 192.369V188.054C225.322 187.012 224.452 186.165 223.382 186.165H218.95C217.88 186.165 217.01 187.012 217.01 188.054V192.369C217.01 193.411 217.88 194.258 218.95 194.258Z" fill="white"/>
<path fill-rule="evenodd" clip-rule="evenodd" d="M187.288 249.885H191.72C192.79 249.885 193.66 249.038 193.66 247.997V243.681C193.66 242.64 192.79 241.792 191.72 241.792H187.288C186.218 241.792 185.348 242.64 185.348 243.681V247.997C185.348 249.029 186.227 249.885 187.288 249.885Z" fill="white"/>
<path fill-rule="evenodd" clip-rule="evenodd" d="M202.661 249.885H207.093C208.163 249.885 209.033 249.038 209.033 247.997V243.681C209.033 242.64 208.163 241.792 207.093 241.792H202.661C201.591 241.792 200.721 242.64 200.721 243.681V247.997C200.73 249.029 201.6 249.885 202.661 249.885Z" fill="#43E8E1"/>
<path fill-rule="evenodd" clip-rule="evenodd" d="M250.104 221.432H254.536C255.606 221.432 256.476 220.585 256.476 219.543V215.228C256.476 214.186 255.606 213.339 254.536 213.339H250.104C249.034 213.339 248.164 214.186 248.164 215.228V219.543C248.164 220.585 249.034 221.432 250.104 221.432Z" fill="#43E8E1"/>
<path fill-rule="evenodd" clip-rule="evenodd" d="M264.888 221.264H269.32C270.39 221.264 271.26 220.417 271.26 219.376V215.06C271.26 214.019 270.39 213.171 269.32 213.171H264.888C263.818 213.171 262.948 214.019 262.948 215.06V219.376C262.948 220.417 263.818 221.264 264.888 221.264Z" fill="white"/>
<path fill-rule="evenodd" clip-rule="evenodd" d="M218.65 237.371H223.083C224.152 237.371 225.023 236.524 225.023 235.482V231.167C225.023 230.125 224.152 229.278 223.083 229.278H218.65C217.581 229.278 216.711 230.125 216.711 231.167V235.482C216.711 236.524 217.581 237.371 218.65 237.371Z" fill="white"/>
<path fill-rule="evenodd" clip-rule="evenodd" d="M219.167 250.133H223.6C224.669 250.133 225.539 249.285 225.539 248.244V243.928C225.539 242.887 224.669 242.04 223.6 242.04H219.167C218.098 242.04 217.227 242.887 217.227 243.928V248.244C217.227 249.285 218.098 250.133 219.167 250.133Z" fill="#43E8E1"/>
<path d="M27.4197 100.673H41.6235V176.978H27.4197V100.673Z" fill="url(#paint6_linear)"/>
<path d="M34.4718 104.794C39.8583 104.794 44.225 100.543 44.225 95.298C44.225 90.0534 39.8583 85.8018 34.4718 85.8018C29.0852 85.8018 24.7185 90.0534 24.7185 95.298C24.7185 100.543 29.0852 104.794 34.4718 104.794Z" fill="url(#paint7_linear)"/>
<path d="M37.9786 97.7583H30.9175C30.8269 97.7583 30.7634 97.8377 30.7815 97.9172C31.0897 99.6116 32.6125 100.9 34.4435 100.9C36.2745 100.9 37.7973 99.6116 38.1055 97.9172C38.1327 97.8377 38.0693 97.7583 37.9786 97.7583Z" fill="white"/>
<path d="M36.2956 93.2129H32.6064C32.407 93.2129 32.2438 93.054 32.2438 92.8599C32.2438 92.6657 32.407 92.5069 32.6064 92.5069H36.2956C36.495 92.5069 36.6582 92.6657 36.6582 92.8599C36.6582 93.054 36.495 93.2129 36.2956 93.2129ZM35.1626 95.2339C34.9269 95.2339 34.7275 95.0486 34.7275 94.8103C34.7275 94.5808 34.9178 94.3867 35.1626 94.3867C35.3982 94.3867 35.5976 94.572 35.5976 94.8103C35.5886 95.0486 35.3982 95.2339 35.1626 95.2339ZM33.7485 95.2339C33.5128 95.2339 33.3134 95.0486 33.3134 94.8103C33.3134 94.5808 33.5038 94.3867 33.7485 94.3867C33.9933 94.3867 34.1836 94.572 34.1836 94.8103C34.1836 95.0486 33.9842 95.2339 33.7485 95.2339ZM37.3199 94.7221C37.9906 94.3073 38.4167 93.5394 38.3079 92.6834C38.1991 91.7567 37.4377 90.9801 36.4859 90.8477C36.0418 90.7859 35.6158 90.8477 35.2441 91.0154C34.7365 91.2448 34.1655 91.236 33.6579 91.0154C33.2953 90.8565 32.8693 90.7859 32.4251 90.8477C31.5187 90.9801 30.7935 91.642 30.6213 92.5157C30.44 93.4335 30.866 94.2808 31.5821 94.7221C31.6546 94.7662 31.6728 94.8544 31.6184 94.925C31.1198 95.4899 30.8026 96.1959 30.7391 96.9814C30.7301 97.0608 30.7935 97.1314 30.8751 97.1314H38.0178C38.0994 97.1314 38.1628 97.0608 38.1538 96.9814C38.0903 96.1959 37.7731 95.4899 37.2745 94.925C37.2292 94.8633 37.2383 94.7662 37.3199 94.7221Z" fill="white"/>
<path d="M29.5075 93.203C28.8186 93.4766 28.3291 94.1297 28.3291 94.8975V95.1975C28.3291 95.9654 28.8186 96.6184 29.5075 96.892C29.5981 96.9273 29.6978 96.8656 29.6978 96.7685V93.3177C29.6978 93.2295 29.5981 93.1588 29.5075 93.203Z" fill="white"/>
<path d="M39.3981 93.2019C39.3075 93.1666 39.2078 93.2284 39.2078 93.3255V96.7762C39.2078 96.8733 39.3075 96.9351 39.3981 96.8998C40.087 96.6262 40.5765 95.9731 40.5765 95.2053V94.9052C40.5765 94.1286 40.087 93.4755 39.3981 93.2019Z" fill="white"/>
<path d="M89.7553 58.9102H122.641V235.553H89.7553V58.9102Z" fill="url(#paint8_linear)"/>
<path d="M106.08 68.4594C118.55 68.4594 128.659 58.6167 128.659 46.4751C128.659 34.3334 118.55 24.4907 106.08 24.4907C93.61 24.4907 83.5009 34.3334 83.5009 46.4751C83.5009 58.6167 93.61 68.4594 106.08 68.4594Z" fill="url(#paint9_linear)"/>
<path d="M114.21 52.1655H97.8759C97.6764 52.1655 97.5223 52.342 97.5586 52.5362C98.2747 56.4636 101.801 59.4554 106.043 59.4554C110.285 59.4554 113.802 56.4724 114.527 52.5362C114.563 52.3509 114.409 52.1655 114.21 52.1655Z" fill="white"/>
<path d="M110.315 41.6367H101.776C101.314 41.6367 100.934 41.2748 100.934 40.8159C100.934 40.3658 101.305 39.9951 101.776 39.9951H110.315C110.777 39.9951 111.158 40.3658 111.158 40.8159C111.149 41.266 110.777 41.6367 110.315 41.6367ZM107.677 46.323C107.124 46.323 106.68 45.8905 106.68 45.3522C106.68 44.8138 107.124 44.3814 107.677 44.3814C108.23 44.3814 108.674 44.8138 108.674 45.3522C108.674 45.8817 108.23 46.323 107.677 46.323ZM104.405 46.323C103.852 46.323 103.408 45.8905 103.408 45.3522C103.408 44.8138 103.852 44.3814 104.405 44.3814C104.958 44.3814 105.402 44.8138 105.402 45.3522C105.411 45.8817 104.958 46.323 104.405 46.323ZM112.672 45.1404C114.231 44.1696 115.201 42.3957 114.965 40.4276C114.702 38.2741 112.944 36.4914 110.741 36.1737C109.708 36.0236 108.729 36.1825 107.877 36.562C106.708 37.0827 105.384 37.0827 104.206 36.562C103.354 36.1825 102.384 36.0325 101.36 36.1737C99.2475 36.4737 97.5888 38.0005 97.1899 40.0392C96.7639 42.1662 97.761 44.1166 99.4198 45.1492C99.592 45.2551 99.6282 45.4669 99.4923 45.617C98.3502 46.9143 97.6069 48.5647 97.4528 50.3739C97.4347 50.5592 97.5797 50.7181 97.7701 50.7181H114.303C114.494 50.7181 114.639 50.5592 114.621 50.3739C114.467 48.5647 113.732 46.9231 112.581 45.617C112.463 45.4493 112.5 45.2463 112.672 45.1404Z" fill="white"/>
<path d="M94.5986 41.6088C93.0033 42.2442 91.8702 43.7622 91.8702 45.5361V46.2333C91.8702 48.0161 93.0033 49.5253 94.5986 50.1607C94.8071 50.2489 95.0428 50.0989 95.0428 49.8694V41.8824C95.0428 41.6706 94.8071 41.5205 94.5986 41.6088Z" fill="white"/>
<path d="M117.488 41.6082C117.279 41.5199 117.043 41.6699 117.043 41.8994V49.8865C117.043 50.1071 117.279 50.2571 117.488 50.1777C119.083 49.5423 120.216 48.0331 120.216 46.2503V45.5532C120.216 43.7616 119.083 42.2436 117.488 41.6082Z" fill="white"/>
<path d="M57.613 11.8706H68.9616V194.956H57.613V11.8706Z" fill="url(#paint10_linear)"/>
<path d="M63.2511 15.1622C67.5513 15.1622 71.0374 11.768 71.0374 7.5811C71.0374 3.39417 67.5513 0 63.2511 0C58.9508 0 55.4648 3.39417 55.4648 7.5811C55.4648 11.768 58.9508 15.1622 63.2511 15.1622Z" fill="url(#paint11_linear)"/>
<path d="M66.0509 9.53809H60.4128C60.3403 9.53809 60.295 9.59985 60.3041 9.66163C60.5488 11.0208 61.7634 12.0445 63.2319 12.0445C64.7003 12.0445 65.9059 11.0119 66.1597 9.66163C66.1687 9.59985 66.1234 9.53809 66.0509 9.53809Z" fill="white"/>
<path d="M64.7033 5.91087H61.7573C61.5942 5.91087 61.4673 5.78731 61.4673 5.62845C61.4673 5.46959 61.5942 5.34603 61.7573 5.34603H64.7033C64.8664 5.34603 64.9933 5.46959 64.9933 5.62845C64.9933 5.77848 64.8664 5.91087 64.7033 5.91087ZM63.7968 7.52593C63.6065 7.52593 63.4524 7.37589 63.4524 7.19055C63.4524 7.00522 63.6065 6.85518 63.7968 6.85518C63.9872 6.85518 64.1413 7.00522 64.1413 7.19055C64.1413 7.37589 63.9872 7.52593 63.7968 7.52593ZM62.6728 7.52593C62.4825 7.52593 62.3284 7.37589 62.3284 7.19055C62.3284 7.00522 62.4825 6.85518 62.6728 6.85518C62.8632 6.85518 63.0173 7.00522 63.0173 7.19055C63.0173 7.37589 62.8632 7.52593 62.6728 7.52593ZM65.519 7.11996C66.0538 6.78459 66.3892 6.17564 66.3076 5.49607C66.217 4.75473 65.6097 4.13694 64.8483 4.03103C64.4948 3.97808 64.1503 4.03103 63.8603 4.16341C63.4524 4.33992 62.9991 4.33992 62.5912 4.16341C62.3012 4.03103 61.9658 3.97808 61.6123 4.03103C60.8872 4.13694 60.3161 4.66645 60.1711 5.36367C60.026 6.09618 60.3705 6.76692 60.9416 7.12877C61.005 7.16407 61.0141 7.23469 60.9687 7.28765C60.5699 7.73775 60.3161 8.30257 60.2617 8.92918C60.2527 8.99096 60.307 9.04391 60.3705 9.04391H66.072C66.1354 9.04391 66.1898 8.99096 66.1808 8.92918C66.1264 8.30257 65.8725 7.73775 65.4828 7.28765C65.4465 7.22587 65.4647 7.15526 65.519 7.11996Z" fill="white"/>
<path d="M59.2839 5.9007C58.731 6.12134 58.3412 6.64205 58.3412 7.25984V7.49814C58.3412 8.11593 58.731 8.63662 59.2839 8.85725C59.3564 8.88373 59.438 8.83079 59.438 8.76019V6.00663C59.438 5.91838 59.3564 5.8654 59.2839 5.9007Z" fill="white"/>
<path d="M67.1804 5.89951C67.1079 5.87304 67.0263 5.926 67.0263 5.99661V8.75016C67.0263 8.82959 67.1079 8.88256 67.1804 8.84726C67.7333 8.62662 68.1231 8.10591 68.1231 7.48812V7.24982C68.1231 6.64086 67.7333 6.12015 67.1804 5.89951Z" fill="white"/>
<path d="M135.657 90.6382H153.369V185.768H135.657V90.6382Z" fill="url(#paint12_linear)"/>
<path d="M144.45 95.7834C151.168 95.7834 156.614 90.4807 156.614 83.9396C156.614 77.3984 151.168 72.0957 144.45 72.0957C137.731 72.0957 132.285 77.3984 132.285 83.9396C132.285 90.4807 137.731 95.7834 144.45 95.7834Z" fill="url(#paint13_linear)"/>
<path d="M148.827 87.0093H140.025C139.917 87.0093 139.835 87.1063 139.853 87.2122C140.243 89.3304 142.137 90.9366 144.422 90.9366C146.706 90.9366 148.6 89.3304 148.99 87.2122C149.017 87.0975 148.936 87.0093 148.827 87.0093Z" fill="white"/>
<path d="M146.727 81.3339H142.131C141.877 81.3339 141.678 81.1397 141.678 80.8926C141.678 80.6543 141.877 80.4513 142.131 80.4513H146.727C146.981 80.4513 147.18 80.6455 147.18 80.8926C147.18 81.1309 146.981 81.3339 146.727 81.3339ZM145.313 83.858C145.014 83.858 144.778 83.6197 144.778 83.3373C144.778 83.046 145.023 82.8166 145.313 82.8166C145.612 82.8166 145.848 83.0549 145.848 83.3373C145.848 83.6197 145.603 83.858 145.313 83.858ZM143.545 83.858C143.246 83.858 143.01 83.6197 143.01 83.3373C143.01 83.046 143.255 82.8166 143.545 82.8166C143.844 82.8166 144.08 83.0549 144.08 83.3373C144.089 83.6197 143.844 83.858 143.545 83.858ZM147.996 83.2225C148.83 82.7018 149.355 81.7487 149.229 80.6808C149.093 79.5247 148.141 78.5627 146.953 78.3862C146.4 78.3067 145.866 78.3862 145.412 78.598C144.787 78.8804 144.071 78.8804 143.436 78.598C142.983 78.395 142.457 78.3156 141.905 78.3862C140.771 78.545 139.874 79.3746 139.657 80.469C139.43 81.6163 139.965 82.6665 140.862 83.2225C140.953 83.2843 140.971 83.3902 140.898 83.4696C140.282 84.1669 139.883 85.0583 139.802 86.0291C139.793 86.1261 139.874 86.2144 139.974 86.2144H148.875C148.975 86.2144 149.056 86.1261 149.047 86.0291C148.966 85.0583 148.567 84.1669 147.95 83.4696C147.887 83.3902 147.905 83.2755 147.996 83.2225Z" fill="white"/>
<path d="M138.262 81.3151C137.401 81.6592 136.793 82.4712 136.793 83.4332V83.8127C136.793 84.7746 137.401 85.5866 138.262 85.9308C138.38 85.9749 138.497 85.8955 138.497 85.7719V81.4739C138.507 81.3503 138.38 81.2709 138.262 81.3151Z" fill="white"/>
<path d="M150.591 81.3136C150.473 81.2695 150.355 81.3489 150.355 81.4724V85.7705C150.355 85.894 150.482 85.9735 150.591 85.9293C151.452 85.5851 152.059 84.7732 152.059 83.8112V83.4317C152.059 82.4785 151.452 81.6578 150.591 81.3136Z" fill="white"/>
<path d="M11.0585 192.396C11.0585 190.516 12.6266 188.989 14.5573 188.989H103.941C105.872 188.989 107.44 190.516 107.44 192.396L124.526 257.961H189.064C190.487 257.961 191.648 259.09 191.648 260.476C191.648 261.861 190.487 262.991 189.064 262.991H29.7582C28.3351 262.991 27.1749 261.861 27.1749 260.476C27.1749 260.485 11.0585 192.925 11.0585 192.396Z" fill="url(#paint14_linear)"/>
<path d="M102.871 192.546C102.545 191.117 101.077 189.855 99.7804 188.999H103.932C105.863 188.999 107.431 190.525 107.431 192.405L124.517 257.97H189.055C190.478 257.97 191.639 259.1 191.639 260.485C191.639 261.871 190.478 263 189.055 263H121.091C117.356 248.562 103.397 194.85 102.871 192.546Z" fill="#321060"/>
<path d="M226.216 222.257H229.68C229.839 222.257 229.953 222.189 229.999 222.052L234.806 209.702C234.852 209.566 234.875 209.474 234.875 209.36V206.581C234.875 206.421 234.761 206.307 234.601 206.307H224.257C224.097 206.307 223.983 206.421 223.983 206.581L223.96 210.728C223.96 210.887 224.074 211.001 224.234 211.001H226.763C226.923 211.001 227.036 210.887 227.036 210.728V209.657C227.036 209.588 227.082 209.543 227.15 209.543H230.751C230.819 209.543 230.865 209.611 230.842 209.679L225.988 221.938C225.92 222.143 226.011 222.257 226.216 222.257Z" fill="white"/>
<path d="M146.19 201.919H140.779V213.216H146.19V201.919Z" fill="white"/>
<path d="M153.532 196.906H148.121V213.215H153.532V196.906Z" fill="white"/>
<path d="M160.493 209.297H155.082V213.339H160.493V209.297Z" fill="white"/>
<defs>
<linearGradient id="paint0_linear" x1="99.0269" y1="194.396" x2="99.0269" y2="121.832" gradientUnits="userSpaceOnUse">
<stop stop-color="#9DD3F8" stop-opacity="0"/>
<stop offset="1" stop-color="#91B8F3"/>
</linearGradient>
<linearGradient id="paint1_linear" x1="165.416" y1="160.228" x2="165.416" y2="115.51" gradientUnits="userSpaceOnUse">
<stop stop-color="#9DD3F8" stop-opacity="0"/>
<stop offset="0.4652" stop-color="#95C1F5" stop-opacity="0.3846"/>
<stop offset="1" stop-color="#91B8F3"/>
</linearGradient>
<linearGradient id="paint2_linear" x1="169.647" y1="227.739" x2="174.778" y2="233.547" gradientUnits="userSpaceOnUse">
<stop stop-color="#42B2F1"/>
<stop offset="1" stop-color="#2A54D3"/>
</linearGradient>
<linearGradient id="paint3_linear" x1="214.277" y1="209.952" x2="231.099" y2="229.002" gradientUnits="userSpaceOnUse">
<stop stop-color="#42B2F1"/>
<stop offset="1" stop-color="#2A54D3"/>
</linearGradient>
<linearGradient id="paint4_linear" x1="135.897" y1="202.921" x2="152.726" y2="221.973" gradientUnits="userSpaceOnUse">
<stop stop-color="#42B2F1"/>
<stop offset="1" stop-color="#2A54D3"/>
</linearGradient>
<linearGradient id="paint5_linear" x1="169.012" y1="191.261" x2="178.702" y2="202.231" gradientUnits="userSpaceOnUse">
<stop stop-color="#42B2F1"/>
<stop offset="1" stop-color="#2A54D3"/>
</linearGradient>
<linearGradient id="paint6_linear" x1="35.8292" y1="159.289" x2="21.5155" y2="108.034" gradientUnits="userSpaceOnUse">
<stop stop-color="#42B2F1" stop-opacity="0"/>
<stop offset="1" stop-color="#2A54D3"/>
</linearGradient>
<linearGradient id="paint7_linear" x1="19.3742" y1="102.783" x2="40.312" y2="110.503" gradientUnits="userSpaceOnUse">
<stop stop-color="#26259E"/>
<stop offset="1" stop-color="#5F50CC"/>
</linearGradient>
<linearGradient id="paint8_linear" x1="109.226" y1="194.602" x2="76.094" y2="75.9487" gradientUnits="userSpaceOnUse">
<stop stop-color="#42B2F1" stop-opacity="0"/>
<stop offset="1" stop-color="#2A54D3"/>
</linearGradient>
<linearGradient id="paint9_linear" x1="71.1285" y1="63.8022" x2="119.601" y2="81.6746" gradientUnits="userSpaceOnUse">
<stop stop-color="#26259E"/>
<stop offset="1" stop-color="#5F50CC"/>
</linearGradient>
<linearGradient id="paint10_linear" x1="64.3321" y1="152.512" x2="-0.939785" y2="74.6823" gradientUnits="userSpaceOnUse">
<stop stop-color="#42B2F1" stop-opacity="0"/>
<stop offset="1" stop-color="#2A54D3"/>
</linearGradient>
<linearGradient id="paint11_linear" x1="51.1983" y1="13.5562" x2="67.9135" y2="19.7194" gradientUnits="userSpaceOnUse">
<stop stop-color="#26259E"/>
<stop offset="1" stop-color="#5F50CC"/>
</linearGradient>
<linearGradient id="paint12_linear" x1="146.144" y1="163.715" x2="128.302" y2="99.8135" gradientUnits="userSpaceOnUse">
<stop stop-color="#42B2F1" stop-opacity="0"/>
<stop offset="1" stop-color="#2A54D3"/>
</linearGradient>
<linearGradient id="paint13_linear" x1="125.62" y1="93.2744" x2="151.734" y2="102.903" gradientUnits="userSpaceOnUse">
<stop stop-color="#26259E"/>
<stop offset="1" stop-color="#5F50CC"/>
</linearGradient>
<linearGradient id="paint14_linear" x1="74.073" y1="250.774" x2="84.2539" y2="219.259" gradientUnits="userSpaceOnUse">
<stop stop-color="#5144A3"/>
<stop offset="0.543707" stop-color="#6152BD"/>
<stop offset="1" stop-color="#6C5DCC"/>
</linearGradient>
</defs>
</svg>
