<svg width="318" height="242" viewBox="0 0 318 242" fill="none" xmlns="http://www.w3.org/2000/svg">
<g filter="url(#filter0_b)">
<path d="M273.421 212.239H57.9034C54.1621 212.239 51.0974 209.174 51.0974 205.433V73.2358C51.0974 69.4944 54.1621 66.4297 57.9034 66.4297H273.421C277.163 66.4297 280.227 69.4944 280.227 73.2358V205.433C280.227 209.174 277.163 212.239 273.421 212.239Z" fill="url(#paint0_linear)" fill-opacity="0.8"/>
</g>
<path d="M177.587 82.0235C177.587 60.6182 159.183 43.2567 136.488 43.2567C131.329 43.2567 126.402 44.1483 121.857 45.7881C115.87 28.6814 100.985 16.5737 83.5755 16.5737C64.2239 16.5737 47.9928 31.5391 43.6306 51.6947C40.2872 50.2061 36.6414 49.3862 32.8284 49.3862C16.7167 49.3862 3.65381 64.0013 3.65381 82.0235H177.587Z" fill="url(#paint1_linear)"/>
<path d="M226.495 40.3349C226.495 27.1447 213.146 16.446 196.684 16.446C192.942 16.446 189.368 16.9953 186.073 18.0062C181.726 7.46678 170.932 0 158.307 0C144.273 0 132.5 9.22602 129.339 21.6441C126.911 20.7287 124.269 20.2192 121.498 20.2192C109.813 20.2192 100.34 29.2223 100.34 40.3349H226.495Z" fill="url(#paint2_linear)"/>
<path d="M278.462 141.749C294.632 141.749 307.74 128.64 307.74 112.47C307.74 96.3006 294.632 83.1924 278.462 83.1924C262.292 83.1924 249.184 96.3006 249.184 112.47C249.184 128.64 262.292 141.749 278.462 141.749Z" fill="url(#paint3_linear)"/>
<path d="M299.318 113.004C299.318 118.489 297.193 123.472 293.722 127.19C289.933 131.241 284.536 133.781 278.542 133.781C272.285 133.781 266.673 131.011 262.868 126.64C259.692 122.995 257.773 118.226 257.773 113.012C257.773 101.541 267.071 92.2358 278.542 92.2358C290.021 92.2358 299.318 101.534 299.318 113.004Z" fill="url(#paint4_linear)"/>
<path d="M277.013 95.6506C276.512 95.9292 276.042 96.3034 275.612 96.7094C274.657 97.6089 273.797 98.6835 272.588 99.185C271.72 99.5432 270.701 99.591 269.953 100.164C269.196 100.745 268.878 101.724 268.711 102.664C268.544 103.603 268.464 104.582 268.01 105.426C267.604 106.182 266.936 106.747 266.418 107.432C265.36 108.817 265.773 110.481 267.031 111.611C267.708 112.216 268.552 112.59 269.324 113.052C270.144 113.545 270.685 114.031 270.916 114.939C271.123 115.758 271.553 116.761 272.277 117.255C273.041 117.772 274.076 117.955 274.976 117.788C275.939 117.613 276.822 117.151 277.746 116.849C278.637 116.562 279.417 116.546 280.317 116.753C281.097 116.937 281.814 117.335 282.61 117.47C283.692 117.645 284.823 117.287 285.674 116.602C287.171 115.392 287.33 113.307 288.89 112.208C289.758 111.603 290.896 111.293 291.446 110.393C292.019 109.462 291.716 108.236 291.207 107.265C290.697 106.294 289.981 105.418 289.694 104.359C289.487 103.603 289.519 102.807 289.44 102.027C289.36 101.247 289.121 100.435 288.524 99.9253C287.832 99.3283 286.829 99.2965 285.953 99.0258C284.791 98.6676 283.827 97.8795 282.88 97.1154C281.941 96.3512 280.954 95.579 279.792 95.2526C278.773 94.974 277.841 95.1889 277.013 95.6506Z" fill="#162A46"/>
<path d="M292.711 125.94C289.161 129.737 284.106 132.109 278.494 132.109C272.635 132.109 267.374 129.514 263.807 125.415C264.174 124.555 264.97 123.95 265.527 123.393C266.06 122.859 267.994 121.968 269.77 121.084C269.897 121.021 270.056 120.949 270.231 120.869C270.685 120.662 271.282 120.408 271.903 120.137C272.054 120.073 272.198 120.01 272.349 119.946C272.46 119.898 272.58 119.85 272.691 119.795C273.758 119.333 274.737 118.887 275.031 118.664C275.191 118.537 275.31 117.86 275.39 116.969C275.589 114.788 275.589 111.293 275.589 111.293L282.88 107.814C282.88 107.814 282.419 111.834 282.323 114.827C282.291 115.902 282.307 116.841 282.411 117.423C282.626 118.64 283.183 119.468 284.671 120.185C284.783 120.241 284.942 120.32 285.133 120.408C285.252 120.463 285.38 120.527 285.515 120.591C285.642 120.654 285.778 120.718 285.921 120.782C286.128 120.877 286.343 120.981 286.55 121.068C286.725 121.148 286.908 121.228 287.099 121.315C289.193 122.302 292.019 123.727 292.711 125.94Z" fill="url(#paint5_linear)"/>
<path opacity="0.23" d="M282.872 107.822C282.872 107.822 282.411 111.842 282.315 114.835C281.567 115.567 280.588 116.387 279.632 116.777C278.319 117.31 276.448 117.143 275.382 116.976C275.581 114.795 275.581 111.3 275.581 111.3L282.872 107.822Z" fill="url(#paint6_linear)"/>
<path d="M273.081 109.693C273.081 109.693 272.619 108.252 271.895 108.355C271.003 108.491 271.298 110.855 272.349 111.603C273.352 112.312 273.312 111.317 273.312 111.317L273.081 109.693Z" fill="url(#paint7_linear)"/>
<path d="M283.143 109.279C283.183 109.216 283.963 106.947 285.412 107.464C286.86 107.982 285.181 111.437 284.393 111.827C283.605 112.217 282.586 111.723 282.498 111.166C282.419 110.609 283.143 109.279 283.143 109.279Z" fill="url(#paint8_linear)"/>
<path d="M272.269 104.064C272.269 104.064 272.54 113.744 274.267 115.137C276.432 116.88 281.137 114.46 281.957 113.816C282.88 113.091 283.764 106.054 283.764 106.054L281.623 102.257C281.615 102.257 273.63 102.528 272.269 104.064Z" fill="url(#paint9_linear)"/>
<path d="M272.524 107.065C273.137 106.882 273.511 106.317 273.607 105.656C274.578 105.967 275.66 104.908 275.899 103.873C275.899 103.873 276.528 104.844 277.698 104.661C278.86 104.478 279.179 103.356 279.179 103.356C279.179 103.356 279.195 104.271 280.301 104.765C281.408 105.258 282.331 104.701 282.331 104.701C282.331 104.701 281.631 105.847 282.212 106.755C282.785 107.662 283.239 107.726 283.239 107.726C283.239 107.726 282.626 108.617 283.27 109.135C283.788 109.557 284.52 107.439 284.52 107.439C284.52 107.439 285.348 106.237 285.053 105.593C284.759 104.948 283.867 104.311 283.867 104.311C283.867 104.311 284.242 103.252 283.947 102.464C283.652 101.676 282.251 101.803 282.251 101.803C282.251 101.803 281.853 100.315 280.787 100.458C279.72 100.601 279.131 101.533 279.131 101.533C279.131 101.533 278.128 99.686 277.022 100.084C275.915 100.482 275.445 101.843 275.445 101.843C275.445 101.843 274.259 100.808 273.296 101.429C272.333 102.05 272.389 103.626 272.389 103.626C272.389 103.626 271.441 103.706 271.043 104.287C270.645 104.868 271.282 106.588 271.362 106.858C271.505 108.148 272.206 109.254 272.556 109.143C272.994 109.008 272.524 107.065 272.524 107.065Z" fill="#162A46"/>
<path d="M263.648 125.566C263.943 125.908 264.245 126.235 264.564 126.561C264.97 126.975 265.399 127.373 265.845 127.755C266.657 128.448 267.525 129.076 268.448 129.626C269.188 130.071 269.953 130.47 270.749 130.82C273.153 131.871 275.804 132.452 278.59 132.452C281.376 132.452 284.027 131.871 286.431 130.82C287.227 130.47 287.999 130.071 288.731 129.626C289.647 129.068 290.514 128.448 291.326 127.755C291.772 127.381 292.202 126.983 292.608 126.561C292.759 126.41 292.902 126.259 293.046 126.107C292.886 125.598 292.616 125.128 292.273 124.69C291.931 124.26 291.509 123.862 291.04 123.496C290.068 122.74 288.914 122.127 287.863 121.626C287.481 121.443 287.107 121.267 286.773 121.116C286.415 120.957 286.048 120.782 285.722 120.623C285.555 120.917 285.348 121.259 285.093 121.626C284.655 122.239 284.074 122.907 283.334 123.496C282.737 123.966 282.036 124.388 281.225 124.69C280.389 125.001 279.441 125.176 278.351 125.16C277.571 125.144 276.878 124.969 276.265 124.69C275.612 124.396 275.047 123.974 274.562 123.496C273.981 122.923 273.511 122.262 273.137 121.626C272.787 121.029 272.524 120.447 272.333 119.962C271.306 120.408 270.263 120.853 269.714 121.132C269.38 121.299 269.045 121.466 268.711 121.626C267.23 122.358 265.837 123.051 265.391 123.496C265.033 123.855 264.579 124.237 264.197 124.69C263.982 124.953 263.783 125.24 263.648 125.566Z" fill="#DF5C61"/>
<path d="M248.999 82.747C263.766 82.747 275.738 70.7756 275.738 56.0082C275.738 41.2408 263.766 29.2695 248.999 29.2695C234.232 29.2695 222.26 41.2408 222.26 56.0082C222.26 70.7756 234.232 82.747 248.999 82.747Z" fill="url(#paint10_linear)"/>
<path d="M230.276 55.8323C230.276 60.4811 231.988 64.7319 234.822 67.9877C234.885 68.0593 234.949 68.131 235.013 68.2026C238.404 71.9838 243.323 74.3559 248.8 74.3559C254.141 74.3559 258.949 72.0952 262.332 68.4812C262.603 68.1946 262.866 67.8921 263.121 67.5817C265.747 64.3816 267.324 60.2901 267.324 55.8323C267.324 45.6033 259.029 37.3086 248.8 37.3086C238.571 37.3086 230.276 45.6033 230.276 55.8323Z" fill="url(#paint11_linear)"/>
<path d="M255.916 48.4933C255.916 52.0595 253.027 54.9491 249.469 54.9491C245.91 54.9491 242.965 51.0804 242.965 47.5221C242.965 43.9559 245.902 42.0454 249.469 42.0454C253.027 42.0375 255.916 44.927 255.916 48.4933Z" fill="#162A46"/>
<path d="M262.754 67.1118C262.508 67.4142 262.253 67.7088 261.982 67.9874C258.671 71.5297 253.95 73.7427 248.712 73.7427C243.347 73.7427 238.515 71.4103 235.196 67.7088C235.649 66.3157 236.111 65.066 236.334 64.8749C236.366 64.8431 236.437 64.8032 236.541 64.7555C236.565 64.7475 236.597 64.7316 236.621 64.7157C236.82 64.6202 237.106 64.5007 237.456 64.3575C237.552 64.3177 237.663 64.2779 237.767 64.2381C237.783 64.2301 237.807 64.2221 237.823 64.2142C238.284 64.0391 238.826 63.8401 239.399 63.6331C239.415 63.6251 239.439 63.6251 239.454 63.6172C239.59 63.5694 239.733 63.5216 239.868 63.4659C239.964 63.4341 240.051 63.4022 240.147 63.3704C240.314 63.3147 240.489 63.251 240.656 63.1873C240.887 63.1077 241.126 63.0202 241.357 62.9405C241.803 62.7893 242.233 62.6381 242.639 62.4948C243.124 62.3276 243.562 62.1764 243.944 62.049C243.944 62.049 243.944 62.049 243.952 62.049C244.676 61.8022 245.146 61.651 245.146 61.651L245.337 59.8679L245.878 54.8688L253.56 53.3643C253.56 53.3643 253.584 55.625 253.624 57.7504C253.656 59.4141 253.703 60.9823 253.759 61.3087C254.062 61.4759 254.507 61.6908 255.033 61.9375C255.351 62.0808 255.693 62.24 256.06 62.3993C256.505 62.5983 256.983 62.8052 257.461 63.0122C257.524 63.044 257.596 63.0679 257.66 63.0998C257.795 63.1555 257.922 63.2191 258.058 63.2749C258.782 63.5933 259.491 63.9037 260.104 64.1744C260.215 64.2301 260.326 64.2779 260.43 64.3177C260.557 64.3814 260.685 64.4371 260.804 64.4928C260.86 64.5247 260.915 64.5485 260.971 64.5724C261.162 64.66 261.329 64.7475 261.473 64.8192C261.505 64.8351 261.536 64.851 261.568 64.8749C261.783 64.9943 261.926 65.0818 261.982 65.1455C262.157 65.3525 262.46 66.2122 262.754 67.1118Z" fill="url(#paint12_linear)"/>
<path opacity="0.4" d="M245.345 59.8682C246.205 59.9876 247.271 60.0035 248.529 59.7886C250.694 59.4065 252.501 58.4751 253.632 57.7587C253.592 55.6333 253.568 53.3726 253.568 53.3726L245.886 54.8771L245.345 59.8682Z" fill="url(#paint13_linear)"/>
<path d="M262.754 67.1119C262.484 66.2601 262.197 65.4481 262.014 65.1934C262.006 65.1775 261.99 65.1616 261.982 65.1456C261.974 65.1377 261.966 65.1297 261.958 65.1218C261.895 65.0661 261.767 64.9785 261.568 64.875C261.536 64.8591 261.505 64.8432 261.473 64.8193C261.409 64.7874 261.345 64.7556 261.274 64.7158C261.242 64.6999 261.202 64.684 261.162 64.6601C261.099 64.6282 261.035 64.5964 260.971 64.5646C260.915 64.5407 260.86 64.5088 260.804 64.485C260.796 64.477 260.78 64.477 260.772 64.469C260.661 64.4213 260.549 64.3655 260.43 64.3098C260.326 64.2621 260.215 64.2143 260.104 64.1586C259.674 63.9675 259.196 63.7526 258.702 63.5377C258.496 63.4422 258.281 63.3546 258.066 63.259C257.938 63.2033 257.803 63.1476 257.668 63.0839C257.636 63.068 257.596 63.0521 257.564 63.0362C257.532 63.0203 257.5 63.0123 257.469 62.9964C257.365 62.9486 257.262 62.9088 257.158 62.861C256.967 62.7735 256.776 62.6939 256.593 62.6143C256.418 62.5347 256.243 62.463 256.076 62.3834C256.004 62.3516 255.932 62.3198 255.861 62.2879C255.853 62.2879 255.845 62.2799 255.837 62.2799C255.558 62.1605 255.296 62.0411 255.057 61.9297L252.684 63.0521L252.247 63.259C250.583 64.0471 248.665 64.079 246.977 63.3466L243.96 62.0411C243.96 62.0411 243.96 62.0411 243.952 62.0411C243.936 62.0491 243.912 62.0571 243.896 62.0571C243.785 62.0969 243.673 62.1287 243.554 62.1685C243.506 62.1844 243.459 62.2003 243.411 62.2162C243.323 62.2481 243.236 62.2799 243.14 62.3118C243.116 62.3197 243.092 62.3277 243.068 62.3357C242.933 62.3834 242.79 62.4312 242.647 62.479C242.241 62.6222 241.803 62.7735 241.365 62.9247C241.134 63.0043 240.895 63.0919 240.664 63.1715C240.521 63.2193 240.378 63.275 240.235 63.3227C240.211 63.3307 240.179 63.3386 240.155 63.3546C240.059 63.3864 239.972 63.4263 239.876 63.4501C239.805 63.474 239.725 63.5058 239.653 63.5297C239.59 63.5536 239.526 63.5775 239.462 63.6013C239.446 63.6093 239.431 63.6173 239.407 63.6173C239.407 63.6173 239.407 63.6173 239.399 63.6173C239.064 63.7367 238.746 63.8561 238.444 63.9675C238.229 64.0471 238.022 64.1267 237.823 64.1984C237.807 64.2063 237.791 64.2143 237.767 64.2223C237.767 64.2223 237.767 64.2223 237.759 64.2223C237.647 64.2621 237.544 64.3019 237.441 64.3417C237.249 64.4213 237.082 64.4849 236.931 64.5486C236.804 64.6043 236.7 64.6521 236.605 64.6919C236.573 64.6999 236.549 64.7158 236.525 64.7317C236.43 64.7795 236.358 64.8272 236.318 64.8511C236.095 65.0422 235.633 66.2919 235.18 67.685C237.05 69.7706 239.391 71.4184 242.042 72.4612C244.103 73.2731 246.348 73.7189 248.696 73.7189C250.838 73.7189 252.891 73.3448 254.794 72.6602C257.548 71.6811 260 70.0492 261.958 67.9557C262.125 67.7805 262.285 67.5974 262.444 67.4144C262.563 67.3348 262.659 67.2313 262.754 67.1119Z" fill="#FDFEFE"/>
<path d="M243.57 51.2315C243.514 51.12 243.068 50.6424 242.241 50.8733C241.413 51.1121 241.827 52.9748 242.535 53.8027C243.244 54.6305 244.167 54.4554 244.167 54.336C244.167 54.2166 243.841 51.7967 243.57 51.2315Z" fill="url(#paint14_linear)"/>
<path d="M242.901 47.5849C242.901 47.5849 243.156 56.6199 244.764 57.9095C246.786 59.5334 251.172 57.2727 251.936 56.6757C252.454 56.2697 252.955 53.7622 253.274 51.8039C253.52 50.2994 253.242 48.7631 252.493 47.4337C251.952 46.4705 250.901 45.9133 249.795 45.9929C247.51 46.176 243.769 46.6058 242.901 47.5849Z" fill="url(#paint15_linear)"/>
<path d="M253.051 52.4488C253.09 52.393 253.815 50.2676 255.168 50.7532C256.521 51.2388 254.961 53.9294 254.229 54.3194C253.6 54.6936 252.772 54.6378 252.732 54.399C252.645 53.8736 253.051 52.4488 253.051 52.4488Z" fill="url(#paint16_linear)"/>
<path d="M249.461 45.6987C249.516 45.9773 248.569 45.4122 246.085 47.1077C245.417 47.5615 244.661 46.7893 244.103 46.654C243.785 46.5744 245.441 45.5475 246.276 45.3803C247.104 45.1973 249.405 45.4122 249.461 45.6987Z" fill="#162A46"/>
<path d="M118.044 84.4283H94.2343C93.4144 84.4283 92.7457 83.7597 92.7457 82.9397C92.7457 82.1198 93.4144 81.4512 94.2343 81.4512H118.044C118.864 81.4512 119.532 82.1198 119.532 82.9397C119.532 83.7676 118.864 84.4283 118.044 84.4283Z" fill="#FDFEFE"/>
<path d="M108.324 91.0919H94.2264C93.4065 91.0919 92.7378 90.4232 92.7378 89.6033C92.7378 88.7834 93.4065 88.1147 94.2264 88.1147H108.324C109.144 88.1147 109.813 88.7834 109.813 89.6033C109.813 90.4232 109.144 91.0919 108.324 91.0919Z" fill="#FDFEFE"/>
<path d="M186.51 91.0919H120.854C120.034 91.0919 119.365 90.4232 119.365 89.6033C119.365 88.7834 120.034 88.1147 120.854 88.1147H186.51C187.33 88.1147 187.999 88.7834 187.999 89.6033C187.991 90.4232 187.33 91.0919 186.51 91.0919Z" fill="#FDFEFE"/>
<path d="M196.134 91.0919H229.098C229.918 91.0919 230.587 90.4232 230.587 89.6033C230.587 88.7834 229.918 88.1147 229.098 88.1147H196.134C195.315 88.1147 194.646 88.7834 194.646 89.6033C194.646 90.4232 195.315 91.0919 196.134 91.0919Z" fill="#FC6454"/>
<path d="M141.248 97.7462H100.881C100.061 97.7462 99.3926 97.0775 99.3926 96.2576C99.3926 95.4377 100.061 94.769 100.881 94.769H141.248C142.068 94.769 142.737 95.4377 142.737 96.2576C142.737 97.0775 142.068 97.7462 141.248 97.7462Z" fill="#58D05B"/>
<path d="M157.535 97.7462H219.132C219.952 97.7462 220.62 97.0775 220.62 96.2576C220.62 95.4377 219.952 94.769 219.132 94.769H157.535C156.715 94.769 156.046 95.4377 156.046 96.2576C156.046 97.0775 156.715 97.7462 157.535 97.7462Z" fill="#FDFEFE"/>
<path d="M152.193 104.4H94.2264C93.4065 104.4 92.7378 103.732 92.7378 102.912C92.7378 102.092 93.4065 101.423 94.2264 101.423H152.193C153.013 101.423 153.682 102.092 153.682 102.912C153.682 103.732 153.013 104.4 152.193 104.4Z" fill="#FC6454"/>
<path d="M202.63 101.423H159.294V104.393H202.63V101.423Z" fill="#78D5E4"/>
<path d="M141.248 111.055H100.881C100.061 111.055 99.3926 110.387 99.3926 109.567C99.3926 108.747 100.061 108.078 100.881 108.078H141.248C142.068 108.078 142.737 108.747 142.737 109.567C142.737 110.387 142.068 111.055 141.248 111.055Z" fill="#FDFEFE"/>
<path d="M154.566 117.711H94.2343C93.4144 117.711 92.7457 117.042 92.7457 116.222C92.7457 115.402 93.4144 114.733 94.2343 114.733H154.566C155.385 114.733 156.054 115.402 156.054 116.222C156.046 117.042 155.385 117.711 154.566 117.711Z" fill="#FDFEFE"/>
<path d="M134.593 124.365H94.2264C93.4065 124.365 92.7378 123.696 92.7378 122.876C92.7378 122.056 93.4065 121.388 94.2264 121.388H134.593C135.413 121.388 136.082 122.056 136.082 122.876C136.082 123.696 135.413 124.365 134.593 124.365Z" fill="#FDFEFE"/>
<path d="M176.855 131.02H107.536C106.716 131.02 106.047 130.351 106.047 129.532C106.047 128.712 106.716 128.043 107.536 128.043H176.855C177.674 128.043 178.343 128.712 178.343 129.532C178.343 130.351 177.674 131.02 176.855 131.02Z" fill="#FC6454"/>
<path d="M207.804 131.02H187.402C186.582 131.02 185.913 130.351 185.913 129.532C185.913 128.712 186.582 128.043 187.402 128.043H207.804C208.624 128.043 209.293 128.712 209.293 129.532C209.293 130.351 208.624 131.02 207.804 131.02Z" fill="#FDFEFE"/>
<path d="M241.078 131.02H220.676C219.856 131.02 219.188 130.351 219.188 129.532C219.188 128.712 219.856 128.043 220.676 128.043H241.078C241.898 128.043 242.567 128.712 242.567 129.532C242.567 130.351 241.898 131.02 241.078 131.02Z" fill="#FDFEFE"/>
<path d="M140.715 137.675H114.199C113.379 137.675 112.71 137.006 112.71 136.186C112.71 135.366 113.379 134.698 114.199 134.698H140.715C141.535 134.698 142.203 135.366 142.203 136.186C142.203 137.006 141.535 137.675 140.715 137.675Z" fill="#FDFEFE"/>
<path d="M150.562 144.33H114.191C113.371 144.33 112.702 143.661 112.702 142.841C112.702 142.021 113.371 141.353 114.191 141.353H150.562C151.381 141.353 152.05 142.021 152.05 142.841C152.05 143.661 151.381 144.33 150.562 144.33Z" fill="#FC6454"/>
<path d="M207.804 144.33H167.437C166.618 144.33 165.949 143.661 165.949 142.841C165.949 142.021 166.618 141.353 167.437 141.353H207.804C208.624 141.353 209.293 142.021 209.293 142.841C209.293 143.661 208.624 144.33 207.804 144.33Z" fill="#FDFEFE"/>
<path d="M235.753 144.33H220.676C219.856 144.33 219.188 143.661 219.188 142.841C219.188 142.021 219.856 141.353 220.676 141.353H235.753C236.573 141.353 237.242 142.021 237.242 142.841C237.242 143.661 236.573 144.33 235.753 144.33Z" fill="#FC6454"/>
<path d="M117.884 150.984H94.2343C93.4144 150.984 92.7457 150.316 92.7457 149.496C92.7457 148.676 93.4144 148.007 94.2343 148.007H117.884C118.704 148.007 119.373 148.676 119.373 149.496C119.365 150.316 118.704 150.984 117.884 150.984Z" fill="#FDFEFE"/>
<path d="M134.593 157.639H94.2264C93.4065 157.639 92.7378 156.971 92.7378 156.151C92.7378 155.331 93.4065 154.662 94.2264 154.662H134.593C135.413 154.662 136.082 155.331 136.082 156.151C136.082 156.979 135.413 157.639 134.593 157.639Z" fill="#FDFEFE"/>
<path d="M189.838 164.295H114.199C113.379 164.295 112.71 163.626 112.71 162.806C112.71 161.987 113.379 161.318 114.199 161.318H189.838C190.658 161.318 191.326 161.987 191.326 162.806C191.318 163.634 190.658 164.295 189.838 164.295Z" fill="#FDFEFE"/>
<path d="M246.404 164.295H200.712C199.892 164.295 199.223 163.626 199.223 162.806C199.223 161.987 199.892 161.318 200.712 161.318H246.404C247.224 161.318 247.892 161.987 247.892 162.806C247.892 163.634 247.224 164.295 246.404 164.295Z" fill="#78D5E4"/>
<path d="M137.921 170.948H114.191C113.371 170.948 112.702 170.28 112.702 169.46C112.702 168.64 113.371 167.971 114.191 167.971H137.921C138.74 167.971 139.409 168.64 139.409 169.46C139.409 170.288 138.74 170.948 137.921 170.948Z" fill="#FDFEFE"/>
<path d="M171.203 170.948H147.473C146.653 170.948 145.984 170.28 145.984 169.46C145.984 168.64 146.653 167.971 147.473 167.971H171.203C172.023 167.971 172.691 168.64 172.691 169.46C172.683 170.288 172.023 170.948 171.203 170.948Z" fill="#58D05B"/>
<path d="M204.477 170.948H180.747C179.927 170.948 179.259 170.28 179.259 169.46C179.259 168.64 179.927 167.971 180.747 167.971H204.477C205.297 167.971 205.965 168.64 205.965 169.46C205.965 170.288 205.297 170.948 204.477 170.948Z" fill="#FDFEFE"/>
<path d="M134.593 177.604H94.2264C93.4065 177.604 92.7378 176.936 92.7378 176.116C92.7378 175.296 93.4065 174.627 94.2264 174.627H134.593C135.413 174.627 136.082 175.296 136.082 176.116C136.082 176.944 135.413 177.604 134.593 177.604Z" fill="#FDFEFE"/>
<path d="M147.903 184.259H107.536C106.716 184.259 106.047 183.59 106.047 182.77C106.047 181.95 106.716 181.282 107.536 181.282H147.903C148.723 181.282 149.391 181.95 149.391 182.77C149.391 183.598 148.731 184.259 147.903 184.259Z" fill="#58D05B"/>
<path d="M199.446 184.259H159.079C158.259 184.259 157.591 183.59 157.591 182.77C157.591 181.95 158.259 181.282 159.079 181.282H199.446C200.266 181.282 200.934 181.95 200.934 182.77C200.934 183.598 200.266 184.259 199.446 184.259Z" fill="#58D05B"/>
<path d="M179.481 197.568H158.164C157.344 197.568 156.675 196.899 156.675 196.079C156.675 195.259 157.344 194.591 158.164 194.591H179.481C180.301 194.591 180.97 195.259 180.97 196.079C180.962 196.907 180.301 197.568 179.481 197.568Z" fill="#FDFEFE"/>
<path d="M168.846 190.914H107.536C106.716 190.914 106.047 190.245 106.047 189.425C106.047 188.605 106.716 187.937 107.536 187.937H168.846C169.666 187.937 170.335 188.605 170.335 189.425C170.335 190.253 169.674 190.914 168.846 190.914Z" fill="#FDFEFE"/>
<path d="M75.9814 81.459H73.0122V84.4282H75.9814V81.459Z" fill="#7194BF"/>
<path d="M75.9813 88.1133H73.0121V91.0825H75.9813V88.1133Z" fill="#7194BF"/>
<path d="M75.9813 94.7676H73.0121V97.7368H75.9813V94.7676Z" fill="#7194BF"/>
<path d="M75.9813 101.422H73.0121V104.392H75.9813V101.422Z" fill="#7194BF"/>
<path d="M75.9813 108.078H73.0121V111.047H75.9813V108.078Z" fill="#7194BF"/>
<path d="M75.9813 114.741H73.0121V117.71H75.9813V114.741Z" fill="#7194BF"/>
<path d="M75.9813 121.396H73.0121V124.365H75.9813V121.396Z" fill="#7194BF"/>
<path d="M75.9813 128.052H73.0121V131.021H75.9813V128.052Z" fill="#7194BF"/>
<path d="M75.9813 134.704H73.0121V137.673H75.9813V134.704Z" fill="#7194BF"/>
<path d="M75.9813 141.36H73.0121V144.33H75.9813V141.36Z" fill="#7194BF"/>
<path d="M75.9813 148.015H73.0121V150.984H75.9813V148.015Z" fill="#7194BF"/>
<path d="M75.9813 154.669H73.0121V157.639H75.9813V154.669Z" fill="#7194BF"/>
<path d="M75.9813 161.324H73.0121V164.293H75.9813V161.324Z" fill="#7194BF"/>
<path d="M75.9813 167.979H73.0121V170.948H75.9813V167.979Z" fill="#7194BF"/>
<path d="M75.9813 174.635H73.0121V177.604H75.9813V174.635Z" fill="#7194BF"/>
<path d="M75.9813 181.291H73.0121V184.26H75.9813V181.291Z" fill="#7194BF"/>
<path d="M75.9813 187.944H73.0121V190.914H75.9813V187.944Z" fill="#7194BF"/>
<path d="M75.9813 194.599H73.0121V197.568H75.9813V194.599Z" fill="#7194BF"/>
<path d="M136.711 197.568H107.544C106.724 197.568 106.055 196.899 106.055 196.079C106.055 195.259 106.724 194.591 107.544 194.591H136.711C137.531 194.591 138.199 195.259 138.199 196.079C138.199 196.907 137.531 197.568 136.711 197.568Z" fill="#FDFEFE"/>
<path d="M40.4146 129.698C53.0981 129.698 63.3801 119.416 63.3801 106.732C63.3801 94.0486 53.0981 83.7666 40.4146 83.7666C27.7311 83.7666 17.4491 94.0486 17.4491 106.732C17.4491 119.416 27.7311 129.698 40.4146 129.698Z" fill="url(#paint17_linear)"/>
<path d="M59.0417 107.083C59.0258 111.366 57.5691 115.306 55.1412 118.45C55.0456 118.578 54.9501 118.697 54.8466 118.816C54.7034 118.992 54.5601 119.159 54.4168 119.326C54.2735 119.493 54.1143 119.66 53.963 119.827C53.9551 119.835 53.9471 119.843 53.9392 119.851C53.7401 120.066 53.5332 120.273 53.3182 120.48C51.8934 121.849 50.2456 123.004 48.4386 123.871C45.9709 125.057 43.2007 125.718 40.2792 125.71C37.3578 125.702 34.5956 125.018 32.1358 123.816C30.2492 122.892 28.5457 121.666 27.089 120.194C26.9457 120.05 26.8024 119.899 26.6671 119.756C26.5079 119.581 26.3487 119.405 26.1974 119.23C26.078 119.087 25.9586 118.952 25.8392 118.808C25.7357 118.689 25.6402 118.562 25.5447 118.442C25.4969 118.379 25.4492 118.307 25.3934 118.243C23.0292 115.099 21.6282 111.182 21.6441 106.948C21.6839 96.623 30.09 88.2807 40.4146 88.3205C50.7471 88.3523 59.0815 96.7584 59.0417 107.083Z" fill="url(#paint18_linear)"/>
<path d="M54.1541 117.431C54.0188 117.606 53.8835 117.773 53.7402 117.94C53.5969 118.107 53.4536 118.274 53.3024 118.433C53.2944 118.441 53.2865 118.449 53.2785 118.457C53.0874 118.664 52.8884 118.879 52.6815 119.078C51.3203 120.432 49.7441 121.562 48.0167 122.414C45.6605 123.584 43.0097 124.229 40.2156 124.221C37.4215 124.213 34.7787 123.536 32.4304 122.358C30.6314 121.451 28.9995 120.24 27.6065 118.792C27.4711 118.648 27.3358 118.505 27.2005 118.362C27.0492 118.195 26.898 118.02 26.7547 117.844C26.6353 117.709 26.5238 117.566 26.4124 117.431C26.3169 117.311 26.2214 117.192 26.1338 117.064C26.7865 115.862 27.3835 115.21 27.7656 114.788C28.0124 114.525 31.9926 113.1 34.3807 112.201C35.3598 111.826 36.0683 111.548 36.1399 111.468C36.2036 111.038 36.2673 110.433 36.323 109.757C36.5061 107.52 36.6335 104.503 36.6335 104.503L43.5112 104.973C43.5271 105.052 43.6067 107.934 43.7181 109.82C43.7739 110.672 43.8375 111.325 43.9092 111.413C44.148 111.548 45.2067 111.986 46.5043 112.503C48.8923 113.45 52.1003 114.7 52.5859 114.971C53.0397 115.226 53.6845 116.443 54.1541 117.431Z" fill="url(#paint19_linear)"/>
<path d="M54.4805 117.018C54.3929 117.137 54.2974 117.264 54.2019 117.384C54.0665 117.551 53.9312 117.726 53.7879 117.893C53.6447 118.06 53.5014 118.228 53.3581 118.387C53.3501 118.395 53.3422 118.403 53.3342 118.411C53.1432 118.626 52.9441 118.833 52.7372 119.032C51.376 120.385 49.8078 121.523 48.0883 122.383C45.7321 123.561 43.0893 124.222 40.2952 124.222C37.5011 124.222 34.8583 123.561 32.502 122.383C30.6951 121.483 29.0632 120.281 27.6622 118.833C27.5268 118.689 27.3915 118.546 27.2562 118.403C27.105 118.236 26.9537 118.06 26.8025 117.885C26.683 117.75 26.5716 117.607 26.4602 117.471C26.3646 117.352 26.2691 117.233 26.1815 117.105C26.1338 117.041 26.086 116.978 26.0383 116.914C26.5398 116.118 27.4393 114.733 27.8214 114.478C28.3627 114.12 35.7498 111.477 35.7498 111.477C35.7498 111.477 35.6305 110.355 35.7897 110.355C35.9489 110.355 44.1002 110.196 44.2196 110.235C44.339 110.275 44.339 111.199 44.339 111.199C44.339 111.199 52.6098 114.279 53.2387 114.717C53.5332 114.94 54.0347 115.983 54.4805 117.018Z" fill="#194568"/>
<path d="M44.4186 102.721C44.4186 102.649 45.2942 100.739 46.3768 101.256C48.0087 102.044 46.0743 104.369 45.4295 104.838C44.5857 105.459 43.7738 105.236 43.7738 105.236L44.4186 102.721Z" fill="url(#paint20_linear)"/>
<path d="M34.7707 102.808C34.7707 102.736 33.9109 100.818 32.8204 101.327C31.1885 102.099 33.107 104.44 33.7438 104.917C34.5876 105.546 35.3916 105.323 35.3916 105.323L34.7707 102.808Z" fill="url(#paint21_linear)"/>
<path d="M33.9109 99.0589C33.9109 99.0589 35.0174 105.045 35.4393 106.327C36.2274 107.712 37.8752 109.479 38.2255 109.598C38.6792 109.758 41.1787 109.813 41.6802 109.614C42.1897 109.415 44.2196 106.343 44.339 105.865C44.4584 105.387 45.143 98.4221 45.143 98.4221C45.143 98.4221 42.0783 96.3683 41.1151 96.0897C40.1519 95.8111 33.9109 99.0589 33.9109 99.0589Z" fill="url(#paint22_linear)"/>
<path d="M34.9379 104.425L35.3359 104.465L34.8423 101.583C34.8423 101.583 35.4633 101.384 35.5429 101.185C35.6225 100.986 35.2881 98.9085 35.0732 98.5821C34.906 98.3353 34.6672 97.9613 34.0622 98.2239C33.4572 98.4866 33.0513 99.3463 32.9717 99.9036C32.8921 100.461 34.4682 102.244 34.4682 102.244L34.9379 104.425Z" fill="#162A46"/>
<path d="M44.546 104.425L44.1002 104.465L44.6415 101.583C44.6415 101.583 44.0206 101.384 43.941 101.185C43.8614 100.986 44.1957 98.9085 44.4107 98.5821C44.5778 98.3353 44.8166 97.9613 45.4216 98.2239C46.0266 98.4866 46.4326 99.3463 46.5122 99.9036C46.5918 100.461 45.0157 102.244 45.0157 102.244L44.546 104.425Z" fill="#162A46"/>
<path d="M33.9667 98.5821C33.9269 98.5025 34.0542 96.2418 34.7547 95.7323C35.4553 95.2228 42.3887 93.9651 44.14 94.7691C45.8912 95.581 46.4087 99.2666 46.1221 99.3303C45.8196 99.394 34.5159 99.6647 33.9667 98.5821Z" fill="#162A46"/>
<path d="M264.518 231.909C279.286 231.909 291.257 219.938 291.257 205.17C291.257 190.403 279.286 178.432 264.518 178.432C249.751 178.432 237.78 190.403 237.78 205.17C237.78 219.938 249.751 231.909 264.518 231.909Z" fill="url(#paint23_linear)"/>
<path d="M245.796 205.003C245.796 209.652 247.507 213.902 250.341 217.158C250.405 217.23 250.468 217.301 250.532 217.373C253.923 221.154 258.843 223.526 264.319 223.526C269.661 223.526 274.469 221.266 277.852 217.652C278.123 217.365 278.385 217.063 278.64 216.752C281.267 213.552 282.843 209.46 282.843 205.003C282.843 194.774 274.548 186.479 264.319 186.479C254.082 186.479 245.796 194.774 245.796 205.003Z" fill="url(#paint24_linear)"/>
<path d="M270.798 208.862H258.356C258.205 208.862 258.093 208.997 258.117 209.148C258.667 212.221 261.349 214.553 264.573 214.553C267.805 214.553 270.488 212.221 271.037 209.148C271.061 209.005 270.949 208.862 270.798 208.862Z" fill="white"/>
<path d="M267.824 200.623H261.32C260.97 200.623 260.683 200.336 260.683 199.986C260.683 199.636 260.97 199.349 261.32 199.349H267.824C268.174 199.349 268.46 199.636 268.46 199.986C268.468 200.336 268.182 200.623 267.824 200.623ZM265.818 204.293C265.396 204.293 265.053 203.95 265.053 203.528C265.053 203.106 265.396 202.764 265.818 202.764C266.24 202.764 266.582 203.106 266.582 203.528C266.582 203.95 266.24 204.293 265.818 204.293ZM263.334 204.293C262.912 204.293 262.57 203.95 262.57 203.528C262.57 203.106 262.912 202.764 263.334 202.764C263.756 202.764 264.098 203.106 264.098 203.528C264.09 203.95 263.756 204.293 263.334 204.293ZM269.623 203.369C270.809 202.613 271.549 201.228 271.374 199.684C271.175 198.004 269.838 196.603 268.158 196.356C267.37 196.237 266.622 196.356 265.977 196.659C265.085 197.065 264.074 197.065 263.183 196.659C262.538 196.364 261.79 196.245 261.01 196.356C259.402 196.587 258.144 197.789 257.833 199.381C257.507 201.045 258.271 202.573 259.537 203.377C259.664 203.465 259.696 203.624 259.593 203.743C258.725 204.762 258.16 206.044 258.04 207.461C258.025 207.604 258.136 207.731 258.279 207.731H270.872C271.016 207.731 271.127 207.604 271.111 207.461C270.992 206.044 270.435 204.762 269.559 203.743C269.463 203.608 269.487 203.449 269.623 203.369Z" fill="white"/>
<path d="M255.86 200.606C254.642 201.099 253.783 202.285 253.783 203.678V204.227C253.783 205.621 254.642 206.807 255.86 207.3C256.019 207.364 256.195 207.252 256.195 207.077V200.836C256.195 200.653 256.019 200.534 255.86 200.606Z" fill="white"/>
<path d="M273.295 200.605C273.135 200.541 272.952 200.653 272.952 200.828V207.069C272.952 207.244 273.127 207.363 273.295 207.292C274.513 206.79 275.372 205.612 275.372 204.219V203.67C275.372 202.285 274.505 201.099 273.295 200.605Z" fill="white"/>
<path d="M45.9868 158.578H0V184.385H45.9868V158.578Z" fill="#FDFEFE"/>
<path d="M39.0932 162.351V180.883L55.6267 172.087L39.0932 162.351Z" fill="#FDFEFE"/>
<path d="M16.7249 179.793C19.0649 179.793 20.6099 178.398 20.6099 176.088V174.108C20.6099 174.003 20.5349 173.928 20.4299 173.928H16.7699C16.6649 173.928 16.5899 174.003 16.5899 174.108V175.488C16.5899 175.593 16.6649 175.668 16.7699 175.668H18.4499C18.4949 175.668 18.5249 175.698 18.5249 175.743V176.418C18.5249 177.408 17.8349 177.978 16.8149 177.978C15.7349 177.978 14.9549 177.243 14.9549 176.163V172.683C14.9549 171.603 15.6599 170.868 16.7249 170.868C17.8349 170.868 18.4949 171.603 18.4949 172.503V172.548C18.4949 172.653 18.5699 172.728 18.6749 172.728H20.4299C20.5349 172.728 20.6099 172.653 20.6099 172.548V172.443C20.6099 170.538 19.0649 169.053 16.7249 169.053C14.3849 169.053 12.8399 170.523 12.8399 172.743V176.103C12.8399 178.308 14.3849 179.793 16.7249 179.793ZM22.3458 179.673H24.1008C24.2058 179.673 24.2808 179.598 24.2808 179.493V169.353C24.2808 169.248 24.2058 169.173 24.1008 169.173H22.3458C22.2408 169.173 22.1658 169.248 22.1658 169.353V179.493C22.1658 179.598 22.2408 179.673 22.3458 179.673ZM33.2728 169.173H25.7128C25.6078 169.173 25.5328 169.248 25.5328 169.353V170.823C25.5328 170.928 25.6078 171.003 25.7128 171.003H28.3078C28.3528 171.003 28.3828 171.033 28.3828 171.078V179.493C28.3828 179.598 28.4578 179.673 28.5628 179.673H30.3178C30.4228 179.673 30.4978 179.598 30.4978 179.493V171.078C30.4978 171.033 30.5278 171.003 30.5728 171.003H33.2728C33.3778 171.003 33.4528 170.928 33.4528 170.823V169.353C33.4528 169.248 33.3778 169.173 33.2728 169.173Z" fill="#343095"/>
<path d="M230.213 216.163H184.226V241.971H230.213V216.163Z" fill="url(#paint25_linear)"/>
<path d="M198.029 222.093L216.561 221.894L207.597 205.464L198.029 222.093Z" fill="url(#paint26_linear)"/>
<path d="M191.867 224.528C191.867 224.39 191.936 224.321 192.074 224.321H193.646C193.784 224.321 193.853 224.39 193.853 224.528V238.595C193.853 238.733 193.784 238.802 193.646 238.802H192.074C191.936 238.802 191.867 238.733 191.867 238.595V224.528ZM197.1 224.528C197.1 224.39 197.168 224.321 197.306 224.321H202.292C203.726 224.321 204.871 224.701 205.726 225.459C206.595 226.204 207.029 227.204 207.029 228.459V234.665C207.029 235.92 206.595 236.927 205.726 237.685C204.871 238.43 203.726 238.802 202.292 238.802H197.306C197.168 238.802 197.1 238.733 197.1 238.595V224.528ZM202.375 237.085C203.175 237.085 203.816 236.844 204.299 236.361C204.781 235.865 205.03 235.203 205.043 234.375V228.748C205.043 227.921 204.802 227.266 204.319 226.783C203.837 226.287 203.188 226.038 202.375 226.038H199.168C199.113 226.038 199.085 226.066 199.085 226.121V237.002C199.085 237.058 199.113 237.085 199.168 237.085H202.375ZM219.325 225.831C219.325 225.969 219.256 226.038 219.118 226.038H211.795C211.739 226.038 211.712 226.066 211.712 226.121V230.569C211.712 230.624 211.739 230.652 211.795 230.652H216.822C216.959 230.652 217.028 230.72 217.028 230.858V232.162C217.028 232.3 216.959 232.369 216.822 232.369H211.795C211.739 232.369 211.712 232.396 211.712 232.451V237.002C211.712 237.058 211.739 237.085 211.795 237.085H219.118C219.256 237.085 219.325 237.154 219.325 237.292V238.595C219.325 238.733 219.256 238.802 219.118 238.802H209.933C209.795 238.802 209.726 238.733 209.726 238.595V224.528C209.726 224.39 209.795 224.321 209.933 224.321H219.118C219.256 224.321 219.325 224.39 219.325 224.528V225.831Z" fill="white"/>
<path d="M317.953 149.448H271.967V175.255H317.953V149.448Z" fill="#43E8E1"/>
<path d="M278.733 171.713L278.478 153.189L262.072 162.2L278.733 171.713Z" fill="#43E8E1"/>
<path d="M291.365 172.086C291.241 172.086 291.158 172.031 291.117 171.921L290.372 169.501C290.358 169.459 290.33 169.438 290.289 169.438H284.455C284.414 169.438 284.386 169.459 284.373 169.501L283.628 171.921C283.587 172.031 283.504 172.086 283.38 172.086H281.704C281.552 172.086 281.497 172.011 281.538 171.859L286.069 157.771C286.11 157.661 286.193 157.605 286.317 157.605H288.407C288.531 157.605 288.613 157.661 288.655 157.771L293.206 171.859L293.227 171.942C293.227 172.038 293.165 172.086 293.041 172.086H291.365ZM284.91 167.763C284.897 167.79 284.897 167.818 284.91 167.846C284.938 167.859 284.966 167.866 284.993 167.866H289.751C289.779 167.866 289.8 167.859 289.813 167.846C289.841 167.818 289.848 167.79 289.834 167.763L287.414 160.109C287.4 160.081 287.379 160.067 287.352 160.067C287.324 160.067 287.303 160.081 287.289 160.109L284.91 167.763ZM301.076 157.585C301.917 157.585 302.655 157.764 303.289 158.123C303.938 158.467 304.434 158.957 304.779 159.591C305.137 160.226 305.317 160.957 305.317 161.784C305.317 162.612 305.137 163.336 304.779 163.956C304.42 164.577 303.91 165.06 303.248 165.404C302.6 165.749 301.848 165.922 300.993 165.922H297.352C297.297 165.922 297.269 165.949 297.269 166.004V171.88C297.269 172.017 297.2 172.086 297.063 172.086H295.49C295.352 172.086 295.283 172.017 295.283 171.88V157.792C295.283 157.654 295.352 157.585 295.49 157.585H301.076ZM300.807 164.308C301.565 164.308 302.172 164.081 302.627 163.625C303.096 163.17 303.331 162.57 303.331 161.826C303.331 161.067 303.096 160.46 302.627 160.005C302.172 159.536 301.565 159.302 300.807 159.302H297.352C297.297 159.302 297.269 159.329 297.269 159.385V164.225C297.269 164.281 297.297 164.308 297.352 164.308H300.807ZM307.607 157.812C307.607 157.674 307.676 157.605 307.814 157.605H309.386C309.524 157.605 309.593 157.674 309.593 157.812V171.88C309.593 172.017 309.524 172.086 309.386 172.086H307.814C307.676 172.086 307.607 172.017 307.607 171.88V157.812Z" fill="white"/>
<defs>
<filter id="filter0_b" x="7.27499" y="22.6073" width="316.775" height="233.454" filterUnits="userSpaceOnUse" color-interpolation-filters="sRGB">
<feFlood flood-opacity="0" result="BackgroundImageFix"/>
<feGaussianBlur in="BackgroundImage" stdDeviation="21.9112"/>
<feComposite in2="SourceAlpha" operator="in" result="effect1_backgroundBlur"/>
<feBlend mode="normal" in="SourceGraphic" in2="effect1_backgroundBlur" result="shape"/>
</filter>
<linearGradient id="paint0_linear" x1="-11.6787" y1="196.795" x2="200.252" y2="316.354" gradientUnits="userSpaceOnUse">
<stop stop-color="#26259E"/>
<stop offset="1" stop-color="#5F50CC"/>
</linearGradient>
<linearGradient id="paint1_linear" x1="90.621" y1="82.0237" x2="90.621" y2="16.5731" gradientUnits="userSpaceOnUse">
<stop stop-color="#9DD3F8" stop-opacity="0"/>
<stop offset="1" stop-color="#91B8F3"/>
</linearGradient>
<linearGradient id="paint2_linear" x1="163.414" y1="40.3367" x2="163.414" y2="0.00310606" gradientUnits="userSpaceOnUse">
<stop stop-color="#9DD3F8" stop-opacity="0"/>
<stop offset="0.4652" stop-color="#95C1F5" stop-opacity="0.3846"/>
<stop offset="1" stop-color="#91B8F3"/>
</linearGradient>
<linearGradient id="paint3_linear" x1="246.877" y1="108.394" x2="284.106" y2="149.43" gradientUnits="userSpaceOnUse">
<stop stop-color="#42B2F1"/>
<stop offset="1" stop-color="#2A54D3"/>
</linearGradient>
<linearGradient id="paint4_linear" x1="246.391" y1="129.38" x2="291.264" y2="145.49" gradientUnits="userSpaceOnUse">
<stop stop-color="#26259E"/>
<stop offset="1" stop-color="#5F50CC"/>
</linearGradient>
<linearGradient id="paint5_linear" x1="278.259" y1="107.814" x2="278.259" y2="132.109" gradientUnits="userSpaceOnUse">
<stop stop-color="#FFDBD0"/>
<stop offset="1" stop-color="#FF9979"/>
</linearGradient>
<linearGradient id="paint6_linear" x1="279.127" y1="107.822" x2="279.127" y2="117.139" gradientUnits="userSpaceOnUse">
<stop stop-color="#FFDBD0"/>
<stop offset="1" stop-color="#FF9979"/>
</linearGradient>
<linearGradient id="paint7_linear" x1="272.34" y1="108.35" x2="272.34" y2="111.858" gradientUnits="userSpaceOnUse">
<stop stop-color="#FFDBD0"/>
<stop offset="1" stop-color="#FF9979"/>
</linearGradient>
<linearGradient id="paint8_linear" x1="284.237" y1="107.388" x2="284.237" y2="111.966" gradientUnits="userSpaceOnUse">
<stop stop-color="#FFDBD0"/>
<stop offset="1" stop-color="#FF9979"/>
</linearGradient>
<linearGradient id="paint9_linear" x1="278.017" y1="102.257" x2="278.017" y2="115.757" gradientUnits="userSpaceOnUse">
<stop stop-color="#FFDBD0"/>
<stop offset="1" stop-color="#FF9979"/>
</linearGradient>
<linearGradient id="paint10_linear" x1="220.153" y1="52.2857" x2="254.153" y2="89.7625" gradientUnits="userSpaceOnUse">
<stop stop-color="#42B2F1"/>
<stop offset="1" stop-color="#2A54D3"/>
</linearGradient>
<linearGradient id="paint11_linear" x1="220.126" y1="70.4319" x2="260.141" y2="84.7971" gradientUnits="userSpaceOnUse">
<stop stop-color="#26259E"/>
<stop offset="1" stop-color="#5F50CC"/>
</linearGradient>
<linearGradient id="paint12_linear" x1="248.975" y1="53.3643" x2="248.975" y2="73.7427" gradientUnits="userSpaceOnUse">
<stop stop-color="#FFDBD0"/>
<stop offset="1" stop-color="#FF9979"/>
</linearGradient>
<linearGradient id="paint13_linear" x1="249.488" y1="53.3726" x2="249.488" y2="59.9549" gradientUnits="userSpaceOnUse">
<stop stop-color="#FFDBD0"/>
<stop offset="1" stop-color="#FF9979"/>
</linearGradient>
<linearGradient id="paint14_linear" x1="242.975" y1="50.811" x2="242.975" y2="54.4384" gradientUnits="userSpaceOnUse">
<stop stop-color="#FFDBD0"/>
<stop offset="1" stop-color="#FF9979"/>
</linearGradient>
<linearGradient id="paint15_linear" x1="248.131" y1="45.9854" x2="248.131" y2="58.486" gradientUnits="userSpaceOnUse">
<stop stop-color="#FFDBD0"/>
<stop offset="1" stop-color="#FF9979"/>
</linearGradient>
<linearGradient id="paint16_linear" x1="254.211" y1="50.6812" x2="254.211" y2="54.5892" gradientUnits="userSpaceOnUse">
<stop stop-color="#FFDBD0"/>
<stop offset="1" stop-color="#FF9979"/>
</linearGradient>
<linearGradient id="paint17_linear" x1="15.6395" y1="103.535" x2="44.8412" y2="135.723" gradientUnits="userSpaceOnUse">
<stop stop-color="#42B2F1"/>
<stop offset="1" stop-color="#2A54D3"/>
</linearGradient>
<linearGradient id="paint18_linear" x1="11.3979" y1="121.75" x2="51.7893" y2="136.253" gradientUnits="userSpaceOnUse">
<stop stop-color="#26259E"/>
<stop offset="1" stop-color="#5F50CC"/>
</linearGradient>
<linearGradient id="paint19_linear" x1="40.1439" y1="104.503" x2="40.1439" y2="124.221" gradientUnits="userSpaceOnUse">
<stop stop-color="#FFDBD0"/>
<stop offset="1" stop-color="#FF9979"/>
</linearGradient>
<linearGradient id="paint20_linear" x1="45.3946" y1="101.167" x2="45.3946" y2="105.275" gradientUnits="userSpaceOnUse">
<stop stop-color="#FFDBD0"/>
<stop offset="1" stop-color="#FF9979"/>
</linearGradient>
<linearGradient id="paint21_linear" x1="33.785" y1="101.241" x2="33.785" y2="105.362" gradientUnits="userSpaceOnUse">
<stop stop-color="#FFDBD0"/>
<stop offset="1" stop-color="#FF9979"/>
</linearGradient>
<linearGradient id="paint22_linear" x1="39.527" y1="96.0728" x2="39.527" y2="109.742" gradientUnits="userSpaceOnUse">
<stop stop-color="#FFDBD0"/>
<stop offset="1" stop-color="#FF9979"/>
</linearGradient>
<linearGradient id="paint23_linear" x1="235.673" y1="201.448" x2="269.672" y2="238.925" gradientUnits="userSpaceOnUse">
<stop stop-color="#42B2F1"/>
<stop offset="1" stop-color="#2A54D3"/>
</linearGradient>
<linearGradient id="paint24_linear" x1="235.646" y1="219.602" x2="275.66" y2="233.968" gradientUnits="userSpaceOnUse">
<stop stop-color="#26259E"/>
<stop offset="1" stop-color="#5F50CC"/>
</linearGradient>
<linearGradient id="paint25_linear" x1="182.414" y1="221.176" x2="204.532" y2="251.887" gradientUnits="userSpaceOnUse">
<stop stop-color="#42B2F1"/>
<stop offset="1" stop-color="#2A54D3"/>
</linearGradient>
<linearGradient id="paint26_linear" x1="182.414" y1="221.176" x2="204.532" y2="251.887" gradientUnits="userSpaceOnUse">
<stop stop-color="#42B2F1"/>
<stop offset="1" stop-color="#2A54D3"/>
</linearGradient>
</defs>
</svg>
