<svg width="1440" height="385" viewBox="0 0 1440 385" fill="none" xmlns="http://www.w3.org/2000/svg">
<rect width="1440" height="385" fill="#F6F9FC"/>
<g clip-path="url(#clip0)">
<rect width="1440" height="4201" transform="translate(0 -3189)" fill="#F6F9FC"/>
<rect y="-4" width="1440" height="389" fill="url(#paint0_linear)"/>
<mask id="mask0" mask-type="alpha" maskUnits="userSpaceOnUse" x="0" y="-4" width="1440" height="389">
<rect y="-4" width="1440" height="389" fill="url(#paint1_linear)"/>
</mask>
<g mask="url(#mask0)">
<path d="M956.739 164.526C706.947 330.274 38.9126 64.8602 -263.881 -88.5652L-277 -14.8727L-263.881 923.801L-103.301 1050.65L956.739 888.767L1518 708.764C1512.75 554.533 1561.17 154.741 1549 67.2764C1533.78 -42.0543 1268.98 -42.6584 956.739 164.526Z" fill="url(#paint2_linear)"/>
<path d="M941.5 114.391C689.5 391.282 196.5 377.148 -18.5 335.469L-94 499.767L60 863.397H1285L1475 694.267C1495.33 500.975 1523.8 90.2298 1475 -6.41615C1414 -127.224 1256.5 -231.722 941.5 114.391Z" fill="url(#paint3_linear)"/>
</g>
<rect y="-4" width="1440" height="389" fill="url(#paint4_linear)"/>
<mask id="mask1" mask-type="alpha" maskUnits="userSpaceOnUse" x="0" y="-4" width="1440" height="389">
<rect y="-4" width="1440" height="389" fill="url(#paint5_linear)"/>
</mask>
<g mask="url(#mask1)">
<path opacity="0.3" d="M956.739 164.526C706.947 330.274 38.9126 64.8602 -263.881 -88.5652L-277 -14.8727L-263.881 923.801L-103.301 1050.65L956.739 888.767L1518 708.764C1512.75 554.533 1561.17 154.741 1549 67.2764C1533.78 -42.0543 1268.98 -42.6584 956.739 164.526Z" fill="url(#paint6_linear)"/>
<path opacity="0.8" d="M941.5 114.391C689.5 391.282 196.5 377.148 -18.5 335.469L-94 499.767L60 863.397H1285L1475 694.267C1495.33 500.975 1523.8 90.2298 1475 -6.41615C1414 -127.224 1256.5 -231.722 941.5 114.391Z" fill="url(#paint7_linear)"/>
</g>
<text fill="#F6F9FC" xml:space="preserve" style="white-space: pre" font-family="Barlow" font-size="58" font-weight="800" letter-spacing="0px"><tspan x="178" y="169.2">Start your robot </tspan><tspan x="178" y="225.2">developer journey</tspan></text>
<text fill="white" xml:space="preserve" style="white-space: pre" font-family="Cera Pro" font-size="12" letter-spacing="2.4px"><tspan x="178" y="107.196">AUTOMATE ANY TASK WITH ROBOSUITE</tspan></text>
<text fill="white" xml:space="preserve" style="white-space: pre" font-family="Cera Pro" font-size="16" letter-spacing="0px"><tspan x="178" y="262.928">Learning space and a community for software robot developers.</tspan></text>
<g filter="url(#filter0_b)">
<rect x="741" y="53" width="523" height="273" rx="10" fill="#020202" fill-opacity="0.4"/>
</g>
<text fill="white" xml:space="preserve" style="white-space: pre" font-family="Proxima Nova" font-size="23" letter-spacing="0px"><tspan x="849" y="112.153">Build with </tspan><tspan x="849" y="138.153">Robocode</tspan></text>
<text opacity="0.7" fill="white" xml:space="preserve" style="white-space: pre" font-family="Proxima Nova" font-size="14" letter-spacing="0px"><tspan x="785" y="176.354">Open-source developer tools </tspan><tspan x="785" y="194.354">for building software robots.</tspan></text>
<rect x="785" y="255" width="124" height="41" rx="20.5" fill="url(#paint8_linear)"/>
<text fill="white" xml:space="preserve" style="white-space: pre" font-family="Cera Pro" font-size="16" font-weight="bold" letter-spacing="0px"><tspan x="808" y="279.928">Download</tspan></text>
<g filter="url(#filter1_d)">
<rect x="1024.5" y="255.5" width="163" height="40" rx="20" stroke="white"/>
</g>
<text fill="white" xml:space="preserve" style="white-space: pre" font-family="Cera Pro" font-size="16" font-weight="bold" letter-spacing="0px"><tspan x="1045" y="279.928">Create account</tspan></text>
<text opacity="0.7" fill="white" xml:space="preserve" style="white-space: pre" font-family="Proxima Nova" font-size="14" letter-spacing="0px"><tspan x="1025" y="176.354">Operate and run software </tspan><tspan x="1025" y="194.354">robots anywhere with minimum </tspan><tspan x="1025" y="212.354">setup.</tspan></text>
<text fill="white" xml:space="preserve" style="white-space: pre" font-family="Proxima Nova" font-size="23" letter-spacing="0px"><tspan x="1087" y="112.153">Run in </tspan><tspan x="1087" y="138.153">Robocloud</tspan></text>
<g filter="url(#filter2_b)">
<rect x="785" y="93" width="53" height="48" rx="10" fill="url(#paint9_linear)"/>
</g>
<path fill-rule="evenodd" clip-rule="evenodd" d="M824.694 120.239C826.474 119.511 827.734 117.781 827.734 115.743V114.942C827.734 112.903 826.474 111.167 824.694 110.439C824.458 110.344 824.201 110.518 824.201 110.77V119.909C824.201 120.167 824.458 120.335 824.694 120.239ZM821.502 120.458C821.334 118.386 820.51 116.504 819.234 115.015C819.088 114.841 819.127 114.606 819.318 114.483C821.054 113.374 822.14 111.341 821.877 109.079C821.591 106.615 819.626 104.576 817.173 104.207C816.025 104.039 814.927 104.212 813.975 104.649C813.32 104.951 812.626 105.097 811.931 105.097C811.231 105.097 810.537 104.946 809.887 104.649C808.935 104.212 807.838 104.033 806.69 104.207C804.237 104.571 802.271 106.615 801.986 109.079C801.722 111.347 802.809 113.374 804.545 114.483C804.735 114.606 804.774 114.841 804.629 115.015C803.358 116.504 802.529 118.386 802.361 120.458C802.344 120.671 802.501 120.85 802.714 120.85H811.931H821.149C821.356 120.85 821.518 120.665 821.502 120.458ZM802.473 122.955C803.279 127.452 807.199 130.874 811.931 130.874C816.663 130.874 820.583 127.458 821.39 122.955C821.429 122.731 821.261 122.53 821.037 122.53H811.931H802.826C802.602 122.53 802.434 122.737 802.473 122.955ZM799.174 120.239C799.41 120.335 799.667 120.161 799.667 119.909V110.764C799.667 110.507 799.41 110.339 799.174 110.434C797.394 111.167 796.134 112.898 796.134 114.936V115.743C796.134 117.775 797.394 119.511 799.174 120.239ZM824.078 108.317C824.548 108.227 825.041 108.272 825.5 108.457C828.154 109.549 829.874 112.091 829.89 114.936V115.737C829.89 118.587 828.177 121.13 825.522 122.216C825.214 122.339 824.89 122.401 824.57 122.401C824.274 122.401 823.982 122.345 823.708 122.244C823.596 122.199 823.478 122.3 823.501 122.418C823.557 122.715 823.562 123.023 823.506 123.331C822.504 128.942 817.643 133.013 811.942 133.013C806.242 133.013 801.381 128.942 800.378 123.331C800.322 123.023 800.328 122.715 800.384 122.418C800.406 122.3 800.289 122.199 800.177 122.244C799.897 122.345 799.606 122.401 799.314 122.401C798.995 122.401 798.676 122.339 798.368 122.216C795.714 121.124 794 118.582 794 115.737V114.936C794 112.086 795.714 109.543 798.368 108.457C798.827 108.267 799.32 108.227 799.79 108.317C799.88 108.334 799.964 108.283 799.981 108.194C800.619 105.041 803.167 102.571 806.387 102.09C807.899 101.86 809.422 102.073 810.789 102.7C811.153 102.868 811.545 102.952 811.937 102.952C812.329 102.952 812.721 102.868 813.085 102.7C814.451 102.079 815.974 101.866 817.486 102.09C820.706 102.571 823.254 105.041 823.893 108.194C823.91 108.283 823.988 108.334 824.078 108.317ZM806.236 109.532C806.236 109.017 806.656 108.597 807.171 108.597H816.691C817.206 108.597 817.626 109.017 817.626 109.532C817.626 110.047 817.206 110.467 816.691 110.467H807.171C806.656 110.467 806.236 110.047 806.236 109.532ZM812.637 114.718C812.637 114.102 813.135 113.603 813.751 113.603C814.367 113.603 814.866 114.102 814.866 114.718C814.866 115.334 814.367 115.832 813.751 115.832C813.135 115.832 812.637 115.334 812.637 114.718ZM810.111 113.603C809.495 113.603 808.997 114.102 808.997 114.718C808.997 115.334 809.495 115.832 810.111 115.832C810.727 115.832 811.226 115.334 811.226 114.718C811.226 114.102 810.727 113.603 810.111 113.603Z" fill="white"/>
<g filter="url(#filter3_b)">
<rect x="1025" y="93" width="53" height="48" rx="10" fill="#36C5F0"/>
</g>
<path d="M1063.23 119.58C1063.87 118.529 1064.25 117.314 1064.25 116C1064.25 112.134 1061.12 109 1057.25 109C1054.04 109 1051.36 111.177 1050.54 114.127C1049.58 113.128 1048.24 112.5 1046.75 112.5C1043.85 112.5 1041.5 114.851 1041.5 117.75C1041.5 118.379 1041.63 118.975 1041.83 119.534C1041.72 119.524 1041.61 119.5 1041.5 119.5C1039.57 119.5 1038 121.067 1038 123C1038 124.933 1039.57 126.5 1041.5 126.5H1062.5C1064.43 126.5 1066 124.933 1066 123C1066 121.32 1064.81 119.919 1063.23 119.58Z" fill="white"/>
<rect y="-4" width="1440" height="389" fill="url(#paint10_linear)"/>
<mask id="mask2" mask-type="alpha" maskUnits="userSpaceOnUse" x="0" y="-4" width="1440" height="389">
<rect y="-4" width="1440" height="389" fill="url(#paint11_linear)"/>
</mask>
<g mask="url(#mask2)">
<path opacity="0.3" d="M956.739 164.526C706.947 330.274 38.9126 64.8602 -263.881 -88.5652L-277 -14.8727L-263.881 923.801L-103.301 1050.65L956.739 888.767L1518 708.764C1512.75 554.533 1561.17 154.741 1549 67.2764C1533.78 -42.0543 1268.98 -42.6584 956.739 164.526Z" fill="url(#paint12_linear)"/>
<path opacity="0.8" d="M941.5 114.391C689.5 391.282 196.5 377.148 -18.5 335.469L-94 499.767L60 863.397H1285L1475 694.267C1495.33 500.975 1523.8 90.2298 1475 -6.41615C1414 -127.224 1256.5 -231.722 941.5 114.391Z" fill="url(#paint13_linear)"/>
</g>
<text fill="#F6F9FC" xml:space="preserve" style="white-space: pre" font-family="Barlow" font-size="58" font-weight="800" letter-spacing="0px"><tspan x="178" y="169.2">Start your robot </tspan><tspan x="178" y="225.2">developer journey</tspan></text>
<text fill="white" xml:space="preserve" style="white-space: pre" font-family="Cera Pro" font-size="12" letter-spacing="2.4px"><tspan x="178" y="107.196">AUTOMATE ANY TASK WITH ROBOSUITE</tspan></text>
<text fill="white" xml:space="preserve" style="white-space: pre" font-family="Cera Pro" font-size="16" letter-spacing="0px"><tspan x="178" y="262.928">Learning space and a community for software robot developers.</tspan></text>
<g filter="url(#filter4_b)">
<rect x="741" y="53" width="523" height="273" rx="10" fill="#020202" fill-opacity="0.4"/>
</g>
<text fill="white" xml:space="preserve" style="white-space: pre" font-family="Proxima Nova" font-size="13" letter-spacing="0px"><tspan x="849" y="105.043">Build with</tspan></text>
<text fill="white" xml:space="preserve" style="white-space: pre" font-family="Barlow Condensed" font-size="23.715" font-weight="800" letter-spacing="0px"><tspan x="1087" y="137.177">CLOUD</tspan></text>
<path fill-rule="evenodd" clip-rule="evenodd" d="M1089.97 112.044H1091.73C1092.33 112.044 1092.81 111.525 1092.77 110.904C1092.74 110.34 1092.25 109.912 1091.69 109.912H1089.97C1089.89 109.912 1089.82 109.978 1089.82 110.059V111.897C1089.82 111.978 1089.89 112.044 1089.97 112.044ZM1093.01 113.619C1092.97 113.651 1092.96 113.707 1092.98 113.756L1094.68 117.846C1094.71 117.919 1094.65 118 1094.58 118H1092.8C1092.71 118 1092.64 117.944 1092.6 117.86L1091.11 114.1C1091.08 114.015 1091 113.959 1090.91 113.959L1089.96 113.956C1089.88 113.956 1089.82 114.022 1089.82 114.103V117.853C1089.82 117.933 1089.75 118 1089.67 118H1088.09C1088.01 118 1087.95 117.933 1087.95 117.853V108.147C1087.95 108.067 1088.01 108 1088.09 108H1091.73C1093.3 108 1094.6 109.273 1094.64 110.88C1094.67 111.992 1094.24 112.767 1093.2 113.489C1093.15 113.526 1093.11 113.554 1093.07 113.577V113.577C1093.05 113.594 1093.03 113.607 1093.01 113.619ZM1098.06 116.39C1098.75 116.39 1099.14 116.102 1099.22 115.534C1099.31 114.955 1099.31 113.935 1099.22 113.353C1099.14 112.784 1098.75 112.497 1098.06 112.497C1097.36 112.497 1097.01 112.753 1096.92 113.353C1096.84 113.931 1096.84 114.952 1096.92 115.534C1097 116.109 1097.37 116.39 1098.06 116.39ZM1095.19 113.367C1095.39 111.739 1096.49 110.729 1098.06 110.729C1099.65 110.729 1100.76 111.739 1100.95 113.367C1101.02 113.942 1101.02 114.945 1100.95 115.52C1100.75 117.148 1099.65 118.158 1098.08 118.158C1096.49 118.158 1095.39 117.148 1095.19 115.52C1095.12 114.945 1095.12 113.938 1095.19 113.367ZM1106.04 115.531C1106.01 116.088 1105.57 116.45 1104.93 116.45C1104.26 116.45 1103.85 116.116 1103.8 115.531C1103.76 114.952 1103.76 113.935 1103.8 113.356C1103.83 112.935 1104.05 112.437 1104.93 112.437C1105.57 112.437 1106.01 112.798 1106.04 113.356C1106.09 113.935 1106.09 114.952 1106.04 115.531ZM1105.14 110.729C1104.54 110.729 1104.24 110.873 1103.96 111.125C1103.9 111.178 1103.81 111.136 1103.81 111.059V108.147C1103.81 108.067 1103.75 108 1103.67 108H1102.23C1102.15 108 1102.09 108.067 1102.09 108.147V117.853C1102.09 117.933 1102.15 118 1102.23 118H1103.18C1103.25 118 1103.31 117.968 1103.35 117.912L1103.7 117.439C1103.74 117.39 1103.81 117.393 1103.84 117.439C1104.1 117.797 1104.46 118.158 1105.14 118.158C1106.56 118.158 1107.66 117.049 1107.78 115.524C1107.82 114.948 1107.82 113.942 1107.78 113.367C1107.66 111.837 1106.55 110.729 1105.14 110.729ZM1136.77 116.45C1137.42 116.45 1137.85 116.088 1137.89 115.531C1137.93 114.952 1137.93 113.935 1137.89 113.356C1137.85 112.798 1137.42 112.437 1136.77 112.437C1136.1 112.437 1135.69 112.774 1135.64 113.356C1135.6 113.935 1135.6 114.952 1135.64 115.531C1135.67 115.952 1135.89 116.45 1136.77 116.45ZM1136.98 110.729C1138.39 110.729 1139.5 111.837 1139.62 113.363C1139.66 113.938 1139.66 114.948 1139.62 115.524C1139.5 117.049 1138.39 118.158 1136.98 118.158C1136.38 118.158 1136.08 118.014 1135.8 117.758C1135.74 117.705 1135.65 117.747 1135.65 117.825V120.659C1135.65 120.739 1135.59 120.806 1135.51 120.806H1134.07C1133.99 120.806 1133.93 120.739 1133.93 120.659V111.034C1133.93 110.953 1133.99 110.887 1134.07 110.887H1135.02C1135.09 110.887 1135.15 110.918 1135.19 110.974L1135.54 111.448C1135.58 111.497 1135.65 111.497 1135.68 111.448C1135.94 111.09 1136.3 110.729 1136.98 110.729ZM1112.67 115.534C1112.59 116.102 1112.2 116.39 1111.51 116.39C1110.82 116.39 1110.45 116.109 1110.37 115.534C1110.29 114.952 1110.29 113.931 1110.37 113.353C1110.46 112.753 1110.81 112.497 1111.51 112.497C1112.2 112.497 1112.59 112.784 1112.67 113.353C1112.76 113.935 1112.76 114.955 1112.67 115.534ZM1111.51 110.729C1109.94 110.729 1108.84 111.739 1108.64 113.367C1108.57 113.938 1108.57 114.945 1108.64 115.52C1108.84 117.148 1109.95 118.158 1111.53 118.158C1113.1 118.158 1114.2 117.148 1114.4 115.52C1114.47 114.945 1114.47 113.942 1114.4 113.367C1114.2 111.739 1113.1 110.729 1111.51 110.729ZM1115.29 113.367C1115.49 111.739 1116.59 110.729 1118.18 110.729C1119.84 110.729 1121.01 111.869 1121 113.514V113.598C1121 113.679 1120.94 113.745 1120.86 113.745H1119.49C1119.42 113.745 1119.36 113.689 1119.35 113.612C1119.35 113.605 1119.35 113.599 1119.35 113.592C1119.35 113.584 1119.35 113.576 1119.35 113.566C1119.31 112.872 1118.9 112.504 1118.16 112.504C1117.45 112.504 1117.09 112.767 1117.02 113.36C1116.95 113.938 1116.95 114.959 1117.02 115.538C1117.08 116.109 1117.47 116.397 1118.18 116.397C1118.89 116.397 1119.24 116.078 1119.35 115.338V115.338C1119.35 115.317 1119.35 115.296 1119.36 115.278C1119.37 115.205 1119.43 115.152 1119.5 115.152H1120.86C1120.94 115.152 1121.01 115.219 1121.01 115.299V115.383C1121.01 117.204 1119.58 118.158 1118.18 118.158C1116.59 118.158 1115.48 117.148 1115.29 115.52C1115.22 114.945 1115.22 113.938 1115.29 113.367ZM1125.87 115.534C1125.79 116.102 1125.4 116.39 1124.71 116.39C1124.02 116.39 1123.65 116.109 1123.57 115.534C1123.48 114.952 1123.48 113.931 1123.57 113.353C1123.66 112.753 1124.01 112.497 1124.71 112.497C1125.4 112.497 1125.79 112.784 1125.87 113.353C1125.96 113.935 1125.96 114.955 1125.87 115.534ZM1124.71 110.729C1123.14 110.729 1122.04 111.739 1121.84 113.367C1121.77 113.938 1121.77 114.945 1121.84 115.52C1122.04 117.148 1123.14 118.158 1124.73 118.158C1126.3 118.158 1127.4 117.148 1127.6 115.52C1127.67 114.945 1127.67 113.942 1127.6 113.367C1127.4 111.739 1126.3 110.729 1124.71 110.729ZM1132.33 110.89H1132.9C1132.98 110.89 1133.04 110.957 1133.04 111.038V112.363C1133.04 112.444 1132.98 112.511 1132.9 112.511H1132.32C1131.14 112.511 1130.43 113.184 1130.43 114.314V117.856C1130.43 117.937 1130.36 118.004 1130.28 118.004H1128.84C1128.77 118.004 1128.7 117.937 1128.7 117.856V111.041C1128.7 110.96 1128.77 110.894 1128.84 110.894H1129.69C1129.79 110.894 1129.87 110.953 1129.9 111.045L1130.17 111.862C1130.19 111.925 1130.27 111.942 1130.31 111.897C1130.44 111.76 1130.67 111.532 1130.79 111.437C1131.07 111.206 1131.45 110.89 1132.33 110.89Z" fill="white"/>
<text fill="white" xml:space="preserve" style="white-space: pre" font-family="Barlow Condensed" font-size="29.3094" font-weight="800" letter-spacing="0px"><tspan x="849" y="142.148">CODE</tspan></text>
<path fill-rule="evenodd" clip-rule="evenodd" d="M851.968 111.277H853.729C854.33 111.277 854.811 110.758 854.773 110.137C854.735 109.572 854.251 109.144 853.695 109.144H851.968C851.889 109.144 851.823 109.211 851.823 109.291V111.129C851.823 111.21 851.889 111.277 851.968 111.277ZM855.013 112.852C854.972 112.883 854.955 112.939 854.976 112.988L856.675 117.078C856.706 117.152 856.655 117.232 856.576 117.232H854.804C854.715 117.232 854.636 117.176 854.601 117.092L853.115 113.332C853.08 113.248 853.001 113.192 852.912 113.192L851.961 113.188C851.882 113.188 851.817 113.255 851.817 113.336V117.085C851.817 117.166 851.751 117.232 851.672 117.232H850.093C850.014 117.232 849.949 117.166 849.949 117.085V107.38C849.949 107.299 850.014 107.232 850.093 107.232H853.726C855.298 107.232 856.603 108.506 856.641 110.112C856.668 111.224 856.239 111.999 855.195 112.722C855.146 112.758 855.105 112.787 855.073 112.809V112.809C855.049 112.826 855.029 112.84 855.013 112.852ZM860.064 115.622C860.748 115.622 861.136 115.335 861.222 114.767C861.307 114.188 861.307 113.167 861.222 112.585C861.136 112.017 860.748 111.729 860.064 111.729C859.357 111.729 859.014 111.985 858.921 112.585C858.835 113.164 858.835 114.184 858.921 114.767C859 115.342 859.374 115.622 860.064 115.622ZM857.19 112.599C857.39 110.971 858.488 109.961 860.064 109.961C861.647 109.961 862.757 110.971 862.952 112.599C863.024 113.174 863.024 114.177 862.952 114.753C862.753 116.38 861.654 117.39 860.078 117.39C858.492 117.39 857.386 116.38 857.19 114.753C857.118 114.177 857.118 113.171 857.19 112.599ZM868.044 114.763C868.014 115.321 867.574 115.682 866.929 115.682C866.259 115.682 865.847 115.349 865.799 114.763C865.758 114.184 865.758 113.167 865.799 112.588C865.83 112.168 866.053 111.669 866.929 111.669C867.574 111.669 868.01 112.031 868.044 112.588C868.086 113.167 868.086 114.184 868.044 114.763ZM867.141 109.961C866.541 109.961 866.238 110.105 865.957 110.358C865.902 110.41 865.813 110.368 865.813 110.291V107.38C865.813 107.299 865.747 107.232 865.668 107.232H864.23C864.151 107.232 864.085 107.299 864.085 107.38V117.085C864.085 117.166 864.151 117.232 864.23 117.232H865.177C865.246 117.232 865.311 117.201 865.352 117.145L865.703 116.671C865.737 116.622 865.809 116.626 865.843 116.671C866.098 117.029 866.458 117.39 867.145 117.39C868.556 117.39 869.662 116.282 869.779 114.756C869.82 114.181 869.82 113.174 869.779 112.599C869.658 111.07 868.553 109.961 867.141 109.961ZM898.77 115.682C899.415 115.682 899.855 115.321 899.886 114.763C899.93 114.184 899.93 113.167 899.886 112.588C899.851 112.031 899.415 111.669 898.77 111.669C898.1 111.669 897.688 112.006 897.64 112.588C897.599 113.167 897.599 114.184 897.64 114.763C897.674 115.184 897.894 115.682 898.77 115.682ZM898.983 109.961C900.394 109.961 901.503 111.07 901.616 112.595C901.658 113.171 901.658 114.181 901.616 114.756C901.5 116.282 900.394 117.39 898.983 117.39C898.382 117.39 898.076 117.246 897.798 116.99C897.743 116.938 897.654 116.98 897.654 117.057V119.891C897.654 119.972 897.589 120.038 897.51 120.038H896.071C895.992 120.038 895.927 119.972 895.927 119.891V110.266C895.927 110.186 895.992 110.119 896.071 110.119H897.019C897.087 110.119 897.152 110.151 897.194 110.207L897.54 110.68C897.578 110.729 897.647 110.729 897.681 110.68C897.935 110.323 898.296 109.961 898.983 109.961ZM874.672 114.767C874.586 115.335 874.198 115.622 873.514 115.622C872.824 115.622 872.45 115.342 872.371 114.767C872.285 114.184 872.285 113.164 872.371 112.585C872.464 111.985 872.807 111.729 873.514 111.729C874.198 111.729 874.586 112.017 874.672 112.585C874.757 113.167 874.757 114.188 874.672 114.767ZM873.514 109.961C871.938 109.961 870.84 110.971 870.64 112.599C870.568 113.171 870.568 114.177 870.64 114.753C870.836 116.38 871.945 117.39 873.528 117.39C875.104 117.39 876.203 116.38 876.402 114.753C876.474 114.177 876.474 113.174 876.402 112.599C876.203 110.971 875.097 109.961 873.514 109.961ZM877.288 112.599C877.487 110.971 878.593 109.961 880.176 109.961C881.841 109.961 883.005 111.101 883.002 112.746V112.83C883.002 112.911 882.937 112.978 882.858 112.978H881.495C881.419 112.978 881.357 112.922 881.35 112.845C881.35 112.838 881.35 112.831 881.349 112.824C881.348 112.816 881.347 112.808 881.347 112.799C881.306 112.104 880.897 111.736 880.162 111.736C879.448 111.736 879.094 111.999 879.019 112.592C878.947 113.171 878.947 114.191 879.019 114.77C879.084 115.342 879.472 115.63 880.176 115.63C880.89 115.63 881.24 115.31 881.347 114.57V114.57C881.35 114.549 881.354 114.528 881.357 114.511C881.367 114.437 881.429 114.384 881.501 114.384H882.861C882.94 114.384 883.005 114.451 883.005 114.532V114.616C883.005 116.436 881.584 117.39 880.176 117.39C878.59 117.39 877.484 116.38 877.288 114.753C877.216 114.177 877.216 113.171 877.288 112.599ZM887.871 114.767C887.785 115.335 887.397 115.622 886.714 115.622C886.024 115.622 885.649 115.342 885.57 114.767C885.485 114.184 885.485 113.164 885.57 112.585C885.663 111.985 886.006 111.729 886.714 111.729C887.397 111.729 887.785 112.017 887.871 112.585C887.957 113.167 887.957 114.188 887.871 114.767ZM886.714 109.961C885.138 109.961 884.039 110.971 883.84 112.599C883.768 113.171 883.768 114.177 883.84 114.753C884.035 116.38 885.145 117.39 886.728 117.39C888.304 117.39 889.402 116.38 889.602 114.753C889.674 114.177 889.674 113.174 889.602 112.599C889.402 110.971 888.297 109.961 886.714 109.961ZM894.333 110.123H894.896C894.979 110.123 895.044 110.189 895.041 110.27V111.596C895.041 111.676 894.975 111.743 894.896 111.743H894.32C893.135 111.743 892.428 112.417 892.428 113.546V117.089C892.428 117.169 892.362 117.236 892.283 117.236H890.845C890.766 117.236 890.7 117.169 890.7 117.089V110.273C890.7 110.193 890.766 110.126 890.845 110.126H891.693C891.785 110.126 891.868 110.186 891.899 110.277L892.17 111.094C892.191 111.157 892.27 111.175 892.314 111.129C892.445 110.993 892.671 110.765 892.788 110.67C893.07 110.438 893.454 110.123 894.333 110.123Z" fill="white"/>
<text opacity="0.7" fill="white" xml:space="preserve" style="white-space: pre" font-family="Proxima Nova" font-size="14" letter-spacing="0px"><tspan x="785" y="176.354">Open-source developer tools </tspan><tspan x="785" y="194.354">for building software robots.</tspan></text>
<rect x="785" y="255" width="124" height="41" rx="20.5" fill="url(#paint14_linear)"/>
<text fill="white" xml:space="preserve" style="white-space: pre" font-family="Cera Pro" font-size="16" font-weight="bold" letter-spacing="0px"><tspan x="808" y="279.928">Download</tspan></text>
<g filter="url(#filter5_d)">
<rect x="1024.5" y="255.5" width="163" height="40" rx="20" stroke="white"/>
</g>
<text fill="white" xml:space="preserve" style="white-space: pre" font-family="Cera Pro" font-size="16" font-weight="bold" letter-spacing="0px"><tspan x="1045" y="279.928">Create account</tspan></text>
<text opacity="0.7" fill="white" xml:space="preserve" style="white-space: pre" font-family="Proxima Nova" font-size="14" letter-spacing="0px"><tspan x="1025" y="176.354">Operate and run software </tspan><tspan x="1025" y="194.354">robots anywhere with minimum </tspan><tspan x="1025" y="212.354">setup.</tspan></text>
<text fill="white" xml:space="preserve" style="white-space: pre" font-family="Proxima Nova" font-size="13" letter-spacing="0px"><tspan x="1087" y="105.043">Run in</tspan></text>
<g filter="url(#filter6_b)">
<rect x="785" y="93" width="53" height="48" rx="10" fill="url(#paint15_linear)"/>
</g>
<path fill-rule="evenodd" clip-rule="evenodd" d="M824.694 120.239C826.474 119.511 827.734 117.781 827.734 115.743V114.942C827.734 112.903 826.474 111.167 824.694 110.439C824.458 110.344 824.201 110.518 824.201 110.77V119.909C824.201 120.167 824.458 120.335 824.694 120.239ZM821.502 120.458C821.334 118.386 820.51 116.504 819.234 115.015C819.088 114.841 819.127 114.606 819.318 114.483C821.054 113.374 822.14 111.341 821.877 109.079C821.591 106.615 819.626 104.576 817.173 104.207C816.025 104.039 814.927 104.212 813.975 104.649C813.32 104.951 812.626 105.097 811.931 105.097C811.231 105.097 810.537 104.946 809.887 104.649C808.935 104.212 807.838 104.033 806.69 104.207C804.237 104.571 802.271 106.615 801.986 109.079C801.722 111.347 802.809 113.374 804.545 114.483C804.735 114.606 804.774 114.841 804.629 115.015C803.358 116.504 802.529 118.386 802.361 120.458C802.344 120.671 802.501 120.85 802.714 120.85H811.931H821.149C821.356 120.85 821.518 120.665 821.502 120.458ZM802.473 122.955C803.279 127.452 807.199 130.874 811.931 130.874C816.663 130.874 820.583 127.458 821.39 122.955C821.429 122.731 821.261 122.53 821.037 122.53H811.931H802.826C802.602 122.53 802.434 122.737 802.473 122.955ZM799.174 120.239C799.41 120.335 799.667 120.161 799.667 119.909V110.764C799.667 110.507 799.41 110.339 799.174 110.434C797.394 111.167 796.134 112.898 796.134 114.936V115.743C796.134 117.775 797.394 119.511 799.174 120.239ZM824.078 108.317C824.548 108.227 825.041 108.272 825.5 108.457C828.154 109.549 829.874 112.091 829.89 114.936V115.737C829.89 118.587 828.177 121.13 825.522 122.216C825.214 122.339 824.89 122.401 824.57 122.401C824.274 122.401 823.982 122.345 823.708 122.244C823.596 122.199 823.478 122.3 823.501 122.418C823.557 122.715 823.562 123.023 823.506 123.331C822.504 128.942 817.643 133.013 811.942 133.013C806.242 133.013 801.381 128.942 800.378 123.331C800.322 123.023 800.328 122.715 800.384 122.418C800.406 122.3 800.289 122.199 800.177 122.244C799.897 122.345 799.606 122.401 799.314 122.401C798.995 122.401 798.676 122.339 798.368 122.216C795.714 121.124 794 118.582 794 115.737V114.936C794 112.086 795.714 109.543 798.368 108.457C798.827 108.267 799.32 108.227 799.79 108.317C799.88 108.334 799.964 108.283 799.981 108.194C800.619 105.041 803.167 102.571 806.387 102.09C807.899 101.86 809.422 102.073 810.789 102.7C811.153 102.868 811.545 102.952 811.937 102.952C812.329 102.952 812.721 102.868 813.085 102.7C814.451 102.079 815.974 101.866 817.486 102.09C820.706 102.571 823.254 105.041 823.893 108.194C823.91 108.283 823.988 108.334 824.078 108.317ZM806.236 109.532C806.236 109.017 806.656 108.597 807.171 108.597H816.691C817.206 108.597 817.626 109.017 817.626 109.532C817.626 110.047 817.206 110.467 816.691 110.467H807.171C806.656 110.467 806.236 110.047 806.236 109.532ZM812.637 114.718C812.637 114.102 813.135 113.603 813.751 113.603C814.367 113.603 814.866 114.102 814.866 114.718C814.866 115.334 814.367 115.832 813.751 115.832C813.135 115.832 812.637 115.334 812.637 114.718ZM810.111 113.603C809.495 113.603 808.997 114.102 808.997 114.718C808.997 115.334 809.495 115.832 810.111 115.832C810.727 115.832 811.226 115.334 811.226 114.718C811.226 114.102 810.727 113.603 810.111 113.603Z" fill="white"/>
<g filter="url(#filter7_b)">
<rect x="1025" y="93" width="53" height="48" rx="10" fill="#36C5F0"/>
</g>
<path d="M1063.23 119.58C1063.87 118.529 1064.25 117.314 1064.25 116C1064.25 112.134 1061.12 109 1057.25 109C1054.04 109 1051.36 111.177 1050.54 114.127C1049.58 113.128 1048.24 112.5 1046.75 112.5C1043.85 112.5 1041.5 114.851 1041.5 117.75C1041.5 118.379 1041.63 118.975 1041.83 119.534C1041.72 119.524 1041.61 119.5 1041.5 119.5C1039.57 119.5 1038 121.067 1038 123C1038 124.933 1039.57 126.5 1041.5 126.5H1062.5C1064.43 126.5 1066 124.933 1066 123C1066 121.32 1064.81 119.919 1063.23 119.58Z" fill="white"/>
<rect y="-4" width="1440" height="389" fill="url(#paint16_linear)"/>
</g>
<defs>
<filter id="filter0_b" x="731" y="43" width="543" height="293" filterUnits="userSpaceOnUse" color-interpolation-filters="sRGB">
<feFlood flood-opacity="0" result="BackgroundImageFix"/>
<feGaussianBlur in="BackgroundImage" stdDeviation="5"/>
<feComposite in2="SourceAlpha" operator="in" result="effect1_backgroundBlur"/>
<feBlend mode="normal" in="SourceGraphic" in2="effect1_backgroundBlur" result="shape"/>
</filter>
<filter id="filter1_d" x="1010" y="245" width="192" height="69" filterUnits="userSpaceOnUse" color-interpolation-filters="sRGB">
<feFlood flood-opacity="0" result="BackgroundImageFix"/>
<feColorMatrix in="SourceAlpha" type="matrix" values="0 0 0 0 0 0 0 0 0 0 0 0 0 0 0 0 0 0 127 0"/>
<feOffset dy="4"/>
<feGaussianBlur stdDeviation="7"/>
<feColorMatrix type="matrix" values="0 0 0 0 0 0 0 0 0 0 0 0 0 0 0 0 0 0 0.15 0"/>
<feBlend mode="normal" in2="BackgroundImageFix" result="effect1_dropShadow"/>
<feBlend mode="normal" in="SourceGraphic" in2="effect1_dropShadow" result="shape"/>
</filter>
<filter id="filter2_b" x="781" y="89" width="61" height="56" filterUnits="userSpaceOnUse" color-interpolation-filters="sRGB">
<feFlood flood-opacity="0" result="BackgroundImageFix"/>
<feGaussianBlur in="BackgroundImage" stdDeviation="2"/>
<feComposite in2="SourceAlpha" operator="in" result="effect1_backgroundBlur"/>
<feBlend mode="normal" in="SourceGraphic" in2="effect1_backgroundBlur" result="shape"/>
</filter>
<filter id="filter3_b" x="1021" y="89" width="61" height="56" filterUnits="userSpaceOnUse" color-interpolation-filters="sRGB">
<feFlood flood-opacity="0" result="BackgroundImageFix"/>
<feGaussianBlur in="BackgroundImage" stdDeviation="2"/>
<feComposite in2="SourceAlpha" operator="in" result="effect1_backgroundBlur"/>
<feBlend mode="normal" in="SourceGraphic" in2="effect1_backgroundBlur" result="shape"/>
</filter>
<filter id="filter4_b" x="731" y="43" width="543" height="293" filterUnits="userSpaceOnUse" color-interpolation-filters="sRGB">
<feFlood flood-opacity="0" result="BackgroundImageFix"/>
<feGaussianBlur in="BackgroundImage" stdDeviation="5"/>
<feComposite in2="SourceAlpha" operator="in" result="effect1_backgroundBlur"/>
<feBlend mode="normal" in="SourceGraphic" in2="effect1_backgroundBlur" result="shape"/>
</filter>
<filter id="filter5_d" x="1010" y="245" width="192" height="69" filterUnits="userSpaceOnUse" color-interpolation-filters="sRGB">
<feFlood flood-opacity="0" result="BackgroundImageFix"/>
<feColorMatrix in="SourceAlpha" type="matrix" values="0 0 0 0 0 0 0 0 0 0 0 0 0 0 0 0 0 0 127 0"/>
<feOffset dy="4"/>
<feGaussianBlur stdDeviation="7"/>
<feColorMatrix type="matrix" values="0 0 0 0 0 0 0 0 0 0 0 0 0 0 0 0 0 0 0.15 0"/>
<feBlend mode="normal" in2="BackgroundImageFix" result="effect1_dropShadow"/>
<feBlend mode="normal" in="SourceGraphic" in2="effect1_dropShadow" result="shape"/>
</filter>
<filter id="filter6_b" x="781" y="89" width="61" height="56" filterUnits="userSpaceOnUse" color-interpolation-filters="sRGB">
<feFlood flood-opacity="0" result="BackgroundImageFix"/>
<feGaussianBlur in="BackgroundImage" stdDeviation="2"/>
<feComposite in2="SourceAlpha" operator="in" result="effect1_backgroundBlur"/>
<feBlend mode="normal" in="SourceGraphic" in2="effect1_backgroundBlur" result="shape"/>
</filter>
<filter id="filter7_b" x="1021" y="89" width="61" height="56" filterUnits="userSpaceOnUse" color-interpolation-filters="sRGB">
<feFlood flood-opacity="0" result="BackgroundImageFix"/>
<feGaussianBlur in="BackgroundImage" stdDeviation="2"/>
<feComposite in2="SourceAlpha" operator="in" result="effect1_backgroundBlur"/>
<feBlend mode="normal" in="SourceGraphic" in2="effect1_backgroundBlur" result="shape"/>
</filter>
<linearGradient id="paint0_linear" x1="720" y1="-4" x2="720" y2="385" gradientUnits="userSpaceOnUse">
<stop stop-color="#8127E8"/>
<stop offset="1" stop-color="#B135E3"/>
</linearGradient>
<linearGradient id="paint1_linear" x1="720" y1="-4" x2="720" y2="385" gradientUnits="userSpaceOnUse">
<stop stop-color="#CF6CCD"/>
<stop offset="1" stop-color="#F36D5F"/>
</linearGradient>
<linearGradient id="paint2_linear" x1="145.5" y1="131.304" x2="1189.74" y2="278.291" gradientUnits="userSpaceOnUse">
<stop stop-color="#8F2BE6"/>
<stop offset="1" stop-color="#E582A3" stop-opacity="0"/>
</linearGradient>
<linearGradient id="paint3_linear" x1="44.5" y1="530.573" x2="1167.23" y2="323.444" gradientUnits="userSpaceOnUse">
<stop stop-color="#791779"/>
<stop offset="1" stop-color="#A25ABD" stop-opacity="0"/>
</linearGradient>
<linearGradient id="paint4_linear" x1="720" y1="-4" x2="720" y2="385" gradientUnits="userSpaceOnUse">
<stop stop-color="#321059"/>
<stop offset="1" stop-color="#332738"/>
</linearGradient>
<linearGradient id="paint5_linear" x1="720" y1="-4" x2="720" y2="385" gradientUnits="userSpaceOnUse">
<stop stop-color="#CF6CCD"/>
<stop offset="1" stop-color="#F36D5F"/>
</linearGradient>
<linearGradient id="paint6_linear" x1="145.5" y1="131.304" x2="1189.74" y2="278.291" gradientUnits="userSpaceOnUse">
<stop stop-color="#8F2BE6"/>
<stop offset="1" stop-color="#E582A3" stop-opacity="0"/>
</linearGradient>
<linearGradient id="paint7_linear" x1="44.5" y1="530.573" x2="1167.23" y2="323.444" gradientUnits="userSpaceOnUse">
<stop stop-color="#791779"/>
<stop offset="1" stop-color="#A25ABD" stop-opacity="0"/>
</linearGradient>
<linearGradient id="paint8_linear" x1="847" y1="255" x2="873.318" y2="304.428" gradientUnits="userSpaceOnUse">
<stop stop-color="#FD7006"/>
<stop offset="1" stop-color="#FF9243"/>
</linearGradient>
<linearGradient id="paint9_linear" x1="811.5" y1="93" x2="811.5" y2="141" gradientUnits="userSpaceOnUse">
<stop stop-color="#FF66FC"/>
<stop offset="1" stop-color="#FF5846"/>
</linearGradient>
<linearGradient id="paint10_linear" x1="720" y1="-4" x2="720" y2="385" gradientUnits="userSpaceOnUse">
<stop stop-color="#321059"/>
<stop offset="1" stop-color="#332738"/>
</linearGradient>
<linearGradient id="paint11_linear" x1="720" y1="-4" x2="720" y2="385" gradientUnits="userSpaceOnUse">
<stop stop-color="#CF6CCD"/>
<stop offset="1" stop-color="#F36D5F"/>
</linearGradient>
<linearGradient id="paint12_linear" x1="145.5" y1="131.304" x2="1189.74" y2="278.291" gradientUnits="userSpaceOnUse">
<stop stop-color="#8F2BE6"/>
<stop offset="1" stop-color="#E582A3" stop-opacity="0"/>
</linearGradient>
<linearGradient id="paint13_linear" x1="44.5" y1="530.573" x2="1167.23" y2="323.444" gradientUnits="userSpaceOnUse">
<stop stop-color="#791779"/>
<stop offset="1" stop-color="#A25ABD" stop-opacity="0"/>
</linearGradient>
<linearGradient id="paint14_linear" x1="847" y1="255" x2="873.318" y2="304.428" gradientUnits="userSpaceOnUse">
<stop stop-color="#FD7006"/>
<stop offset="1" stop-color="#FF9243"/>
</linearGradient>
<linearGradient id="paint15_linear" x1="811.5" y1="93" x2="811.5" y2="141" gradientUnits="userSpaceOnUse">
<stop stop-color="#FF66FC"/>
<stop offset="1" stop-color="#FF5846"/>
</linearGradient>
<linearGradient id="paint16_linear" x1="720" y1="-4" x2="720" y2="385" gradientUnits="userSpaceOnUse">
<stop stop-color="#321059"/>
<stop offset="1" stop-color="#332738"/>
</linearGradient>
<clipPath id="clip0">
<rect width="1440" height="4201" fill="white" transform="translate(0 -3189)"/>
</clipPath>
</defs>
</svg>
