<svg width="151" height="34" viewBox="0 0 151 34" fill="none" xmlns="http://www.w3.org/2000/svg">
<path d="M57.925 24L53.624 18.043C55.28 17.215 56.292 15.651 56.292 13.719C56.292 10.798 53.992 8.82 50.818 8.82H45.114V24H48.219V18.641H50.496L54.429 24H57.925ZM48.219 11.557H50.818C52.221 11.557 53.118 12.431 53.118 13.719C53.118 15.03 52.267 15.904 50.818 15.904H48.219V11.557ZM58.638 18.296C58.569 21.539 61.375 24.322 64.71 24.253C68.045 24.322 70.92 21.539 70.851 18.296C70.92 15.053 68.068 12.316 64.733 12.362C61.398 12.293 58.569 15.053 58.638 18.296ZM67.677 18.319C67.677 20.09 66.412 21.401 64.733 21.401C63.008 21.401 61.789 20.09 61.789 18.319C61.789 16.502 63.008 15.191 64.733 15.191C66.412 15.191 67.677 16.548 67.677 18.319ZM85.3041 18.319C85.3041 14.892 82.9581 12.362 79.7841 12.362C78.3351 12.362 77.2081 12.822 76.3801 13.719V6.75H73.2751V24H76.1271V22.597C76.9321 23.678 78.2201 24.276 79.7841 24.276C82.9581 24.276 85.3041 21.746 85.3041 18.319ZM82.1531 18.296C82.1531 20.205 80.8881 21.447 79.2091 21.447C77.6451 21.447 76.3341 20.366 76.3341 18.319C76.3341 16.295 77.6221 15.168 79.2091 15.168C80.8651 15.168 82.1531 16.433 82.1531 18.296ZM87.096 18.296C87.027 21.539 89.833 24.322 93.168 24.253C96.503 24.322 99.378 21.539 99.309 18.296C99.378 15.053 96.526 12.316 93.191 12.362C89.856 12.293 87.027 15.053 87.096 18.296ZM96.135 18.319C96.135 20.09 94.87 21.401 93.191 21.401C91.466 21.401 90.247 20.09 90.247 18.319C90.247 16.502 91.466 15.191 93.191 15.191C94.87 15.191 96.135 16.548 96.135 18.319ZM101.089 18.296C101.043 21.585 103.849 24.345 107.184 24.276C109.392 24.276 111.14 23.195 112.129 21.447L109.967 19.791C109.231 20.826 108.403 21.424 107.23 21.424C105.482 21.424 104.24 20.113 104.24 18.296C104.24 16.525 105.482 15.191 107.23 15.191C108.426 15.191 109.254 15.812 109.967 16.847L112.129 15.168C111.14 13.42 109.415 12.362 107.184 12.362C103.803 12.362 101.089 14.961 101.089 18.296ZM113.555 18.296C113.486 21.539 116.292 24.322 119.627 24.253C122.962 24.322 125.837 21.539 125.768 18.296C125.837 15.053 122.985 12.316 119.65 12.362C116.315 12.293 113.486 15.053 113.555 18.296ZM122.594 18.319C122.594 20.09 121.329 21.401 119.65 21.401C117.925 21.401 116.706 20.09 116.706 18.319C116.706 16.502 117.925 15.191 119.65 15.191C121.329 15.191 122.594 16.548 122.594 18.319ZM135.184 12.615C134.885 12.523 134.563 12.477 134.172 12.477C132.907 12.477 131.803 13.029 131.044 13.972V12.615H128.192V24H131.297V18.319C131.297 16.364 132.493 15.352 134.356 15.352H135.184V12.615ZM149.138 18.296C149.138 14.892 146.792 12.362 143.618 12.362C142.054 12.362 140.72 12.96 139.961 14.041V12.615H137.109V28.14H140.214V22.896C141.042 23.793 142.238 24.276 143.618 24.276C146.792 24.276 149.138 21.7 149.138 18.296ZM145.987 18.319C145.987 20.182 144.699 21.447 143.043 21.447C141.456 21.447 140.168 20.32 140.168 18.296C140.168 16.249 141.479 15.168 143.043 15.168C144.722 15.168 145.987 16.41 145.987 18.319Z" fill="#F6F9FC"/>
<mask id="path-2-outside-1" maskUnits="userSpaceOnUse" x="0" y="0" width="39" height="34" fill="black">
<rect fill="white" width="39" height="34"/>
<path d="M31.1058 8.11295C31.561 8.02625 32.0378 8.0696 32.4822 8.24843C35.0508 9.30514 36.7145 11.7654 36.7307 14.5183V15.2932C36.7307 18.0515 35.0725 20.5118 32.5039 21.5631C32.2058 21.6823 31.8915 21.7419 31.5826 21.7419C31.2954 21.7419 31.0136 21.6877 30.7481 21.5901C30.6397 21.5468 30.5259 21.6443 30.5476 21.7581C30.6018 22.0453 30.6072 22.3434 30.553 22.6414C29.583 28.0713 24.8793 32.011 19.3627 32.011C13.8461 32.011 9.14232 28.0713 8.17231 22.6414C8.11811 22.3434 8.12354 22.0453 8.17773 21.7581C8.1994 21.6443 8.0856 21.5468 7.97722 21.5901C7.70627 21.6877 7.42448 21.7419 7.14269 21.7419C6.8338 21.7419 6.52491 21.6823 6.22686 21.5631C3.65823 20.5063 2 18.0461 2 15.2932V14.5183C2 11.76 3.65823 9.29973 6.22686 8.24843C6.67123 8.06418 7.1481 8.02625 7.6033 8.11295C7.69001 8.12921 7.7713 8.08044 7.78755 7.99373C8.40533 4.9428 10.871 2.553 13.987 2.08696C15.4501 1.86478 16.9241 2.0707 18.2463 2.67764C18.5986 2.84021 18.9779 2.9215 19.3572 2.9215C19.7366 2.9215 20.1159 2.84021 20.4681 2.67764C21.7904 2.07612 23.2644 1.8702 24.7275 2.08696C27.8435 2.553 30.3092 4.9428 30.9269 7.99373C30.9432 8.08044 31.0191 8.12921 31.1058 8.11295Z"/>
</mask>
<path d="M31.1058 8.11295C31.561 8.02625 32.0378 8.0696 32.4822 8.24843C35.0508 9.30514 36.7145 11.7654 36.7307 14.5183V15.2932C36.7307 18.0515 35.0725 20.5118 32.5039 21.5631C32.2058 21.6823 31.8915 21.7419 31.5826 21.7419C31.2954 21.7419 31.0136 21.6877 30.7481 21.5901C30.6397 21.5468 30.5259 21.6443 30.5476 21.7581C30.6018 22.0453 30.6072 22.3434 30.553 22.6414C29.583 28.0713 24.8793 32.011 19.3627 32.011C13.8461 32.011 9.14232 28.0713 8.17231 22.6414C8.11811 22.3434 8.12354 22.0453 8.17773 21.7581C8.1994 21.6443 8.0856 21.5468 7.97722 21.5901C7.70627 21.6877 7.42448 21.7419 7.14269 21.7419C6.8338 21.7419 6.52491 21.6823 6.22686 21.5631C3.65823 20.5063 2 18.0461 2 15.2932V14.5183C2 11.76 3.65823 9.29973 6.22686 8.24843C6.67123 8.06418 7.1481 8.02625 7.6033 8.11295C7.69001 8.12921 7.7713 8.08044 7.78755 7.99373C8.40533 4.9428 10.871 2.553 13.987 2.08696C15.4501 1.86478 16.9241 2.0707 18.2463 2.67764C18.5986 2.84021 18.9779 2.9215 19.3572 2.9215C19.7366 2.9215 20.1159 2.84021 20.4681 2.67764C21.7904 2.07612 23.2644 1.8702 24.7275 2.08696C27.8435 2.553 30.3092 4.9428 30.9269 7.99373C30.9432 8.08044 31.0191 8.12921 31.1058 8.11295Z" fill="#2C3A4D"/>
<path d="M32.4822 8.24843L33.094 6.7614L33.0825 6.75678L32.4822 8.24843ZM31.1058 8.11295L31.4021 9.69332L31.4066 9.69246L31.1058 8.11295ZM30.9269 7.99373L32.5073 7.69743L32.5052 7.68601L32.5028 7.67463L30.9269 7.99373ZM24.7275 2.08696L24.9654 0.496744L24.9632 0.496417L24.7275 2.08696ZM20.4681 2.67764L19.8023 1.21404L19.7943 1.21773L20.4681 2.67764ZM18.2463 2.67764L18.9201 1.21772L18.9171 1.21633L18.2463 2.67764ZM13.987 2.08696L14.2248 3.67718L14.2283 3.67664L13.987 2.08696ZM7.78755 7.99373L6.21163 7.67463L6.20933 7.68601L6.20719 7.69741L7.78755 7.99373ZM7.6033 8.11295L7.30245 9.69246L7.30698 9.69332L7.6033 8.11295ZM6.22686 8.24843L6.83592 9.73654L6.84272 9.73372L6.22686 8.24843ZM6.22686 21.5631L5.61513 23.05L5.6224 23.053L5.6297 23.056L6.22686 21.5631ZM7.97722 21.5901L8.52185 23.103L8.54829 23.0935L8.57438 23.083L7.97722 21.5901ZM8.17773 21.7581L6.59822 21.4573L6.5977 21.46L8.17773 21.7581ZM8.17231 22.6414L9.75516 22.3587L9.75427 22.3538L8.17231 22.6414ZM30.553 22.6414L28.971 22.3538L28.9702 22.3587L30.553 22.6414ZM30.5476 21.7581L32.1276 21.46L32.1271 21.4573L30.5476 21.7581ZM30.7481 21.5901L30.1509 23.083L30.1722 23.0915L30.1937 23.0994L30.7481 21.5901ZM32.5039 21.5631L33.101 23.056L33.1129 23.0511L32.5039 21.5631ZM36.7307 14.5183H38.3387L38.3386 14.5088L36.7307 14.5183ZM33.0825 6.75678C32.3503 6.46212 31.5605 6.38952 30.8049 6.53345L31.4066 9.69246C31.5614 9.66297 31.7254 9.67708 31.8819 9.74007L33.0825 6.75678ZM30.8094 6.53259C31.1416 6.4703 31.5309 6.5226 31.8752 6.74972C32.2251 6.98048 32.4391 7.33376 32.5073 7.69743L29.3466 8.29003C29.5359 9.29971 30.4936 9.86367 31.4021 9.69332L30.8094 6.53259ZM32.5028 7.67463C31.7529 3.97085 28.7605 1.06436 24.9654 0.496745L24.4897 3.67718C26.9265 4.04164 28.8654 5.91476 29.351 8.31284L32.5028 7.67463ZM24.9632 0.496417C23.1977 0.234872 21.4104 0.482544 19.8023 1.21406L21.134 4.14122C22.1704 3.6697 23.331 3.50553 24.4919 3.67751L24.9632 0.496417ZM19.7943 1.21773C19.6561 1.28153 19.507 1.31359 19.3572 1.31359V4.5294C19.9662 4.5294 20.5757 4.39889 21.142 4.13755L19.7943 1.21773ZM19.3572 1.31359C19.2075 1.31359 19.0584 1.28153 18.9201 1.21773L17.5725 4.13755C18.1388 4.39889 18.7483 4.5294 19.3572 4.5294V1.31359ZM18.9171 1.21633C17.3063 0.476927 15.5149 0.228607 13.7456 0.497281L14.2283 3.67664C15.3853 3.50095 16.5419 3.66448 17.5756 4.13895L18.9171 1.21633ZM13.7491 0.496745C9.95398 1.06436 6.9616 3.97085 6.21163 7.67463L9.36347 8.31284C9.84905 5.91476 11.788 4.04164 14.2248 3.67718L13.7491 0.496745ZM6.20719 7.69741C6.37431 6.80609 7.22259 6.40564 7.89963 6.53259L7.30698 9.69332C8.15743 9.85278 9.16828 9.35479 9.36792 8.29005L6.20719 7.69741ZM7.90416 6.53345C7.1611 6.39191 6.36378 6.45102 5.61101 6.76314L6.84272 9.73372C6.97868 9.67734 7.1351 9.66058 7.30245 9.69246L7.90416 6.53345ZM5.61781 6.76034C2.44977 8.05696 0.392096 11.1021 0.392096 14.5183H3.6079C3.6079 12.4179 4.86669 10.5425 6.83591 9.73652L5.61781 6.76034ZM0.392096 14.5183V15.2932H3.6079V14.5183H0.392096ZM0.392096 15.2932C0.392096 18.7053 2.45067 21.7482 5.61513 23.05L6.8386 20.0761C4.8658 19.2645 3.6079 17.3869 3.6079 15.2932H0.392096ZM5.6297 23.056C6.11353 23.2495 6.62482 23.3498 7.14269 23.3498V20.134C7.04278 20.134 6.93629 20.1151 6.82402 20.0701L5.6297 23.056ZM7.14269 23.3498C7.63054 23.3498 8.09649 23.2561 8.52185 23.103L7.43259 20.0773C7.31605 20.1192 7.21841 20.134 7.14269 20.134V23.3498ZM8.57438 23.083C7.45289 23.5316 6.39247 22.5375 6.59822 21.4573L9.75723 22.059C10.0063 20.7512 8.71831 19.5619 7.38006 20.0972L8.57438 23.083ZM6.5977 21.46C6.50941 21.928 6.49867 22.4249 6.59034 22.9291L9.75427 22.3538C9.73755 22.2619 9.73766 22.1627 9.75775 22.0563L6.5977 21.46ZM6.58946 22.9242C7.6964 29.1206 13.0668 33.6189 19.3627 33.6189V30.4031C14.6253 30.4031 10.5882 27.0221 9.75515 22.3587L6.58946 22.9242ZM19.3627 33.6189C25.6585 33.6189 31.0289 29.1206 32.1359 22.9242L28.9702 22.3587C28.1371 27.0221 24.1 30.4031 19.3627 30.4031V33.6189ZM32.135 22.9291C32.2266 22.4249 32.2159 21.928 32.1276 21.46L28.9676 22.0563C28.9877 22.1627 28.9878 22.2618 28.971 22.3538L32.135 22.9291ZM32.1271 21.4573C32.3328 22.5374 31.2725 23.5317 30.1509 23.083L31.3453 20.0972C30.0069 19.5619 28.719 20.7513 28.9681 22.059L32.1271 21.4573ZM30.1937 23.0994C30.6235 23.2573 31.0926 23.3498 31.5826 23.3498V20.134C31.4983 20.134 31.4038 20.1181 31.3025 20.0809L30.1937 23.0994ZM31.5826 23.3498C32.0969 23.3498 32.6138 23.2508 33.101 23.056L31.9067 20.0701C31.7978 20.1137 31.6861 20.134 31.5826 20.134V23.3498ZM33.1129 23.0511C36.281 21.7545 38.3386 18.7094 38.3386 15.2932H35.1228C35.1228 17.3936 33.864 19.269 31.8948 20.075L33.1129 23.0511ZM38.3386 15.2932V14.5183H35.1228V15.2932H38.3386ZM38.3386 14.5088C38.3185 11.1023 36.2572 8.06278 33.0939 6.76144L31.8705 9.73542C33.8445 10.5475 35.1105 12.4285 35.1229 14.5278L38.3386 14.5088Z" fill="white" fill-opacity="0.15" mask="url(#path-2-outside-1)"/>
<path fill-rule="evenodd" clip-rule="evenodd" d="M31.7016 19.6505C33.4249 18.946 34.6442 17.2715 34.6442 15.299V14.524C34.6442 12.5515 33.4249 10.8716 31.7016 10.1671C31.474 10.075 31.2248 10.243 31.2248 10.4868V19.3307C31.2248 19.58 31.474 19.7426 31.7016 19.6505ZM28.6128 19.8618C28.4502 17.8568 27.6536 16.036 26.4181 14.5945C26.2772 14.4265 26.3151 14.1989 26.4993 14.0797C28.1793 13.0067 29.2306 11.0396 28.9759 8.85029C28.6995 6.4659 26.7974 4.49337 24.4238 4.13571C23.3129 3.97314 22.2508 4.14113 21.3296 4.56381C20.6955 4.85644 20.0236 4.99734 19.3516 4.99734C18.6742 4.99734 18.0023 4.85102 17.3737 4.56381C16.4524 4.14113 15.3903 3.96772 14.2794 4.13571C11.9058 4.48795 10.0037 6.4659 9.72737 8.85029C9.47267 11.045 10.524 13.0067 12.2039 14.0797C12.3881 14.1989 12.4261 14.4265 12.2852 14.5945C11.055 16.036 10.253 17.8568 10.0904 19.8618C10.0742 20.0677 10.2259 20.2411 10.4318 20.2411H19.3516H28.2714C28.4719 20.2411 28.629 20.0623 28.6128 19.8618ZM10.1988 22.2787C10.9792 26.6302 14.7725 29.9413 19.3516 29.9413C23.9307 29.9413 27.7241 26.6356 28.5044 22.2787C28.5423 22.0619 28.3798 21.8669 28.163 21.8669H19.3516H10.5402C10.3235 21.8669 10.1609 22.0674 10.1988 22.2787ZM7.007 19.6505C7.2346 19.7426 7.48388 19.5746 7.48388 19.3307V10.4814C7.48388 10.2321 7.2346 10.0696 7.007 10.1617C5.28374 10.8716 4.06445 12.5461 4.06445 14.5186V15.299C4.06445 17.2661 5.28374 18.946 7.007 19.6505ZM14.7455 8.3838H23.9579C24.4565 8.3838 24.8629 8.79023 24.8629 9.28878C24.8629 9.78734 24.4565 10.1938 23.9579 10.1938H14.7455C14.247 10.1938 13.8405 9.78734 13.8405 9.28878C13.8405 8.79023 14.247 8.3838 14.7455 8.3838ZM20.0344 14.3068C20.0344 13.7107 20.5167 13.2284 21.1128 13.2284C21.7089 13.2284 22.1912 13.7107 22.1912 14.3068C22.1912 14.9029 21.7089 15.3852 21.1128 15.3852C20.5167 15.3852 20.0344 14.9029 20.0344 14.3068ZM17.5904 13.2284C16.9943 13.2284 16.512 13.7107 16.512 14.3068C16.512 14.9029 16.9943 15.3852 17.5904 15.3852C18.1865 15.3852 18.6688 14.9029 18.6688 14.3068C18.6688 13.7107 18.1865 13.2284 17.5904 13.2284Z" fill="white"/>
</svg>
