<svg width="17" height="17" viewBox="0 0 17 17" fill="none" xmlns="http://www.w3.org/2000/svg">
<path d="M16.596 12.0019C16.2958 12.7193 15.9404 13.3797 15.5286 13.9868C14.9673 14.8145 14.5077 15.3875 14.1536 15.7056C13.6045 16.2278 13.0163 16.4953 12.3864 16.5105C11.9342 16.5105 11.3888 16.3774 10.754 16.1074C10.1171 15.8387 9.53179 15.7056 8.9966 15.7056C8.43532 15.7056 7.83334 15.8387 7.18946 16.1074C6.54459 16.3774 6.0251 16.5181 5.62791 16.532C5.02385 16.5587 4.42176 16.2836 3.82076 15.7056C3.43718 15.3596 2.95739 14.7664 2.38262 13.926C1.76594 13.0286 1.25895 11.988 0.86176 10.8015C0.436384 9.52008 0.223145 8.27917 0.223145 7.07781C0.223145 5.70165 0.51065 4.51474 1.08652 3.52011C1.5391 2.72119 2.1412 2.09097 2.89477 1.62833C3.64833 1.16568 4.46257 0.929919 5.33942 0.914836C5.81921 0.914836 6.44839 1.06833 7.23027 1.37C8.00994 1.67269 8.51056 1.82619 8.73005 1.82619C8.89415 1.82619 9.45029 1.64671 10.3931 1.28888C11.2846 0.957044 12.0371 0.819644 12.6535 0.873768C14.3239 1.0132 15.5788 1.69424 16.4134 2.9212C14.9195 3.8574 14.1805 5.16866 14.1952 6.85079C14.2087 8.16103 14.6683 9.25136 15.5715 10.1171C15.9808 10.5189 16.4379 10.8294 16.9465 11.05C16.8362 11.3808 16.7198 11.6977 16.596 12.0019Z" fill="white"/>
</svg>
