<svg width="250" height="157" viewBox="0 0 250 157" fill="none" xmlns="http://www.w3.org/2000/svg">
<rect width="144.233" height="144.233" transform="matrix(0.866025 0.5 -0.866025 0.5 124.91 12.5654)" fill="#321060"/>
<path d="M249.913 84.7388V72.1166L234.378 80.2078L249.913 84.7388Z" fill="#321060"/>
<path d="M0.0565815 84.7388V72.1166L15.5917 80.2078L0.0565815 84.7388Z" fill="#321060"/>
<rect width="144.233" height="144.233" transform="matrix(0.866025 0.5 -0.866025 0.5 124.91 0)" fill="#4D1F8F"/>
<g filter="url(#filter0_b)">
<rect width="116.513" height="116.513" transform="matrix(0.866025 0.5 -0.866025 0.5 124.91 13.86)" fill="url(#paint0_linear)" fill-opacity="0.8"/>
<rect width="116.513" height="116.513" transform="matrix(0.866025 0.5 -0.866025 0.5 124.91 13.86)" stroke="white" stroke-opacity="0.5" stroke-width="0.647296"/>
</g>
<path fill-rule="evenodd" clip-rule="evenodd" d="M148.968 57.4086C150.898 54.7741 150.036 51.634 146.299 49.4935L144.831 48.6527C141.095 46.5122 135.602 46.0124 131.003 47.1179C130.398 47.2649 130.244 47.7177 130.706 47.9823L147.459 57.5791C147.932 57.8496 148.712 57.7555 148.968 57.4086ZM143.517 60.9895C139.411 58.9902 134.453 57.8788 129.382 57.6554C128.796 57.626 128.437 57.3378 128.56 57.0085C129.71 54.0213 127.975 50.7459 123.345 48.6466C118.305 46.3591 110.965 46.2827 105.791 48.4702C103.58 49.4135 101.972 50.6137 100.992 51.9305L100.74 52.2924C100.094 53.298 99.0876 54.18 97.8147 54.9092C96.6919 55.5524 95.3647 56.0695 93.8882 56.4369L93.2464 56.5851C90.7006 57.1261 88.36 58.0905 86.5738 59.4783C82.7447 62.4361 82.8884 66.6465 86.8818 69.5337C90.5569 72.1917 96.2646 73.1796 101.48 72.521C102.054 72.4504 102.557 72.6562 102.609 72.9914C103.009 75.8904 104.939 78.7365 108.429 81.0887C108.789 81.3298 109.405 81.3533 109.795 81.1299L143.589 61.7716C143.969 61.5541 143.928 61.1895 143.517 60.9895ZM113.213 83.5938C122.935 87.469 136.393 86.9456 145.067 81.9767C153.742 77.0077 154.666 69.3044 147.89 63.7298C147.552 63.4535 146.874 63.4182 146.464 63.6534L113.08 82.7764C112.669 83.0116 112.741 83.4056 113.213 83.5938ZM102.188 84.205C102.794 84.058 102.948 83.6052 102.486 83.3406L85.7218 73.7379C85.2495 73.4674 84.4694 73.5615 84.2127 73.9084C82.293 76.5487 83.1554 79.6889 86.8921 81.8293L88.3703 82.6761C92.0967 84.8107 97.5889 85.3105 102.188 84.205ZM125.984 45.5359C126.682 44.9478 127.667 44.4774 128.848 44.1893C135.716 42.5486 143.528 43.4131 148.773 46.3827L150.241 47.2235C155.467 50.2167 156.986 54.6858 154.112 58.6139C153.773 59.0666 153.29 59.4724 152.705 59.8076C152.161 60.1192 151.525 60.3662 150.837 60.5485C150.549 60.6191 150.519 60.8484 150.775 60.9484C151.422 61.2012 151.997 61.5188 152.459 61.901C160.907 68.8457 159.46 78.225 149.01 84.2112C138.559 90.1974 122.185 91.0266 110.062 86.187C109.394 85.9224 108.84 85.5931 108.399 85.2226C108.224 85.0756 107.824 85.0932 107.701 85.2579C107.372 85.6578 106.941 86.0223 106.407 86.3281C105.822 86.6633 105.124 86.9338 104.333 87.1279C97.4658 88.7685 89.6639 87.8982 84.4489 84.911L82.9809 84.0701C77.7557 81.0769 76.2364 76.6078 79.1108 72.6797C79.6035 71.9976 80.4351 71.439 81.4616 71.0391C81.6567 70.9627 81.7183 70.8215 81.5848 70.7098C76.9755 66.7288 77.1192 61.4599 82.1391 57.573C84.49 55.7442 87.6723 54.3682 91.3269 53.592C92.3021 53.3862 93.1747 53.0628 93.8933 52.6511C94.4921 52.3081 94.984 51.9038 95.3393 51.4553L95.5358 51.181C96.9011 49.0935 99.3033 47.2706 102.486 45.9181C109.271 43.0426 118.469 42.9603 125.419 45.6006C125.614 45.677 125.85 45.6476 125.984 45.5359ZM95.5049 65.547C94.5605 65.006 94.5605 64.124 95.5049 63.583L112.956 53.5863C113.901 53.0453 115.441 53.0453 116.385 53.5863C117.33 54.1273 117.33 55.0094 116.385 55.5504L98.9336 65.547C97.9892 66.088 96.4493 66.088 95.5049 65.547ZM116.745 64.2705C115.615 63.6237 115.615 62.5769 116.745 61.9301C117.874 61.2833 119.701 61.2833 120.83 61.9301C121.96 62.5769 121.96 63.6237 120.83 64.2705C119.701 64.9173 117.874 64.9173 116.745 64.2705ZM110.072 65.7526C108.943 66.3994 108.943 67.4461 110.072 68.093C111.201 68.7398 113.028 68.7398 114.158 68.093C115.287 67.4461 115.287 66.3994 114.158 65.7526C113.028 65.1057 111.201 65.1057 110.072 65.7526Z" fill="white"/>
<path d="M124.543 116.629C125.484 116.776 126.487 116.641 127.24 116.206C128.128 115.693 128.276 115.009 127.462 114.539C126.863 114.194 126.144 114.182 125.067 114.423L124.341 114.586C123.796 114.706 123.547 114.726 123.312 114.59C123.036 114.431 123.117 114.205 123.433 114.023C123.769 113.829 124.22 113.763 124.792 113.829L124.933 113.196C124.146 113.06 123.305 113.165 122.626 113.557C121.785 114.042 121.65 114.695 122.41 115.134C123.002 115.475 123.783 115.468 124.765 115.25L125.458 115.099C126.076 114.967 126.312 114.939 126.574 115.091C126.877 115.266 126.83 115.51 126.433 115.74C125.949 116.019 125.384 116.058 124.697 115.996L124.543 116.629ZM127.594 113.982C128.522 114.541 130.157 114.537 131.112 113.962C132.108 113.411 132.135 112.455 131.166 111.919C130.238 111.36 128.603 111.38 127.641 111.951C126.645 112.502 126.625 113.446 127.594 113.982ZM130.244 112.459C130.762 112.758 130.776 113.193 130.285 113.477C129.78 113.768 129.04 113.753 128.522 113.454C127.991 113.147 127.964 112.72 128.468 112.428C128.96 112.145 129.726 112.16 130.244 112.459ZM130.812 109.669C130.435 109.452 130.489 109.258 130.9 109.021C130.98 108.974 131.074 108.927 131.189 108.877L130.429 108.438C130.227 108.5 130.032 108.582 129.857 108.683C129.056 109.145 128.989 109.665 129.823 110.147L130.368 110.461L129.897 110.733L130.664 111.176L131.135 110.904L133.698 112.384L134.606 111.86L132.043 110.38L132.776 109.957L132.009 109.514L131.276 109.937L130.812 109.669ZM137.051 109.571C136.835 109.718 136.701 109.804 136.647 109.835C136.217 110.083 135.887 110.11 135.51 109.893L134.198 109.136L135.14 108.592L134.373 108.149L133.432 108.693L132.591 108.207L131.683 108.732L132.523 109.217L131.999 109.52L132.766 109.963L133.29 109.66L134.683 110.464C135.517 110.945 136.425 110.903 137.266 110.417C137.468 110.301 137.649 110.165 137.811 110.009L137.051 109.571ZM139.419 105.236L140.502 106.755L137.649 106.172L137.347 106.347L138.41 108.009L135.726 107.368L134.77 107.92L139.728 108.996L140.024 108.825L139.049 107.151L141.941 107.718L142.237 107.547L140.374 104.685L139.419 105.236ZM144.921 103.621C143.999 103.089 142.936 103.12 142.068 103.621C141.483 103.959 141.227 104.371 141.301 104.856L142.331 104.906C142.31 104.553 142.411 104.332 142.754 104.134C143.158 103.901 143.589 103.901 143.959 104.114L144.107 104.2L143.272 104.681C142.499 105.128 142.384 105.621 142.983 105.967C143.568 106.305 144.423 106.285 145.129 105.877C145.553 105.633 145.748 105.341 145.741 105.058L146.064 105.244L146.898 104.763L144.921 103.621ZM144.746 104.569C145.129 104.79 145.102 105.124 144.705 105.353C144.416 105.52 144.086 105.547 143.864 105.419C143.642 105.291 143.696 105.128 143.992 104.957L144.705 104.545L144.746 104.569ZM146.487 101.155C146.373 101.19 146.265 101.237 146.151 101.303C145.781 101.516 145.62 101.796 145.673 102.083L145.277 101.854L144.442 102.336L147.772 104.258L148.68 103.734L147.019 102.775C146.447 102.444 146.501 102.072 147.046 101.757L147.288 101.617L146.487 101.155ZM152.016 100.239C151.889 100.118 151.741 100.01 151.579 99.9164C150.711 99.4154 149.386 99.396 148.465 99.9281C147.482 100.472 147.482 101.396 148.465 101.94C149.406 102.507 151.021 102.499 152.03 101.893C152.521 101.61 152.797 101.256 152.864 100.837L151.868 100.697C151.801 100.992 151.606 101.237 151.276 101.427C150.792 101.707 150.214 101.769 149.682 101.586L152.016 100.239ZM149.043 101.217C148.734 100.922 148.781 100.592 149.164 100.371C149.561 100.142 150.14 100.111 150.557 100.344L149.043 101.217ZM159.837 97.2925L156.837 97.0129C157.079 96.5934 156.918 96.1584 156.353 95.8322C155.498 95.339 154.247 95.3933 153.319 95.9293L151.65 96.8925L156.09 99.4558L156.998 98.9315L155.431 98.0265L156.097 97.642L158.815 97.8828L159.837 97.2925ZM153.359 96.8303L154.119 96.3915C154.53 96.1546 155.048 96.1507 155.424 96.3682C155.808 96.5895 155.814 96.8808 155.391 97.1255L154.631 97.5644L153.359 96.8303ZM158.377 96.2089C159.306 96.7682 160.94 96.7643 161.896 96.1895C162.891 95.638 162.918 94.6826 161.949 94.1466C161.021 93.5874 159.386 93.6068 158.424 94.1777C157.429 94.7292 157.409 95.673 158.377 96.2089ZM161.028 94.6865C161.546 94.9855 161.559 95.4205 161.068 95.704C160.564 95.9953 159.824 95.9798 159.306 95.6807C158.774 95.3739 158.747 94.9467 159.252 94.6554C159.743 94.3719 160.51 94.3874 161.028 94.6865ZM166.183 91.71C165.181 91.1313 163.755 91.1002 162.827 91.6362C162.403 91.8809 162.208 92.1488 162.228 92.4401L160.19 91.2633L159.281 91.7877L164.327 94.7005L165.161 94.2189L164.75 93.982C165.302 94.0286 165.854 93.9121 166.311 93.648C167.239 93.112 167.186 92.2887 166.183 91.71ZM165.255 92.2382C165.813 92.5605 165.807 92.9839 165.315 93.2674C164.858 93.5315 164.158 93.5703 163.56 93.2246C162.968 92.8829 163.015 92.4751 163.479 92.2071C163.963 91.9275 164.71 91.9236 165.255 92.2382ZM166.701 91.4035C167.629 91.9628 169.264 91.9589 170.219 91.3841C171.214 90.8326 171.241 89.8772 170.273 89.3412C169.344 88.782 167.71 88.8014 166.748 89.3723C165.752 89.9238 165.732 90.8676 166.701 91.4035ZM169.351 89.8811C169.869 90.1801 169.882 90.6151 169.391 90.8986C168.887 91.1899 168.147 91.1744 167.629 90.8753C167.097 90.5685 167.071 90.1413 167.575 89.85C168.066 89.5665 168.833 89.582 169.351 89.8811ZM174.029 88.2212C173.814 88.3687 173.679 88.4542 173.625 88.4853C173.195 88.7338 172.865 88.761 172.488 88.5435L171.177 87.7862L172.118 87.2425L171.352 86.7997L170.41 87.3434L169.569 86.858L168.661 87.3823L169.502 87.8677L168.977 88.1707L169.744 88.6134L170.269 88.3105L171.661 89.1144C172.495 89.596 173.403 89.5533 174.244 89.0678C174.446 88.9513 174.628 88.8154 174.789 88.66L174.029 88.2212ZM177.394 87.1559L178.302 86.6316L176.735 85.7267L177.495 85.2878C178.423 84.7518 178.504 84.0217 177.657 83.5323C176.802 83.0391 175.551 83.0935 174.623 83.6294L172.955 84.5926L177.394 87.1559ZM175.941 85.2684L174.663 84.5305L175.423 84.0916C175.834 83.8547 176.352 83.8508 176.728 84.0683C177.112 84.2897 177.125 84.5848 176.701 84.8295L175.941 85.2684ZM181.328 84.8849L182.236 84.3605L177.191 81.4477L176.283 81.972L181.328 84.8849ZM183.948 81.0883C183.027 80.5562 181.964 80.5872 181.096 81.0883C180.511 81.4261 180.255 81.8378 180.329 82.3233L181.358 82.3738C181.338 82.0204 181.439 81.799 181.782 81.6009C182.186 81.3679 182.616 81.3679 182.986 81.5815L183.134 81.6669L182.3 82.1485C181.527 82.5952 181.412 83.0884 182.011 83.434C182.596 83.7719 183.451 83.7525 184.157 83.3447C184.581 83.1 184.776 82.8088 184.769 82.5252L185.092 82.7117L185.926 82.2301L183.948 81.0883ZM183.773 82.0359C184.157 82.2573 184.13 82.5913 183.733 82.8204C183.444 82.9874 183.114 83.0146 182.892 82.8864C182.67 82.7583 182.724 82.5952 183.02 82.4243L183.733 82.0126L183.773 82.0359ZM188.179 80.0516C187.964 80.1992 187.829 80.2846 187.775 80.3157C187.345 80.5642 187.015 80.5914 186.639 80.3739L185.327 79.6166L186.269 79.0729L185.502 78.6301L184.56 79.1739L183.719 78.6884L182.811 79.2127L183.652 79.6982L183.127 80.0011L183.894 80.4438L184.419 80.1409L185.811 80.9449C186.645 81.4264 187.553 81.3837 188.394 80.8982C188.596 80.7817 188.778 80.6458 188.939 80.4904L188.179 80.0516ZM186.867 77.3057C186.491 77.0882 186.544 76.894 186.955 76.6571C187.036 76.6105 187.13 76.5639 187.244 76.5134L186.484 76.0745C186.282 76.1367 186.087 76.2182 185.912 76.3192C185.112 76.7814 185.044 77.3018 185.879 77.7834L186.423 78.098L185.952 78.3699L186.719 78.8126L187.19 78.5407L189.753 80.0205L190.661 79.4961L188.098 78.0164L188.832 77.5931L188.065 77.1503L187.332 77.5737L186.867 77.3057ZM190.041 77.9279C190.969 78.4872 192.604 78.4833 193.559 77.9085C194.555 77.357 194.582 76.4016 193.613 75.8656C192.685 75.3063 191.05 75.3258 190.088 75.8967C189.093 76.4482 189.072 77.3919 190.041 77.9279ZM192.691 76.4055C193.209 76.7045 193.223 77.1395 192.732 77.423C192.227 77.7143 191.487 77.6987 190.969 77.3997C190.438 77.0929 190.411 76.6657 190.916 76.3744C191.407 76.0909 192.174 76.1064 192.691 76.4055ZM194.706 73.3163C194.591 73.3513 194.484 73.3979 194.369 73.4639C193.999 73.6775 193.838 73.9571 193.892 74.2445L193.495 74.0154L192.661 74.497L195.99 76.4194L196.898 75.8951L195.237 74.9358C194.665 74.6057 194.719 74.2329 195.264 73.9183L195.506 73.7785L194.706 73.3163ZM201.666 70.7581C200.859 70.292 199.85 70.261 199.069 70.7115C198.612 70.9756 198.403 71.3057 198.437 71.628C197.899 71.5737 197.408 71.6708 196.97 71.9232C196.587 72.1446 196.385 72.4164 196.399 72.6805L196.103 72.5097L195.269 72.9912L198.598 74.9137L199.506 74.3894L197.569 73.2709C197.172 73.0417 197.166 72.7582 197.535 72.5446C197.892 72.3388 198.376 72.3465 198.773 72.5757L200.711 73.6942L201.619 73.1699L199.661 72.0397C199.291 71.8261 199.291 71.5309 199.648 71.3251C200.004 71.1193 200.489 71.127 200.885 71.3562L202.823 72.4747L203.731 71.9504L201.666 70.7581Z" fill="white"/>
<defs>
<filter id="filter0_b" x="20.8566" y="10.9472" width="208.106" height="122.339" filterUnits="userSpaceOnUse" color-interpolation-filters="sRGB">
<feFlood flood-opacity="0" result="BackgroundImageFix"/>
<feGaussianBlur in="BackgroundImage" stdDeviation="1.29459"/>
<feComposite in2="SourceAlpha" operator="in" result="effect1_backgroundBlur"/>
<feBlend mode="normal" in="SourceGraphic" in2="effect1_backgroundBlur" result="shape"/>
</filter>
<linearGradient id="paint0_linear" x1="2.07348e-05" y1="116.513" x2="116.513" y2="116.513" gradientUnits="userSpaceOnUse">
<stop stop-color="#814EC4"/>
<stop offset="1" stop-color="#561FAA"/>
</linearGradient>
</defs>
</svg>
