<svg width="282" height="258" viewBox="0 0 282 258" fill="none" xmlns="http://www.w3.org/2000/svg">
<path fill-rule="evenodd" clip-rule="evenodd" d="M275.374 112.719H279.784C280.848 112.719 281.714 111.853 281.714 110.789V106.378C281.714 105.314 280.848 104.448 279.784 104.448H275.374C274.309 104.448 273.444 105.314 273.444 106.378V110.789C273.444 111.853 274.309 112.719 275.374 112.719Z" fill="white"/>
<path d="M263.225 85.003H216.769C215.109 85.003 213.748 83.6412 213.748 81.9817V3.02133C213.748 1.36186 215.109 0 216.769 0H263.225C264.885 0 266.246 1.36186 266.246 3.02133V81.9817C266.246 83.6412 264.885 85.003 263.225 85.003Z" fill="url(#paint0_linear)"/>
<path d="M260.844 79.1318H219.917C219.655 79.1318 219.439 78.9153 219.439 78.6538V72.0429C219.439 71.7814 219.655 71.5649 219.917 71.5649H260.844C261.106 71.5649 261.322 71.7814 261.322 72.0429V78.6538C261.322 78.9153 261.106 79.1318 260.844 79.1318Z" fill="#43E8E1"/>
<path d="M259.419 32.0931V30.7583L220.422 30.7583V32.0931L259.419 32.0931Z" fill="white"/>
<path d="M259.423 36.4715V35.1367L220.426 35.1367V36.4715L259.423 36.4715Z" fill="white"/>
<path d="M243.734 40.6473V39.3125L220.42 39.3125V40.6473L243.734 40.6473Z" fill="white"/>
<path d="M237.729 47.8364H224.209V51.8408H237.729V47.8364Z" fill="white"/>
<path d="M223.208 47.8364H219.087V51.8408H223.208V47.8364Z" fill="white"/>
<path d="M237.729 55.8447H224.209V59.8491H237.729V55.8447Z" fill="white"/>
<path d="M223.208 55.8447H219.087V59.8491H223.208V55.8447Z" fill="white"/>
<path d="M260.42 55.8447H246.901V59.8491H260.42V55.8447Z" fill="white"/>
<path d="M245.909 55.8447H241.787V59.8491H245.909V55.8447Z" fill="white"/>
<path d="M260.42 47.8359H246.901V51.8403H260.42V47.8359Z" fill="white"/>
<path d="M245.909 47.8364H241.787V51.8408H245.909V47.8364Z" fill="white"/>
<path d="M246.269 18.4414H234.652C234.508 18.4414 234.4 18.5677 234.427 18.712C234.941 21.58 237.439 23.7625 240.461 23.7625C243.482 23.7625 245.98 21.58 246.494 18.712C246.512 18.5677 246.404 18.4414 246.269 18.4414Z" fill="white"/>
<path d="M243.494 10.7479H237.424C237.09 10.7479 236.829 10.4773 236.829 10.1526C236.829 9.82795 237.099 9.55739 237.424 9.55739H243.494C243.827 9.55739 244.089 9.82795 244.089 10.1526C244.089 10.4773 243.827 10.7479 243.494 10.7479ZM241.618 14.166C241.221 14.166 240.905 13.8504 240.905 13.4535C240.905 13.0657 241.221 12.7411 241.618 12.7411C242.006 12.7411 242.33 13.0567 242.33 13.4535C242.33 13.8504 242.015 14.166 241.618 14.166ZM239.3 14.166C238.903 14.166 238.587 13.8504 238.587 13.4535C238.587 13.0657 238.903 12.7411 239.3 12.7411C239.697 12.7411 240.012 13.0567 240.012 13.4535C240.012 13.8504 239.688 14.166 239.3 14.166ZM245.171 13.3092C246.281 12.6058 246.975 11.3071 246.804 9.86403C246.623 8.29474 245.37 6.99602 243.8 6.76153C243.07 6.65331 242.366 6.76153 241.762 7.04112C240.932 7.41991 239.985 7.41991 239.156 7.04112C238.551 6.76153 237.857 6.65331 237.126 6.76153C235.629 6.97799 234.448 8.09633 234.159 9.58445C233.853 11.1447 234.565 12.5607 235.747 13.3183C235.873 13.3994 235.891 13.5437 235.801 13.661C234.989 14.608 234.466 15.8075 234.349 17.1333C234.34 17.2685 234.439 17.3858 234.574 17.3858H246.326C246.461 17.3858 246.56 17.2685 246.551 17.1333C246.443 15.8165 245.92 14.608 245.108 13.661C245.018 13.5347 245.045 13.3814 245.171 13.3092Z" fill="white"/>
<path d="M232.32 10.7281C231.184 11.1881 230.381 12.2974 230.381 13.5962V14.1102C230.381 15.409 231.184 16.5183 232.32 16.9782C232.474 17.0414 232.636 16.9331 232.636 16.7708V10.9446C232.636 10.7732 232.474 10.665 232.32 10.7281Z" fill="white"/>
<path d="M248.592 10.7272C248.439 10.6641 248.276 10.7723 248.276 10.9347V16.7609C248.276 16.9232 248.439 17.0314 248.592 16.9683C249.728 16.4993 250.531 15.399 250.531 14.1003V13.5952C250.531 12.2965 249.728 11.1872 248.592 10.7272Z" fill="white"/>
<path d="M138.728 249.842C200.667 249.842 250.878 199.63 250.878 137.692C250.878 75.7532 200.667 25.542 138.728 25.542C76.7898 25.542 26.5786 75.7532 26.5786 137.692C26.5786 199.63 76.7898 249.842 138.728 249.842Z" fill="url(#paint1_linear)"/>
<path d="M139.63 228.962C189.983 228.962 230.802 188.143 230.802 137.79C230.802 87.4372 189.983 46.6182 139.63 46.6182C89.2776 46.6182 48.4585 87.4372 48.4585 137.79C48.4585 188.143 89.2776 228.962 139.63 228.962Z" fill="url(#paint2_linear)"/>
<path d="M117.245 87.4832C117.245 87.4832 105.602 89.0074 103.347 99.5053C101.093 110.003 101.913 107.523 95.5189 112.862C89.1245 118.211 97.2145 124.253 92.1369 129.592C89.5484 132.325 88.3219 134.553 88.0784 137.123C87.6454 141.651 90.7299 145.691 95.0409 146.936C97.9811 147.783 100.389 150.615 102.139 154.457C105.611 162.096 118.039 158.777 118.039 158.777C118.039 158.777 129.773 165.722 136.961 160.563C144.149 155.413 133.317 84.4077 133.317 84.4077L117.245 87.4832Z" fill="#162A46"/>
<path d="M156.081 87.7175C156.081 87.7175 167.724 89.2417 169.979 99.7397C172.234 110.238 171.413 107.757 177.807 113.097C184.202 118.445 176.112 124.488 181.189 129.827C183.778 132.559 185.004 134.787 185.248 137.357C185.681 141.885 182.596 145.925 178.285 147.17C175.345 148.018 172.937 150.85 171.187 154.692C167.715 162.331 155.287 159.012 155.287 159.012C155.287 159.012 143.554 165.956 136.366 160.798C129.177 155.648 140.009 84.6421 140.009 84.6421L156.081 87.7175Z" fill="#162A46"/>
<path d="M156.82 176.21C150.399 172.648 152.149 155.44 152.149 155.44L142.525 156.071V155.44L141.497 155.756L140.469 155.44V156.071L130.846 155.44C130.846 155.44 132.596 172.648 126.174 176.21C120.817 179.178 93.5078 180.918 86.9691 204.485C97.0432 212.692 109.038 218.563 122.152 221.305H140.46H142.516H155.909C170.728 218.211 184.112 211.114 194.916 201.184C186.871 180.738 161.916 179.033 156.82 176.21Z" fill="url(#paint3_linear)"/>
<path opacity="0.3" d="M128.961 173.091C136.979 171.963 144.988 170.791 152.987 169.591C151.86 163.819 152.582 157.217 152.582 157.217L142.544 157.831V157.217L141.47 157.524L140.397 157.217V157.831L130.359 157.217C130.368 157.208 131.423 166.931 128.961 173.091Z" fill="url(#paint4_linear)"/>
<path d="M139.864 225.472C161.624 225.472 181.492 216.538 196.612 201.843C189.917 186.677 175.259 181.464 165.692 178.574C162.15 188.754 152.71 196.035 141.621 196.035C130.533 196.035 121.093 188.754 117.55 178.574C107.494 181.605 91.8308 187.215 85.6794 204.223C100.428 217.501 119.299 225.472 139.864 225.472Z" fill="#3C3189"/>
<path d="M156.216 95.375C156.216 95.375 151.463 84.4351 134.336 84.4351C117.209 84.4351 111.906 101.228 111.906 101.228L136.826 114.802L156.216 95.375Z" fill="#162A46"/>
<path d="M118.634 134.264C120.24 137.845 121.602 143.148 116.704 144.898C113.286 146.115 109.255 141.561 107.658 137.989C106.053 134.409 107.036 131.297 110.427 130.025C113.827 128.736 117.038 130.684 118.634 134.264Z" fill="url(#paint5_linear)"/>
<path d="M158.877 132.488C157.271 136.068 157.416 141.84 160.807 143.121C164.198 144.402 168.256 139.784 169.853 136.213C171.458 132.632 170.475 129.521 167.084 128.249C163.693 126.968 160.482 128.907 158.877 132.488Z" fill="url(#paint6_linear)"/>
<path d="M170.673 120.474C170.673 135.644 158.011 147.946 142.39 147.946C126.769 147.946 112.447 135.031 112.447 119.861C112.447 104.691 126.769 93.0117 142.39 93.0117C158.011 93.0027 170.673 105.304 170.673 120.474Z" fill="#162A46"/>
<path d="M142.742 96.2134C129.511 96.2134 117.832 106.45 117.832 119.067L118.589 134.219C118.589 134.219 118.86 155.693 139.252 162.232C141.506 162.953 143.977 162.953 146.232 162.232C166.615 155.702 166.894 134.219 166.894 134.219L167.652 119.067C167.652 106.45 155.973 96.2134 142.742 96.2134Z" fill="url(#paint7_linear)"/>
<path d="M156.92 95.3742C156.92 95.3742 155.756 107.351 142.255 109.245C128.492 111.184 131.468 119.22 114.756 117.29C114.756 117.29 108.714 108.542 117.67 99.5049C123.595 93.5253 135.184 88.5379 143.482 89.3766C146.277 89.6652 152.906 94.5625 156.92 95.3742Z" fill="#162A46"/>
<path d="M155.161 96.2134C155.161 96.2134 146.593 104.835 170.349 120.465C170.349 120.465 171.386 115.55 168.815 110.526C166.245 105.503 155.161 96.2134 155.161 96.2134Z" fill="#162A46"/>
<path d="M137.358 145.447H151.986C151.986 145.447 151.49 150.155 144.672 150.155C138.629 150.146 137.358 145.447 137.358 145.447Z" fill="white"/>
<path d="M142.643 139.071L149.218 137.871L145.457 119.734" fill="#CA927B"/>
<path d="M142.643 139.071C143.13 138.611 143.635 138.295 144.149 138.024C144.672 137.763 145.195 137.537 145.727 137.384C146.801 137.068 147.901 136.897 149.046 136.951L148.289 138.07C147.738 135.03 147.233 131.982 146.746 128.933C146.277 125.876 145.808 122.819 145.448 119.743C146.341 122.71 147.125 125.705 147.919 128.69C148.685 131.684 149.434 134.678 150.138 137.691L150.309 138.412L149.38 138.809C148.334 139.26 147.242 139.495 146.124 139.576C145.565 139.621 144.997 139.594 144.42 139.531C143.842 139.44 143.256 139.323 142.643 139.071Z" fill="#8E625A"/>
<path d="M160.726 123.234C160.284 124.416 159.49 125.426 158.498 126.237C157.515 127.049 156.234 127.653 154.818 127.735C153.42 127.825 151.941 127.329 150.985 126.409C150.426 126.03 150.11 125.435 149.713 124.948C149.407 124.389 149.145 123.811 148.965 123.225C149.524 123.55 149.975 123.92 150.453 124.244L151.174 124.677C151.292 124.74 151.4 124.83 151.517 124.894L151.887 125.047C152.825 125.534 153.763 125.696 154.71 125.651C155.657 125.606 156.64 125.299 157.641 124.867C158.633 124.407 159.634 123.847 160.726 123.234Z" fill="#352C38"/>
<path d="M139.946 123.307C139.297 124.741 138.205 125.913 136.916 126.842C135.617 127.753 134.012 128.393 132.298 128.466C131.441 128.529 130.584 128.357 129.764 128.15C129.367 127.988 128.97 127.834 128.591 127.654C128.204 127.491 127.888 127.203 127.545 126.977C126.842 126.535 126.364 125.868 125.85 125.273C125.408 124.623 125.047 123.911 124.758 123.208C125.48 123.568 126.057 124.01 126.688 124.362C127.347 124.66 127.897 125.074 128.546 125.264C129.755 125.805 130.981 126.003 132.208 125.949C133.434 125.904 134.697 125.589 135.987 125.111C137.258 124.614 138.557 124.001 139.946 123.307Z" fill="#352C38"/>
<path d="M71.9257 97.8638H25.4694C23.8099 97.8638 22.4481 96.502 22.4481 94.8425V15.8822C22.4481 14.2227 23.8099 12.8608 25.4694 12.8608H71.9257C73.5852 12.8608 74.9471 14.2227 74.9471 15.8822V94.8425C74.9471 96.502 73.5852 97.8638 71.9257 97.8638Z" fill="url(#paint8_linear)"/>
<path d="M69.5449 91.9926H28.6172C28.3556 91.9926 28.1392 91.7762 28.1392 91.5146V84.9038C28.1392 84.6422 28.3556 84.4258 28.6172 84.4258H69.5449C69.8064 84.4258 70.0229 84.6422 70.0229 84.9038V91.5146C70.0229 91.7762 69.8064 91.9926 69.5449 91.9926Z" fill="#43E8E1"/>
<path d="M68.1196 44.9539V43.6191L29.122 43.6191V44.9539L68.1196 44.9539Z" fill="white"/>
<path d="M68.124 49.3323V47.9976L29.1264 47.9976V49.3323L68.124 49.3323Z" fill="white"/>
<path d="M52.4347 53.5077V52.1729L29.1209 52.1729V53.5077L52.4347 53.5077Z" fill="white"/>
<path d="M46.4294 60.6968H32.91V64.7012H46.4294V60.6968Z" fill="white"/>
<path d="M31.9089 60.6968H27.7872V64.7012H31.9089V60.6968Z" fill="white"/>
<path d="M46.4292 68.7056H32.9099V72.71H46.4292V68.7056Z" fill="white"/>
<path d="M31.9089 68.7061H27.7872V72.7104H31.9089V68.7061Z" fill="white"/>
<path d="M69.1209 68.7056H55.6016V72.71H69.1209V68.7056Z" fill="white"/>
<path d="M54.6094 68.7056H50.4878V72.71H54.6094V68.7056Z" fill="white"/>
<path d="M69.1209 60.6973H55.6016V64.7016H69.1209V60.6973Z" fill="white"/>
<path d="M54.6094 60.6978H50.4878V64.7021H54.6094V60.6978Z" fill="white"/>
<path d="M54.9691 31.3027H43.3528C43.2085 31.3027 43.1003 31.429 43.1273 31.5733C43.6414 34.4413 46.1396 36.6239 49.161 36.6239C52.1823 36.6239 54.6805 34.4413 55.1946 31.5733C55.2126 31.429 55.1044 31.3027 54.9691 31.3027Z" fill="white"/>
<path d="M52.1942 23.6092H46.1245C45.7908 23.6092 45.5292 23.3386 45.5292 23.014C45.5292 22.6893 45.7998 22.4187 46.1245 22.4187H52.1942C52.5279 22.4187 52.7895 22.6893 52.7895 23.014C52.7895 23.3386 52.5279 23.6092 52.1942 23.6092ZM50.3183 27.0274C49.9214 27.0274 49.6058 26.7117 49.6058 26.3149C49.6058 25.9271 49.9214 25.6024 50.3183 25.6024C50.7061 25.6024 51.0308 25.918 51.0308 26.3149C51.0308 26.7117 50.7151 27.0274 50.3183 27.0274ZM48.0004 27.0274C47.6036 27.0274 47.2879 26.7117 47.2879 26.3149C47.2879 25.9271 47.6036 25.6024 48.0004 25.6024C48.3973 25.6024 48.7129 25.918 48.7129 26.3149C48.7129 26.7117 48.3882 27.0274 48.0004 27.0274ZM53.8717 26.1706C54.981 25.4671 55.6755 24.1684 55.5041 22.7254C55.3237 21.1561 54.0701 19.8574 52.5008 19.6229C51.7703 19.5146 51.0668 19.6229 50.4626 19.9024C49.6328 20.2812 48.6859 20.2812 47.8561 19.9024C47.2519 19.6229 46.5574 19.5146 45.8269 19.6229C44.3297 19.8393 43.1483 20.9577 42.8596 22.4458C42.553 24.006 43.2655 25.422 44.447 26.1796C44.5732 26.2608 44.5913 26.4051 44.5011 26.5223C43.6894 27.4693 43.1663 28.6688 43.049 29.9946C43.04 30.1299 43.1392 30.2471 43.2745 30.2471H55.0261C55.1614 30.2471 55.2606 30.1299 55.2516 29.9946C55.1434 28.6778 54.6203 27.4693 53.8086 26.5223C53.7184 26.396 53.7454 26.2427 53.8717 26.1706Z" fill="white"/>
<path d="M41.0209 23.5895C39.8845 24.0494 39.0818 25.1588 39.0818 26.4575V26.9716C39.0818 28.2703 39.8845 29.3796 41.0209 29.8396C41.1742 29.9027 41.3365 29.7945 41.3365 29.6321V23.8059C41.3365 23.6346 41.1742 23.5263 41.0209 23.5895Z" fill="white"/>
<path d="M57.2925 23.5886C57.1392 23.5254 56.9768 23.6337 56.9768 23.796V29.6222C56.9768 29.7845 57.1392 29.8928 57.2925 29.8296C58.4289 29.3607 59.2315 28.2604 59.2315 26.9616V26.4566C59.2315 25.1579 58.4289 24.0485 57.2925 23.5886Z" fill="white"/>
<path d="M74.2616 33.2796C82.9535 33.2796 89.9996 26.2335 89.9996 17.5417C89.9996 8.84983 82.9535 1.80371 74.2616 1.80371C65.5698 1.80371 58.5237 8.84983 58.5237 17.5417C58.5237 26.2335 65.5698 33.2796 74.2616 33.2796Z" fill="#43E8E1"/>
<path d="M82.631 8.95557L86.428 12.7525L75.0371 24.1343L71.2402 27.9313L67.4523 24.1343L61.7523 18.4434L65.5493 14.6465L71.2402 20.3374L82.631 8.95557Z" fill="white"/>
<path d="M181.325 251.951C181.568 250.905 181.703 249.805 181.703 248.678C181.703 240.723 175.255 234.274 167.3 234.274C165.163 234.274 163.152 234.752 161.33 235.582C160.743 230.279 156.252 226.148 150.796 226.148C146.295 226.148 142.462 228.953 140.92 232.913C139.982 232.678 138.999 232.543 137.989 232.543C133.227 232.543 129.114 235.276 127.103 239.262C126.67 239.226 126.228 239.199 125.786 239.199C118.391 239.199 112.303 244.781 111.482 251.961H181.325V251.951Z" fill="url(#paint9_linear)"/>
<path d="M107.099 242.211C107.153 241.643 107.189 241.057 107.189 240.47C107.189 231.172 99.7218 223.632 90.4504 223.506C87.9973 219.871 84.1913 217.229 79.7991 216.318C78.9423 207.741 71.7092 201.049 62.9067 201.049C55.2677 201.049 48.8192 206.09 46.6818 213.026C45.2207 212.62 43.6965 212.386 42.1092 212.386C34.3529 212.386 27.8323 217.589 25.794 224.687C23.2236 223.118 20.2113 222.198 16.9826 222.198C7.60294 222.198 0 229.801 0 239.181C0 240.218 0.108233 241.237 0.288611 242.22H107.099V242.211Z" fill="url(#paint10_linear)"/>
<path d="M160.455 257.39C160.554 256.786 160.626 256.172 160.626 255.55C160.626 249.543 155.756 244.673 149.749 244.673H142.534C142.652 243.88 142.733 243.068 142.733 242.238C142.733 233.941 136.51 227.105 128.483 226.103C125.741 216.056 116.56 208.67 105.647 208.67C94.4277 208.67 85.048 216.471 82.6039 226.942C80.8813 226.32 79.0234 225.959 77.0843 225.959C68.1015 225.959 60.8142 233.246 60.8142 242.229C60.8142 243.059 60.8954 243.871 61.0127 244.664H54.5732C48.5666 244.664 43.6964 249.535 43.6964 255.541C43.6964 256.172 43.7595 256.786 43.8678 257.381H160.455V257.39Z" fill="url(#paint11_linear)"/>
<path d="M255.189 167.697L216.516 180.27C214.812 180.82 212.99 179.891 212.431 178.186L205.144 155.765C204.593 154.061 205.522 152.239 207.227 151.68L245.9 139.108C247.604 138.557 249.426 139.486 249.985 141.191L257.273 163.612C257.823 165.316 256.894 167.138 255.189 167.697Z" fill="white"/>
<path d="M250.741 143.61L205.901 158.185L207.791 164L252.631 149.425L250.741 143.61Z" fill="#424243"/>
<path d="M252.258 162.448C252.7 163.792 251.961 165.244 250.608 165.677C249.264 166.119 247.812 165.379 247.379 164.026C246.937 162.683 247.677 161.23 249.029 160.798C250.373 160.365 251.816 161.104 252.258 162.448Z" fill="#424243"/>
<path fill-rule="evenodd" clip-rule="evenodd" d="M198.884 112.719H203.295C204.359 112.719 205.225 111.853 205.225 110.789V106.378C205.225 105.314 204.359 104.448 203.295 104.448H198.884C197.82 104.448 196.954 105.314 196.954 106.378V110.789C196.954 111.853 197.82 112.719 198.884 112.719Z" fill="#43E8E1"/>
<path fill-rule="evenodd" clip-rule="evenodd" d="M214.181 112.719H218.591C219.655 112.719 220.521 111.853 220.521 110.789V106.378C220.521 105.314 219.655 104.448 218.591 104.448H214.181C213.116 104.448 212.251 105.314 212.251 106.378V110.789C212.251 111.853 213.116 112.719 214.181 112.719Z" fill="white"/>
<path fill-rule="evenodd" clip-rule="evenodd" d="M229.477 112.719H233.887C234.951 112.719 235.817 111.853 235.817 110.789V106.378C235.817 105.314 234.951 104.448 233.887 104.448H229.477C228.412 104.448 227.547 105.314 227.547 106.378V110.789C227.547 111.853 228.421 112.719 229.477 112.719Z" fill="#43E8E1"/>
<path fill-rule="evenodd" clip-rule="evenodd" d="M244.773 112.719H249.183C250.247 112.719 251.113 111.853 251.113 110.789V106.378C251.113 105.314 250.247 104.448 249.183 104.448H244.773C243.708 104.448 242.843 105.314 242.843 106.378V110.789C242.843 111.853 243.717 112.719 244.773 112.719Z" fill="white"/>
<path fill-rule="evenodd" clip-rule="evenodd" d="M260.069 112.719H264.479C265.543 112.719 266.409 111.853 266.409 110.789V106.378C266.409 105.314 265.543 104.448 264.479 104.448H260.069C259.004 104.448 258.139 105.314 258.139 106.378V110.789C258.148 111.853 259.013 112.719 260.069 112.719Z" fill="white"/>
<path fill-rule="evenodd" clip-rule="evenodd" d="M230.036 96.0423H234.446C235.51 96.0423 236.376 95.1765 236.376 94.1122V89.702C236.376 88.6378 235.51 87.772 234.446 87.772H230.036C228.971 87.772 228.106 88.6378 228.106 89.702V94.1122C228.106 95.1765 228.971 96.0423 230.036 96.0423Z" fill="white"/>
<path fill-rule="evenodd" clip-rule="evenodd" d="M245.332 96.0423H249.742C250.806 96.0423 251.672 95.1765 251.672 94.1122V89.702C251.672 88.6378 250.806 87.772 249.742 87.772H245.332C244.267 87.772 243.402 88.6378 243.402 89.702V94.1122C243.402 95.1765 244.267 96.0423 245.332 96.0423Z" fill="#43E8E1"/>
<path fill-rule="evenodd" clip-rule="evenodd" d="M260.628 96.0423H265.038C266.102 96.0423 266.968 95.1765 266.968 94.1122V89.702C266.968 88.6378 266.102 87.772 265.038 87.772H260.628C259.564 87.772 258.698 88.6378 258.698 89.702V94.1122C258.698 95.1765 259.564 96.0423 260.628 96.0423Z" fill="white"/>
<path fill-rule="evenodd" clip-rule="evenodd" d="M244.773 130.638H249.183C250.247 130.638 251.113 129.773 251.113 128.708V124.298C251.113 123.234 250.247 122.368 249.183 122.368H244.773C243.708 122.368 242.843 123.234 242.843 124.298V128.708C242.843 129.773 243.717 130.638 244.773 130.638Z" fill="white"/>
<path fill-rule="evenodd" clip-rule="evenodd" d="M29.3293 159.58H33.7396C34.8038 159.58 35.6696 158.714 35.6696 157.65V153.24C35.6696 152.175 34.8038 151.31 33.7396 151.31H29.3293C28.2651 151.31 27.3993 152.175 27.3993 153.24V157.65C27.3993 158.714 28.2651 159.58 29.3293 159.58Z" fill="white"/>
<path fill-rule="evenodd" clip-rule="evenodd" d="M44.6255 159.58H49.0357C50.0999 159.58 50.9658 158.714 50.9658 157.65V153.24C50.9658 152.175 50.0999 151.31 49.0357 151.31H44.6255C43.5613 151.31 42.6954 152.175 42.6954 153.24V157.65C42.6954 158.714 43.5703 159.58 44.6255 159.58Z" fill="#43E8E1"/>
<path fill-rule="evenodd" clip-rule="evenodd" d="M59.9215 159.58H64.3317C65.396 159.58 66.2618 158.714 66.2618 157.65V153.24C66.2618 152.175 65.396 151.31 64.3317 151.31H59.9215C58.8573 151.31 57.9915 152.175 57.9915 153.24V157.65C57.9915 158.714 58.8663 159.58 59.9215 159.58Z" fill="white"/>
<path fill-rule="evenodd" clip-rule="evenodd" d="M75.2175 159.58H79.6278C80.692 159.58 81.5578 158.714 81.5578 157.65V153.24C81.5578 152.175 80.692 151.31 79.6278 151.31H75.2175C74.1533 151.31 73.2875 152.175 73.2875 153.24V157.65C73.2965 158.714 74.1623 159.58 75.2175 159.58Z" fill="#43E8E1"/>
<path fill-rule="evenodd" clip-rule="evenodd" d="M90.5226 177.492H94.9328C95.997 177.492 96.8628 176.626 96.8628 175.561V171.151C96.8628 170.087 95.997 169.221 94.9328 169.221H90.5226C89.4583 169.221 88.5925 170.087 88.5925 171.151V175.561C88.5925 176.626 89.4583 177.492 90.5226 177.492Z" fill="white"/>
<path fill-rule="evenodd" clip-rule="evenodd" d="M260.069 130.638H264.479C265.543 130.638 266.409 129.773 266.409 128.708V124.298C266.409 123.234 265.543 122.368 264.479 122.368H260.069C259.004 122.368 258.139 123.234 258.139 124.298V128.708C258.148 129.773 259.013 130.638 260.069 130.638Z" fill="#43E8E1"/>
<defs>
<linearGradient id="paint0_linear" x1="199.364" y1="75.9996" x2="260.377" y2="89.5274" gradientUnits="userSpaceOnUse">
<stop stop-color="#26259E"/>
<stop offset="1" stop-color="#5F50CC"/>
</linearGradient>
<linearGradient id="paint1_linear" x1="17.7414" y1="122.078" x2="160.345" y2="279.267" gradientUnits="userSpaceOnUse">
<stop stop-color="#42B2F1"/>
<stop offset="1" stop-color="#2A54D3"/>
</linearGradient>
<linearGradient id="paint2_linear" x1="-1.49933" y1="209.648" x2="195.45" y2="280.353" gradientUnits="userSpaceOnUse">
<stop stop-color="#26259E"/>
<stop offset="1" stop-color="#5F50CC"/>
</linearGradient>
<linearGradient id="paint3_linear" x1="140.943" y1="155.44" x2="140.943" y2="221.305" gradientUnits="userSpaceOnUse">
<stop stop-color="#FFDBD0"/>
<stop offset="1" stop-color="#FF9979"/>
</linearGradient>
<linearGradient id="paint4_linear" x1="140.974" y1="157.217" x2="140.974" y2="173.091" gradientUnits="userSpaceOnUse">
<stop stop-color="#FFDBD0"/>
<stop offset="1" stop-color="#FF9979"/>
</linearGradient>
<linearGradient id="paint5_linear" x1="113.509" y1="129.626" x2="113.509" y2="145.099" gradientUnits="userSpaceOnUse">
<stop stop-color="#FFDBD0"/>
<stop offset="1" stop-color="#FF9979"/>
</linearGradient>
<linearGradient id="paint6_linear" x1="164.245" y1="127.854" x2="164.245" y2="143.34" gradientUnits="userSpaceOnUse">
<stop stop-color="#FFDBD0"/>
<stop offset="1" stop-color="#FF9979"/>
</linearGradient>
<linearGradient id="paint7_linear" x1="142.742" y1="96.2134" x2="142.742" y2="162.773" gradientUnits="userSpaceOnUse">
<stop stop-color="#FFDBD0"/>
<stop offset="1" stop-color="#FF9979"/>
</linearGradient>
<linearGradient id="paint8_linear" x1="8.06468" y1="88.8604" x2="69.0773" y2="102.388" gradientUnits="userSpaceOnUse">
<stop stop-color="#26259E"/>
<stop offset="1" stop-color="#5F50CC"/>
</linearGradient>
<linearGradient id="paint9_linear" x1="146.588" y1="251.955" x2="146.588" y2="226.154" gradientUnits="userSpaceOnUse">
<stop stop-color="#9DD3F8" stop-opacity="0"/>
<stop offset="1" stop-color="#91B8F3"/>
</linearGradient>
<linearGradient id="paint10_linear" x1="53.5919" y1="242.207" x2="53.5919" y2="201.038" gradientUnits="userSpaceOnUse">
<stop stop-color="#9DD3F8" stop-opacity="0"/>
<stop offset="1" stop-color="#91B8F3"/>
</linearGradient>
<linearGradient id="paint11_linear" x1="102.161" y1="257.394" x2="102.161" y2="208.675" gradientUnits="userSpaceOnUse">
<stop stop-color="white" stop-opacity="0"/>
<stop offset="0.4042" stop-color="white" stop-opacity="0.8"/>
<stop offset="0.7473" stop-color="white"/>
</linearGradient>
</defs>
</svg>
