<svg width="1440" height="1038" viewBox="0 0 1440 1038" fill="none" xmlns="http://www.w3.org/2000/svg">
<g opacity="0.15">
<path d="M-187 653L478.974 1037.5" stroke="#BABDC2"/>
<path d="M-45.8378 571.5L620.136 956" stroke="#BABDC2"/>
<path d="M236.486 408.5L902.46 793" stroke="#BABDC2"/>
<path d="M518.811 245.5L1184.78 630" stroke="#BABDC2"/>
<path d="M801.135 82.5L1467.11 467" stroke="#BABDC2"/>
<path d="M95.3243 490L761.298 874.5" stroke="#BABDC2"/>
<path d="M377.649 327L1043.62 711.5" stroke="#BABDC2"/>
<path d="M659.973 164L1325.95 548.5" stroke="#BABDC2"/>
<path d="M942.297 1L1608.27 385.5" stroke="#BABDC2"/>
<path d="M213.97 883.5L1342.4 232" stroke="#BABDC2"/>
<path d="M-53.6321 730L1074.8 78.5" stroke="#BABDC2"/>
<path d="M347.338 960.5L1475.77 309" stroke="#BABDC2"/>
<path d="M480.706 1037.5L1609.14 386" stroke="#BABDC2"/>
<path d="M80.6019 806.5L1209.03 155" stroke="#BABDC2"/>
<path d="M-187 653L941.431 1.50003" stroke="#BABDC2"/>
</g>
</svg>
