<svg width="51" height="32" viewBox="0 0 51 32" fill="none" xmlns="http://www.w3.org/2000/svg">
<path d="M45.9636 19.3469C47.1121 17.425 47.8125 15.2031 47.8125 12.8C47.8125 5.7312 42.1037 0 35.0625 0C29.2104 0 24.3327 3.9812 22.8324 9.3749C21.0923 7.5483 18.6531 6.4 15.9375 6.4C10.6569 6.4 6.375 10.6983 6.375 16C6.375 17.15 6.61028 18.2391 6.97883 19.2625C6.77842 19.2438 6.58159 19.2 6.375 19.2C2.85441 19.2 0 22.0656 0 25.6C0 29.1344 2.85441 32 6.375 32H44.625C48.1456 32 51 29.1344 51 25.6C51 22.5281 48.8397 19.9656 45.9636 19.3469Z" fill="white"/>
</svg>
