<svg width="1440" height="570" viewBox="0 0 1440 570" fill="none" xmlns="http://www.w3.org/2000/svg">
<path style="mix-blend-mode:soft-light" d="M1506.32 172.501C1506.32 172.501 1123.42 484.868 644.632 347.096C165.84 209.324 -105 362.618 -105 362.618V570H1506.32V172.501Z" fill="url(#paint0_linear)"/>
<path style="mix-blend-mode:soft-light" d="M-105 118.5C-105 118.5 277.896 445.14 756.688 243.66C1235.48 42.1811 1506.32 266.362 1506.32 266.362V570H-105V118.5Z" fill="url(#paint1_linear)"/>
<path style="mix-blend-mode:multiply" d="M1506.32 175.555C1506.32 175.555 1008.28 -187.902 722.16 132.989C441.33 447.977 -105 477.915 -105 477.915V570H1506.32V175.555Z" fill="url(#paint2_linear)"/>
<g style="mix-blend-mode:overlay" opacity="0.2">
<path d="M-105 283.389C-105 283.389 353.858 518.922 544.915 382.71C735.971 246.499 1197.09 107.45 1506.32 365.684V570.001H-105V283.389Z" fill="url(#paint3_linear)" style="mix-blend-mode:soft-light"/>
</g>
<defs>
<linearGradient id="paint0_linear" x1="709.753" y1="15.3361" x2="672.892" y2="1217.16" gradientUnits="userSpaceOnUse">
<stop stop-color="white"/>
<stop offset="0.65" stop-color="#DEDEDE"/>
<stop offset="1" stop-color="#D1D1D1"/>
</linearGradient>
<linearGradient id="paint1_linear" x1="554705" y1="163837" x2="559972" y2="617512" gradientUnits="userSpaceOnUse">
<stop stop-color="white"/>
<stop offset="0.65" stop-color="#DEDEDE"/>
<stop offset="1" stop-color="#D1D1D1"/>
</linearGradient>
<linearGradient id="paint2_linear" x1="854362" y1="189004" x2="607247" y2="777922" gradientUnits="userSpaceOnUse">
<stop stop-color="white"/>
<stop offset="0.65" stop-color="#DEDEDE"/>
<stop offset="1" stop-color="#D1D1D1"/>
</linearGradient>
<linearGradient id="paint3_linear" x1="-105" y1="153326" x2="1.12782e+06" y2="153326" gradientUnits="userSpaceOnUse">
<stop stop-color="white"/>
<stop offset="0.65" stop-color="#DEDEDE"/>
<stop offset="1" stop-color="#D1D1D1"/>
</linearGradient>
</defs>
</svg>
